# Blender 4.0.2
# www.blender.org
mtllib Bags_B.mtl
o Bags_2
v 1.250573 -0.039675 -0.760708
v 1.250573 -0.039675 -0.760708
v 1.250573 -0.039675 -0.760708
v -1.247143 -0.039675 -0.760704
v -1.247143 -0.039675 -0.760704
v -1.247143 -0.039675 -0.760704
v -1.247143 2.495020 -0.760704
v -1.247143 2.495020 -0.760704
v -1.247143 2.495020 -0.760704
v -1.247143 2.495019 0.842407
v -1.247143 2.495019 0.842407
v -1.247143 2.495019 0.842407
v 1.250573 2.495019 0.842403
v 1.250573 2.495019 0.842403
v 1.250573 2.495019 0.842403
v 1.250573 2.495020 -0.760704
v 1.250573 2.495020 -0.760704
v 1.250573 2.495020 -0.760704
v -1.247143 -0.039675 0.842403
v -1.247143 -0.039675 0.842403
v -1.247143 -0.039675 0.842403
v 1.250573 -0.039675 0.842400
v 1.250573 -0.039675 0.842400
v 1.250573 -0.039675 0.842400
vn -0.0000 -0.0000 -1.0000
vn -0.0000 1.0000 -0.0000
vn 1.0000 -0.0000 -0.0000
vn -0.0000 -0.0000 1.0000
vn -1.0000 -0.0000 -0.0000
vn -0.0000 -1.0000 -0.0000
vt 0.653364 0.540279
vt 0.653364 0.993726
vt 0.255891 0.993725
vt 0.255891 0.540279
vt 0.996380 0.788613
vt 0.996380 0.996145
vt 0.660202 0.996145
vt 0.660202 0.788612
vt 0.000781 0.993725
vt 0.000781 0.540278
vt 0.635876 0.562567
vt 0.635876 0.536257
vt 0.273684 0.536257
vt 0.273684 0.562567
s 0
usemtl Bags_2
f 6/1/1 8/2/1 16/3/1
f 6/1/1 16/3/1 2/4/1
f 14/5/2 17/6/2 9/7/2
f 14/5/2 9/7/2 12/8/2
f 15/9/3 24/10/3 3/4/3
f 15/9/3 3/4/3 18/3/3
f 23/1/4 13/2/4 11/3/4
f 23/1/4 11/3/4 21/4/4
f 7/9/5 4/10/5 19/4/5
f 7/9/5 19/4/5 10/3/5
f 1/11/6 22/12/6 20/13/6
f 1/11/6 20/13/6 5/14/6
