# Blender 4.0.2
# www.blender.org
mtllib Barrel_3.mtl
o Barrel_3
v 0.000000 -0.032030 -0.278467
v 0.000000 -0.032030 -0.278467
v -0.163679 -0.032030 -0.225284
v -0.163679 -0.032030 -0.225284
v -0.264838 -0.032030 -0.086051
v -0.264838 -0.032030 -0.086051
v -0.264838 -0.032030 0.086051
v -0.264838 -0.032030 0.086051
v -0.264838 -0.032030 0.086051
v -0.163679 -0.032030 0.225285
v -0.163679 -0.032030 0.225285
v 0.000000 -0.032030 0.278467
v 0.000000 -0.032030 0.278467
v 0.163679 -0.032030 0.225284
v 0.163679 -0.032030 0.225284
v 0.264838 -0.032030 0.086051
v 0.264838 -0.032030 0.086051
v 0.264838 -0.032030 -0.086051
v 0.264838 -0.032030 -0.086051
v 0.163679 -0.032030 -0.225285
v 0.163679 -0.032030 -0.225285
v -0.000000 0.922716 -0.278467
v -0.000000 0.922716 -0.278467
v -0.163679 0.922716 -0.225284
v -0.163679 0.922716 -0.225284
v -0.264838 0.922716 -0.086051
v -0.264838 0.922716 -0.086051
v -0.264838 0.922716 0.086051
v -0.264838 0.922716 0.086051
v -0.264838 0.922716 0.086051
v -0.163679 0.922716 0.225285
v -0.163679 0.922716 0.225285
v 0.000000 0.922716 0.278467
v 0.000000 0.922716 0.278467
v 0.163679 0.922716 0.225284
v 0.163679 0.922716 0.225284
v 0.264838 0.922716 0.086051
v 0.264838 0.922716 0.086051
v 0.264838 0.922716 -0.086051
v 0.264838 0.922716 -0.086051
v 0.163679 0.922716 -0.225285
v 0.163679 0.922716 -0.225285
vn 0.9511 -0.0000 -0.3090
vn 0.9511 -0.0000 0.3090
vn 0.5878 -0.0000 -0.8090
vn -0.0000 -0.0000 -1.0000
vn 0.5878 -0.0000 0.8090
vn -0.9511 -0.0000 -0.3090
vn -0.5878 -0.0000 -0.8090
vn -0.0000 -1.0000 -0.0000
vn -0.0000 -0.0000 1.0000
vn -0.5878 -0.0000 0.8090
vn -0.9511 -0.0000 0.3090
vn -0.0000 1.0000 -0.0000
vt 0.499637 0.552976
vt 0.399853 0.552976
vt 0.399853 0.000000
vt 0.499637 0.000000
vt 0.599421 0.552976
vt 0.599421 0.000000
vt 0.699205 0.552976
vt 0.699205 0.000000
vt 0.300069 0.552976
vt 0.300069 0.000000
vt 0.898773 0.552976
vt 0.798989 0.552976
vt 0.798989 0.000000
vt 0.898773 0.000000
vt 0.794423 0.599523
vt 0.534402 0.599523
vt 0.454052 0.846817
vt 0.664412 0.999654
vt 0.200285 0.552976
vt 0.100501 0.552976
vt 0.100501 0.000000
vt 0.200285 0.000000
vt 0.998557 0.552976
vt 0.998557 0.000000
vt 0.000717 0.552976
vt 0.000717 0.000000
vt 0.874773 0.846818
vt 0.874773 0.710117
vt 0.664412 0.557281
vt 0.454052 0.710117
vt 0.534402 0.957411
vt 0.012483 0.711085
vt 0.222843 0.558249
vt 0.433204 0.711085
vt 0.352853 0.958379
vt 0.794423 0.957411
vt 0.092833 0.958379
vt 0.012483 0.847786
vt 0.092833 0.600492
vt 0.352854 0.600492
vt 0.433204 0.847786
vt 0.222843 1.000622
s 1
usemtl Barrel_3
f 40/1/1 38/2/2 17/3/2
f 40/1/1 17/3/2 19/4/1
f 42/5/3 40/1/1 19/4/1
f 42/5/3 19/4/1 21/6/3
f 22/7/4 42/5/3 21/6/3
f 22/7/4 21/6/3 2/8/4
f 38/2/2 36/9/5 15/10/5
f 38/2/2 15/10/5 17/3/2
f 26/11/6 24/12/7 3/13/7
f 26/11/6 3/13/7 5/14/6
f 24/12/7 22/7/4 2/8/4
f 24/12/7 2/8/4 3/13/7
s 0
f 14/15/8 11/16/8 6/17/8
f 14/15/8 6/17/8 1/18/8
s 1
f 33/19/9 31/20/10 10/21/10
f 33/19/9 10/21/10 13/22/9
f 29/23/11 26/11/6 5/14/6
f 29/23/11 5/14/6 8/24/11
f 31/20/10 28/25/11 7/26/11
f 31/20/10 7/26/11 10/21/10
s 0
f 18/27/8 16/28/8 14/15/8
f 14/15/8 12/29/8 11/16/8
f 11/16/8 9/30/8 6/17/8
f 6/17/8 4/31/8 1/18/8
f 30/32/12 34/33/12 37/34/12
f 30/32/12 37/34/12 41/35/12
f 18/27/8 14/15/8 1/18/8
f 20/36/8 18/27/8 1/18/8
f 25/37/12 27/38/12 30/32/12
f 30/32/12 32/39/12 34/33/12
f 34/33/12 35/40/12 37/34/12
f 37/34/12 39/41/12 41/35/12
f 25/37/12 30/32/12 41/35/12
f 23/42/12 25/37/12 41/35/12
s 1
f 36/9/5 33/19/9 13/22/9
f 36/9/5 13/22/9 15/10/5
