# Blender 4.0.2
# www.blender.org
mtllib Blade.mtl
o Ventilation_2_blades
v 0.258632 -0.366539 0.033854
v 0.399726 -0.497064 0.033855
v 0.475901 -0.412613 0.096647
v 0.362364 -0.289343 0.096647
v 0.106792 -0.222531 0.033852
v 0.212955 -0.109928 0.065232
v 0.398554 -0.116155 0.033857
v 0.588961 -0.127726 0.033857
v 0.617017 -0.029118 0.096648
v 0.455897 -0.005007 0.096641
v 0.219172 -0.100827 0.033856
v 0.244133 0.039745 0.065220
v 0.420916 0.155207 0.033854
v 0.583513 0.257713 0.033855
v 0.521654 0.353150 0.096647
v 0.373198 0.275387 0.096647
v 0.242476 0.045676 0.033852
v 0.161184 0.177364 0.065232
v 0.213936 0.353830 0.033855
v 0.263027 0.545800 0.033266
v 0.145990 0.599818 0.097238
v 0.084919 0.426292 0.096647
v 0.170606 0.174155 0.033855
v -0.009857 0.232682 0.065233
v -0.118036 0.433118 0.033854
v -0.205983 0.604028 0.033855
v -0.306449 0.550723 0.096647
v -0.241916 0.396057 0.096647
v -0.024506 0.245651 0.033852
v -0.162779 0.176150 0.065232
v -0.335157 0.245690 0.033857
v -0.510126 0.321687 0.033857
v -0.570213 0.238621 0.096648
v -0.427058 0.160857 0.096641
v -0.171735 0.169726 0.033856
v -0.243268 0.046167 0.065220
v -0.447122 -0.040765 0.033853
v -0.630707 -0.097695 0.033855
v -0.595660 -0.205890 0.096647
v -0.432136 -0.169199 0.096647
v -0.246299 0.018642 0.033852
v -0.201864 -0.129598 0.065232
v -0.324137 -0.259890 0.033857
v -0.442826 -0.409224 0.033857
v -0.378144 -0.488766 0.096648
v -0.265979 -0.370615 0.096641
v -0.208504 -0.121836 0.033856
v -0.107669 -0.222913 0.065220
v -0.044637 -0.411014 0.033855
v -0.020236 -0.606758 0.033266
v 0.108664 -0.606254 0.097238
v 0.102916 -0.422160 0.096647
v -0.081125 -0.230012 0.033855
v 0.107166 -0.206789 0.065233
v 0.362364 -0.289343 0.096647
v 0.475901 -0.412613 0.096647
v 0.399726 -0.497064 0.033855
v 0.258632 -0.366539 0.033854
v 0.212955 -0.109928 0.065232
v 0.106792 -0.222531 0.033852
v 0.455897 -0.005007 0.096641
v 0.617017 -0.029118 0.096648
v 0.588961 -0.127726 0.033857
v 0.398554 -0.116155 0.033857
v 0.219172 -0.100827 0.033856
v 0.244133 0.039745 0.065220
v 0.373198 0.275387 0.096647
v 0.521654 0.353150 0.096647
v 0.583513 0.257713 0.033855
v 0.420916 0.155207 0.033854
v 0.161184 0.177364 0.065232
v 0.242476 0.045676 0.033852
v 0.084919 0.426292 0.096647
v 0.145990 0.599818 0.097238
v 0.263026 0.545801 0.033266
v 0.213935 0.353831 0.033855
v 0.170606 0.174155 0.033855
v -0.009858 0.232683 0.065233
v -0.241916 0.396057 0.096647
v -0.306449 0.550723 0.096647
v -0.205983 0.604028 0.033855
v -0.118036 0.433118 0.033854
v -0.162779 0.176150 0.065232
v -0.024506 0.245651 0.033852
v -0.427058 0.160857 0.096641
v -0.570213 0.238621 0.096648
v -0.510125 0.321686 0.033857
v -0.335156 0.245690 0.033857
v -0.171735 0.169726 0.033856
v -0.243268 0.046166 0.065220
v -0.432136 -0.169199 0.096647
v -0.595660 -0.205890 0.096647
v -0.630707 -0.097695 0.033855
v -0.447122 -0.040765 0.033853
v -0.201864 -0.129598 0.065232
v -0.246299 0.018642 0.033852
v -0.265980 -0.370616 0.096641
v -0.378144 -0.488767 0.096648
v -0.442827 -0.409225 0.033857
v -0.324137 -0.259890 0.033857
v -0.208503 -0.121837 0.033856
v -0.107668 -0.222914 0.065220
v 0.102915 -0.422160 0.096647
v 0.108664 -0.606254 0.097238
v -0.020236 -0.606758 0.033266
v -0.044637 -0.411013 0.033855
v -0.081126 -0.230011 0.033855
v 0.107166 -0.206789 0.065233
vn 0.3036 0.2521 -0.9189
vn 0.3257 0.3268 -0.8872
vn 0.2994 0.2385 -0.9238
vn 0.2758 0.1649 -0.9470
vn 0.0806 0.4249 -0.9017
vn 0.0505 0.4978 -0.8658
vn 0.0960 0.3856 -0.9177
vn 0.1236 0.3119 -0.9420
vn -0.1650 0.3584 -0.9189
vn -0.2313 0.3992 -0.8872
vn -0.1530 0.3509 -0.9238
vn -0.0880 0.3090 -0.9470
vn -0.3229 0.1416 -0.9358
vn -0.4043 0.1219 -0.9065
vn -0.3010 0.1466 -0.9423
vn -0.2232 0.1635 -0.9610
vn -0.3715 -0.1331 -0.9188
vn -0.4178 -0.1957 -0.8872
vn -0.3629 -0.1218 -0.9238
vn -0.3155 -0.0607 -0.9470
vn -0.2211 -0.3716 -0.9017
vn -0.2177 -0.4505 -0.8658
vn -0.2221 -0.3295 -0.9177
vn -0.2229 -0.2508 -0.9420
vn 0.0664 -0.3889 -0.9189
vn 0.1201 -0.4455 -0.8872
vn 0.0568 -0.3785 -0.9238
vn 0.0048 -0.3213 -0.9470
vn 0.3017 -0.3098 -0.9017
vn 0.3788 -0.3269 -0.8658
vn 0.2607 -0.2999 -0.9177
vn 0.1844 -0.2803 -0.9420
vn 0.3507 -0.0076 -0.9364
vn 0.4176 0.0331 -0.9080
vn 0.3359 -0.0164 -0.9417
vn 0.2714 -0.0541 -0.9609
vn -0.3036 -0.2521 0.9189
vn -0.2994 -0.2385 0.9238
vn -0.3257 -0.3268 0.8872
vn -0.2758 -0.1649 0.9470
vn -0.0806 -0.4249 0.9017
vn -0.0960 -0.3856 0.9177
vn -0.0505 -0.4978 0.8658
vn -0.1236 -0.3119 0.9420
vn 0.1650 -0.3584 0.9189
vn 0.1530 -0.3509 0.9238
vn 0.2313 -0.3992 0.8872
vn 0.0880 -0.3090 0.9470
vn 0.3229 -0.1416 0.9358
vn 0.3010 -0.1466 0.9423
vn 0.4043 -0.1219 0.9064
vn 0.4043 -0.1219 0.9065
vn 0.2232 -0.1635 0.9610
vn 0.3715 0.1331 0.9188
vn 0.3629 0.1218 0.9238
vn 0.4178 0.1957 0.8872
vn 0.3155 0.0607 0.9470
vn 0.2211 0.3716 0.9017
vn 0.2221 0.3295 0.9177
vn 0.2177 0.4505 0.8658
vn 0.2229 0.2508 0.9420
vn -0.0664 0.3889 0.9189
vn -0.0568 0.3785 0.9238
vn -0.1201 0.4455 0.8872
vn -0.0048 0.3213 0.9470
vn -0.3017 0.3098 0.9017
vn -0.2607 0.2999 0.9177
vn -0.3788 0.3269 0.8658
vn -0.1844 0.2803 0.9420
vn -0.3507 0.0076 0.9364
vn -0.3359 0.0164 0.9418
vn -0.4176 -0.0331 0.9080
vn -0.2714 0.0541 0.9609
vt 0.152121 0.704783
vt 0.149965 0.761427
vt 0.110367 0.761557
vt 0.107481 0.696334
vt 0.161391 0.635205
vt 0.102759 0.634138
vt 0.224323 0.704444
vt 0.223307 0.763998
vt 0.185024 0.760434
vt 0.179894 0.691175
vt 0.174406 0.635222
vt 0.232922 0.634866
vt 0.073324 0.702978
vt 0.072566 0.758895
vt 0.029309 0.754282
vt 0.023148 0.693420
vt 0.011993 0.636411
vt 0.082543 0.635161
s 1
usemtl Ventilation_2
f 4/1/1 3/2/2 2/3/2
f 4/1/1 2/3/2 1/4/3
f 6/5/4 4/1/1 1/4/3
f 6/5/4 1/4/3 5/6/4
f 10/7/5 9/8/6 8/9/6
f 10/7/5 8/9/6 7/10/7
f 7/10/7 11/11/8 12/12/8
f 7/10/7 12/12/8 10/7/5
f 16/1/9 15/2/10 14/3/10
f 16/1/9 14/3/10 13/4/11
f 18/5/12 16/1/9 13/4/11
f 18/5/12 13/4/11 17/6/12
f 22/13/13 21/14/14 20/15/14
f 22/13/13 20/15/14 19/16/15
f 19/16/15 23/17/16 24/18/16
f 19/16/15 24/18/16 22/13/13
f 28/1/17 27/2/18 26/3/18
f 28/1/17 26/3/18 25/4/19
f 30/5/20 28/1/17 25/4/19
f 30/5/20 25/4/19 29/6/20
f 34/7/21 33/8/22 32/9/22
f 34/7/21 32/9/22 31/10/23
f 31/10/23 35/11/24 36/12/24
f 31/10/23 36/12/24 34/7/21
f 40/1/25 39/2/26 38/3/26
f 40/1/25 38/3/26 37/4/27
f 42/5/28 40/1/25 37/4/27
f 42/5/28 37/4/27 41/6/28
f 46/7/29 45/8/30 44/9/30
f 46/7/29 44/9/30 43/10/31
f 43/10/31 47/11/32 48/12/32
f 43/10/31 48/12/32 46/7/29
f 52/13/33 51/14/34 50/15/34
f 52/13/33 50/15/34 49/16/35
f 49/16/35 53/17/36 54/18/36
f 49/16/35 54/18/36 52/13/33
f 55/1/37 58/4/38 57/3/39
f 55/1/37 57/3/39 56/2/39
f 59/5/40 60/6/40 58/4/38
f 59/5/40 58/4/38 55/1/37
f 61/7/41 64/10/42 63/9/43
f 61/7/41 63/9/43 62/8/43
f 64/10/42 61/7/41 66/12/44
f 64/10/42 66/12/44 65/11/44
f 67/1/45 70/4/46 69/3/47
f 67/1/45 69/3/47 68/2/47
f 71/5/48 72/6/48 70/4/46
f 71/5/48 70/4/46 67/1/45
f 73/13/49 76/16/50 75/15/51
f 73/13/49 75/15/51 74/14/52
f 76/16/50 73/13/49 78/18/53
f 76/16/50 78/18/53 77/17/53
f 79/1/54 82/4/55 81/3/56
f 79/1/54 81/3/56 80/2/56
f 83/5/57 84/6/57 82/4/55
f 83/5/57 82/4/55 79/1/54
f 85/7/58 88/10/59 87/9/60
f 85/7/58 87/9/60 86/8/60
f 88/10/59 85/7/58 90/12/61
f 88/10/59 90/12/61 89/11/61
f 91/1/62 94/4/63 93/3/64
f 91/1/62 93/3/64 92/2/64
f 95/5/65 96/6/65 94/4/63
f 95/5/65 94/4/63 91/1/62
f 97/7/66 100/10/67 99/9/68
f 97/7/66 99/9/68 98/8/68
f 100/10/67 97/7/66 102/12/69
f 100/10/67 102/12/69 101/11/69
f 103/13/70 106/16/71 105/15/72
f 103/13/70 105/15/72 104/14/72
f 106/16/71 103/13/70 108/18/73
f 106/16/71 108/18/73 107/17/73
