# Blender 4.0.2
# www.blender.org
mtllib Box.mtl
o Box_wood
v 0.405073 0.774887 -0.405073
v 0.405073 0.774887 -0.405073
v 0.405073 0.774887 -0.405073
v 0.405073 0.774887 0.405073
v 0.405073 0.774887 0.405073
v 0.405073 0.774887 0.405073
v 0.405073 -0.037495 0.405073
v 0.405073 -0.037495 0.405073
v 0.405073 -0.037495 0.405073
v 0.405073 -0.037496 -0.405073
v 0.405073 -0.037496 -0.405073
v 0.405073 -0.037496 -0.405073
v -0.405073 0.774887 0.405073
v -0.405073 0.774887 0.405073
v -0.405073 0.774887 0.405073
v -0.405073 0.774887 -0.405073
v -0.405073 0.774887 -0.405073
v -0.405073 0.774887 -0.405073
v -0.405073 -0.037496 -0.405073
v -0.405073 -0.037496 -0.405073
v -0.405073 -0.037496 -0.405073
v -0.405073 -0.037496 0.405073
v -0.405073 -0.037496 0.405073
v -0.405073 -0.037496 0.405073
vn -0.0000 -1.0000 -0.0000
vn -0.0000 -0.0000 -1.0000
vn -1.0000 -0.0000 -0.0000
vn -0.0000 -0.0000 1.0000
vn -0.0000 1.0000 -0.0000
vn 1.0000 -0.0000 -0.0000
vt 0.787925 0.707729
vt 0.787925 0.966771
vt 0.490123 0.966771
vt 0.490123 0.707729
vt 0.490123 0.998841
vt 0.490123 0.683264
vt 0.787925 0.683264
vt 0.787925 0.998841
vt 0.781221 0.673891
vt 0.781221 0.989468
vt 0.497586 0.989468
vt 0.497586 0.673891
vt 0.038509 0.322426
vt 0.413324 0.322426
vt 0.413324 0.670377
vt 0.038509 0.670377
s 0
usemtl Box_wood
f 10/1/1 7/2/1 23/3/1
f 10/1/1 23/3/1 20/4/1
f 1/5/2 11/6/2 21/7/2
f 1/5/2 21/7/2 17/8/2
f 16/9/3 19/10/3 22/11/3
f 16/9/3 22/11/3 13/12/3
f 14/5/4 24/6/4 8/7/4
f 14/5/4 8/7/4 4/8/4
f 15/13/5 5/14/5 2/15/5
f 15/13/5 2/15/5 18/16/5
f 9/10/6 12/11/6 3/12/6
f 9/10/6 3/12/6 6/9/6
