# Blender 4.0.2
# www.blender.org
mtllib Bridge_No_Railing.mtl
o Bridges_1
v 0.949015 0.226912 2.495174
v -0.949224 0.226912 2.495174
v -0.949224 0.226911 -2.359337
v 0.949018 0.226911 -2.359337
v -0.949225 0.267298 -2.359337
v -0.949225 0.267298 -0.741196
v -0.949225 0.267298 -0.741196
v 0.949018 0.267298 -0.741196
v 0.949018 0.267298 -0.741196
v 0.949017 0.267298 -2.359337
v -0.949225 0.267298 0.876911
v -0.949225 0.267298 0.876911
v 0.949018 0.267298 0.876911
v 0.949018 0.267298 0.876911
v -0.949225 0.267298 2.495174
v 0.949020 0.267298 2.495174
v -1.043140 0.293466 -2.359337
v -1.043140 0.293466 -2.359337
v -1.043140 0.132512 -2.359337
v -1.043140 0.132512 -2.359337
v -1.043140 0.132512 2.495174
v -1.043140 0.132512 2.495174
v -1.043140 0.293466 2.495174
v -1.043140 0.293466 2.495174
v -0.946207 0.132512 -2.359337
v -0.946207 0.132512 -2.359337
v -0.946207 0.293466 -2.359337
v -0.946207 0.293466 -2.359337
v -0.946207 0.293466 2.495174
v -0.946207 0.293466 2.495174
v -0.946207 0.132512 2.495174
v -0.946207 0.132512 2.495174
v -0.949242 0.247411 0.090523
v -0.949242 0.247411 0.090523
v -0.949242 0.168321 0.090523
v -0.949242 0.168321 0.090523
v 0.949492 0.168321 0.090527
v 0.949492 0.168321 0.090527
v 0.949492 0.247411 0.090527
v 0.949492 0.247411 0.090527
v -0.949241 0.168321 0.032059
v -0.949241 0.168321 0.032059
v -0.949241 0.247411 0.032059
v -0.949241 0.247411 0.032059
v 0.949492 0.247411 0.032059
v 0.949492 0.247411 0.032059
v 0.949492 0.168321 0.032059
v 0.949492 0.168321 0.032059
v -0.949242 0.247411 -1.531330
v -0.949242 0.247411 -1.531330
v -0.949242 0.168321 -1.531330
v -0.949242 0.168321 -1.531330
v 0.949492 0.168321 -1.531326
v 0.949492 0.168321 -1.531326
v 0.949492 0.247411 -1.531326
v 0.949492 0.247411 -1.531326
v -0.949241 0.168321 -1.589798
v -0.949241 0.168321 -1.589798
v -0.949241 0.247411 -1.589798
v -0.949241 0.247411 -1.589798
v 0.949492 0.247411 -1.589798
v 0.949492 0.247411 -1.589798
v 0.949492 0.168321 -1.589798
v 0.949492 0.168321 -1.589798
v -0.949242 0.247411 1.700344
v -0.949242 0.247411 1.700344
v -0.949242 0.168321 1.700344
v -0.949242 0.168321 1.700344
v 0.949492 0.168321 1.700348
v 0.949492 0.168321 1.700348
v 0.949492 0.247411 1.700348
v 0.949492 0.247411 1.700348
v -0.949241 0.168321 1.641876
v -0.949241 0.168321 1.641876
v -0.949241 0.247411 1.641876
v -0.949241 0.247411 1.641876
v 0.949492 0.247411 1.641876
v 0.949492 0.247411 1.641876
v 0.949492 0.168321 1.641876
v 0.949492 0.168321 1.641876
v -0.911041 0.247411 0.078537
v -0.911041 0.173872 0.078537
v -0.911041 0.173872 0.078537
v 0.878469 0.173872 1.717197
v 0.878469 0.173872 1.717197
v 0.878469 0.247411 1.717197
v -0.878224 0.173872 0.042698
v -0.878224 0.173872 0.042698
v -0.878224 0.247411 0.042698
v 0.911289 0.247411 1.681358
v 0.911289 0.173872 1.681358
v 0.911289 0.173872 1.681358
v -0.885674 0.247411 1.709305
v -0.885674 0.192805 1.709305
v -0.885674 0.192805 1.709305
v 0.918421 0.192805 0.086720
v 0.918421 0.192805 0.086720
v 0.918421 0.247411 0.086720
v -0.918171 0.192805 1.673172
v -0.918171 0.192805 1.673172
v -0.918171 0.247411 1.673172
v 0.885923 0.247411 0.050583
v 0.885923 0.192805 0.050583
v 0.885923 0.192805 0.050583
v -0.911041 0.247411 -1.551685
v -0.911041 0.173872 -1.551685
v -0.911041 0.173872 -1.551685
v 0.878469 0.173872 0.086975
v 0.878469 0.173872 0.086975
v 0.878469 0.247411 0.086975
v -0.878224 0.173872 -1.587524
v -0.878224 0.173872 -1.587524
v -0.878224 0.247411 -1.587524
v 0.911289 0.247411 0.051132
v 0.911289 0.173872 0.051132
v 0.911289 0.173872 0.051132
v -0.885674 0.247411 0.079079
v -0.885674 0.192805 0.079079
v -0.885674 0.192805 0.079079
v 0.918421 0.192805 -1.543503
v 0.918421 0.192805 -1.543503
v 0.918421 0.247411 -1.543503
v -0.918171 0.192805 0.042950
v -0.918171 0.192805 0.042950
v -0.918171 0.247411 0.042950
v 0.885923 0.247411 -1.579639
v 0.885923 0.192805 -1.579639
v 0.885923 0.192805 -1.579639
v -0.911041 0.247411 1.693832
v -0.911041 0.173872 1.693832
v -0.911041 0.173872 1.693832
v -0.036097 0.173872 2.495174
v -0.036097 0.173872 2.495174
v -0.036097 0.247410 2.495174
v -0.878224 0.173872 1.657990
v -0.878224 0.173872 1.657990
v -0.878224 0.247411 1.657990
v 0.035862 0.247411 2.495174
v 0.035862 0.173872 2.495174
v 0.035862 0.173872 2.495174
v 0.036703 0.192805 2.495174
v 0.036703 0.192805 2.495174
v 0.918421 0.192805 1.702011
v 0.918421 0.192805 1.702011
v 0.918421 0.247411 1.702011
v 0.036703 0.247411 2.495174
v -0.035969 0.247411 2.495174
v 0.885923 0.247411 1.665878
v 0.885923 0.192805 1.665878
v 0.885923 0.192805 1.665878
v -0.035969 0.192805 2.495174
v -0.035969 0.192805 2.495174
v -0.885674 0.247411 -1.529831
v -0.885674 0.192805 -1.529831
v -0.885674 0.192805 -1.529831
v 0.036703 0.192805 -2.359337
v 0.036703 0.192805 -2.359337
v 0.036703 0.247411 -2.359337
v -0.918171 0.192805 -1.565964
v -0.918171 0.192805 -1.565964
v -0.918171 0.247411 -1.565964
v -0.035969 0.247411 -2.359337
v -0.035969 0.192805 -2.359337
v -0.035969 0.192805 -2.359337
v -0.036096 0.173872 -2.359337
v -0.036096 0.173872 -2.359337
v 0.878469 0.173872 -1.521938
v 0.878469 0.173872 -1.521938
v 0.878469 0.247411 -1.521938
v -0.036096 0.247410 -2.359337
v 0.035863 0.247411 -2.359337
v 0.911289 0.247411 -1.557777
v 0.911289 0.173872 -1.557777
v 0.911289 0.173872 -1.557777
v 0.035863 0.173872 -2.359337
v 0.035863 0.173872 -2.359337
v 1.044862 0.293466 -2.359337
v 1.044862 0.293466 -2.359337
v 1.044862 0.293466 2.495174
v 1.044862 0.293466 2.495174
v 1.044862 0.132512 2.495174
v 1.044862 0.132512 2.495174
v 1.044862 0.132512 -2.359337
v 1.044862 0.132512 -2.359337
v 0.947927 0.132512 -2.359337
v 0.947927 0.132512 -2.359337
v 0.947927 0.132512 2.495174
v 0.947927 0.132512 2.495174
v 0.947928 0.293466 2.495174
v 0.947928 0.293466 2.495174
v 0.947928 0.293466 -2.359337
v 0.947928 0.293466 -2.359337
vn -0.0000 -1.0000 -0.0000
vn -0.0000 1.0000 -0.0000
vn -1.0000 -0.0000 -0.0000
vn 1.0000 -0.0000 -0.0000
vn -0.0000 -0.0000 1.0000
vn -0.0000 -0.0000 -1.0000
vn -0.6753 -0.0000 0.7375
vn 0.6753 -0.0000 -0.7375
vn 0.6687 -0.0000 0.7435
vn -0.6687 -0.0000 -0.7435
vn -0.6754 -0.0000 0.7374
vn 0.6754 -0.0000 -0.7374
vn 0.6688 -0.0000 0.7435
vn -0.6688 -0.0000 -0.7435
vt 0.999462 0.659426
vt 0.603286 0.659426
vt 0.603286 0.488883
vt 0.999462 0.488883
vt 1.000000 0.663362
vt 1.000000 1.000000
vt 0.603892 1.000000
vt 0.603892 0.663362
vt 0.207732 0.000000
vt 0.207731 1.000000
vt 0.174145 1.000000
vt 0.174145 0.000000
vt 0.274905 0.000000
vt 0.274904 1.000000
vt 0.241318 1.000000
vt 0.241318 0.000000
vt 0.140558 1.000000
vt 0.140558 0.000000
vt 0.207731 0.488930
vt 0.174145 0.488930
vt 0.274905 0.510802
vt 0.241318 0.510802
vt 0.174145 0.511268
vt 0.207732 0.511268
vt 0.241318 0.489000
vt 0.274905 0.489000
s 0
usemtl Bridges_turn
f 2/1/1 3/2/1 4/3/1
f 2/1/1 4/3/1 1/4/1
f 5/5/2 6/6/2 8/7/2
f 5/5/2 8/7/2 10/8/2
f 7/5/2 11/6/2 13/7/2
f 7/5/2 13/7/2 9/8/2
f 12/5/2 15/6/2 16/7/2
f 12/5/2 16/7/2 14/8/2
f 19/9/3 21/10/3 23/11/3
f 19/9/3 23/11/3 17/12/3
f 28/13/4 30/14/4 32/15/4
f 28/13/4 32/15/4 26/16/4
f 25/16/1 31/15/1 22/10/1
f 25/16/1 22/10/1 20/9/1
f 29/17/2 27/18/2 18/12/2
f 29/17/2 18/12/2 24/11/2
f 36/9/5 38/10/5 39/11/5
f 36/9/5 39/11/5 33/12/5
f 43/13/6 45/14/6 48/15/6
f 43/13/6 48/15/6 42/16/6
f 41/16/1 47/15/1 37/10/1
f 41/16/1 37/10/1 35/9/1
f 46/17/2 44/18/2 34/12/2
f 46/17/2 34/12/2 40/11/2
f 52/9/5 54/10/5 55/11/5
f 52/9/5 55/11/5 49/12/5
f 59/13/6 61/14/6 64/15/6
f 59/13/6 64/15/6 58/16/6
f 57/16/1 63/15/1 53/10/1
f 57/16/1 53/10/1 51/9/1
f 62/17/2 60/18/2 50/12/2
f 62/17/2 50/12/2 56/11/2
f 68/9/5 70/10/5 71/11/5
f 68/9/5 71/11/5 65/12/5
f 75/13/6 77/14/6 80/15/6
f 75/13/6 80/15/6 74/16/6
f 73/16/1 79/15/1 69/10/1
f 73/16/1 69/10/1 67/9/1
f 78/17/2 76/18/2 66/12/2
f 78/17/2 66/12/2 72/11/2
f 82/9/7 84/10/7 86/11/7
f 82/9/7 86/11/7 81/12/7
f 89/13/8 90/14/8 92/15/8
f 89/13/8 92/15/8 88/16/8
f 87/16/1 91/15/1 85/10/1
f 87/16/1 85/10/1 83/9/1
s 1
f 95/9/9 97/10/9 98/11/9
s 0
f 95/9/9 98/11/9 93/12/9
f 101/13/10 102/14/10 103/15/10
f 101/13/10 103/15/10 99/16/10
f 100/16/1 104/15/1 96/10/1
f 100/16/1 96/10/1 94/9/1
f 106/9/7 108/10/7 110/11/7
f 106/9/7 110/11/7 105/12/7
f 113/13/8 114/14/8 116/15/8
f 113/13/8 116/15/8 112/16/8
f 111/16/1 115/15/1 109/10/1
f 111/16/1 109/10/1 107/9/1
f 119/9/9 121/10/9 122/11/9
s 1
f 119/9/9 122/11/9 117/12/9
s 0
f 125/13/10 126/14/10 127/15/10
f 125/13/10 127/15/10 123/16/10
f 124/16/1 128/15/1 120/10/1
f 124/16/1 120/10/1 118/9/1
f 130/9/11 132/19/11 134/20/11
f 130/9/11 134/20/11 129/12/11
f 137/13/12 138/21/12 140/22/12
f 137/13/12 140/22/12 136/16/12
f 135/16/1 139/22/1 133/19/1
f 135/16/1 133/19/1 131/9/1
f 144/10/13 145/11/13 146/23/13
f 144/10/13 146/23/13 142/24/13
f 148/14/14 149/15/14 151/25/14
f 148/14/14 151/25/14 147/26/14
f 150/15/1 143/10/1 141/24/1
f 150/15/1 141/24/1 152/25/1
f 155/9/9 157/24/9 158/23/9
f 155/9/9 158/23/9 153/12/9
f 161/13/10 162/26/10 163/25/10
f 161/13/10 163/25/10 159/16/10
f 154/9/1 160/16/1 164/25/1
f 154/9/1 164/25/1 156/24/1
f 167/10/7 169/11/7 170/20/7
f 167/10/7 170/20/7 165/19/7
f 172/14/8 174/15/8 176/22/8
f 172/14/8 176/22/8 171/21/8
f 175/22/1 173/15/1 168/10/1
f 175/22/1 168/10/1 166/19/1
f 180/11/4 182/10/4 184/9/4
f 180/11/4 184/9/4 178/12/4
f 187/15/3 189/14/3 191/13/3
f 187/15/3 191/13/3 185/16/3
f 181/10/1 188/15/1 186/16/1
f 181/10/1 186/16/1 183/9/1
f 177/12/2 192/18/2 190/17/2
f 177/12/2 190/17/2 179/11/2
