# Blender 4.0.2
# www.blender.org
mtllib Bridge_With_Supportbeam.mtl
o Bridges_3
v -1.036914 -0.269977 -0.057028
v -1.036914 -0.269977 -0.057028
v -1.036914 -0.269977 0.034519
v -1.036914 -0.269977 0.034519
v -1.036914 4.674495 0.034519
v -1.036914 4.674495 0.034519
v -1.036914 4.674495 -0.057028
v -1.036914 4.674495 -0.057028
v -0.945365 -0.269977 0.034519
v -0.945365 -0.269977 0.034519
v -0.945367 -0.269977 -0.057028
v -0.945367 -0.269977 -0.057028
v -0.945367 4.674494 -0.057028
v -0.945367 4.674494 -0.057028
v -0.945365 4.674494 0.034519
v -0.945365 4.674494 0.034519
v 0.948155 4.767442 2.427253
v -0.950084 4.767442 2.427253
v -0.950084 4.767442 -2.427258
v 0.948159 4.767442 -2.427258
v -0.950086 4.807828 -2.427258
v -0.950086 4.807828 -0.809120
v -0.950086 4.807828 -0.809120
v 0.948159 4.807828 -0.809120
v 0.948159 4.807828 -0.809120
v 0.948157 4.807828 -2.427258
v -0.950086 4.807828 0.808988
v -0.950086 4.807828 0.808988
v 0.948159 4.807828 0.808988
v 0.948159 4.807828 0.808988
v -0.950086 4.807828 2.427253
v 0.948161 4.807828 2.427253
v -1.044000 4.833996 -2.427258
v -1.044000 4.833996 -2.427258
v -1.044000 4.673042 -2.427258
v -1.044000 4.673042 -2.427258
v -1.044000 4.673042 2.427253
v -1.044000 4.673042 2.427253
v -1.044000 4.833996 2.427253
v -1.044000 4.833996 2.427253
v -0.947066 4.673042 -2.427258
v -0.947066 4.673042 -2.427258
v -0.947066 4.833996 -2.427258
v -0.947066 4.833996 -2.427258
v -0.947066 4.833996 2.427253
v -0.947066 4.833996 2.427253
v -0.947066 4.673042 2.427253
v -0.947066 4.673042 2.427253
v -0.995931 5.726345 -2.427258
v -1.048394 5.673878 -2.427258
v -1.048394 5.673878 2.427253
v -0.995931 5.726343 2.427253
v -0.995133 5.620617 -2.427258
v -0.942670 5.673082 -2.427258
v -0.942670 5.673082 -2.427258
v -0.942670 5.673082 2.427253
v -0.942670 5.673082 2.427253
v -0.995133 5.620617 2.427253
v -0.995933 5.501770 -2.427258
v -1.048398 5.449305 -2.427258
v -1.048398 5.449305 2.427253
v -0.995933 5.501770 2.427253
v -0.995135 5.396044 -2.427258
v -0.942672 5.448509 -2.427258
v -0.942672 5.448509 -2.427258
v -0.942672 5.448507 2.427253
v -0.942672 5.448507 2.427253
v -0.995135 5.396044 2.427253
v -1.033988 4.829755 -0.013332
v -0.990767 4.829755 0.029888
v -0.990767 5.641268 0.029888
v -1.033988 5.641268 -0.013333
v -0.957074 4.829755 -0.003803
v -1.000297 4.829755 -0.047026
v -1.000297 4.829755 -0.047026
v -1.000297 5.641264 -0.047026
v -1.000297 5.641264 -0.047026
v -0.957074 5.641264 -0.003803
v -0.990769 5.641268 -1.577646
v -1.033990 5.641268 -1.620865
v -1.033990 4.829755 -1.620865
v -0.990769 4.829755 -1.577646
v -1.000297 5.641268 -1.654556
v -0.957078 5.641268 -1.611338
v -0.957078 5.641268 -1.611338
v -0.957078 4.829758 -1.611338
v -0.957078 4.829758 -1.611338
v -1.000297 4.829758 -1.654556
v -0.957004 5.641266 1.602798
v -0.990191 5.641266 1.635988
v -0.990191 4.829755 1.635988
v -0.957004 4.829755 1.602798
v -1.034070 5.641266 1.592110
v -1.000880 5.641266 1.558920
v -1.000880 5.641266 1.558920
v -1.000880 4.829758 1.558920
v -1.000880 4.829758 1.558920
v -1.034070 4.829758 1.592110
v -0.950101 4.787941 0.022602
v -0.950101 4.787941 0.022602
v -0.950101 4.708851 0.022602
v -0.950101 4.708851 0.022602
v 0.948632 4.708851 0.022604
v 0.948632 4.708851 0.022604
v 0.948632 4.787941 0.022604
v 0.948632 4.787941 0.022604
v -0.950101 4.708851 -0.035866
v -0.950101 4.708851 -0.035866
v -0.950101 4.787941 -0.035866
v -0.950101 4.787941 -0.035866
v 0.948632 4.787941 -0.035866
v 0.948632 4.787941 -0.035866
v 0.948632 4.708851 -0.035866
v 0.948632 4.708851 -0.035866
v -0.950101 4.787941 -1.599253
v -0.950101 4.787941 -1.599253
v -0.950101 4.708851 -1.599253
v -0.950101 4.708851 -1.599253
v 0.948632 4.708851 -1.599251
v 0.948632 4.708851 -1.599251
v 0.948632 4.787941 -1.599251
v 0.948632 4.787941 -1.599251
v -0.950101 4.708851 -1.657721
v -0.950101 4.708851 -1.657721
v -0.950101 4.787941 -1.657721
v -0.950101 4.787941 -1.657721
v 0.948632 4.787941 -1.657721
v 0.948632 4.787941 -1.657721
v 0.948632 4.708851 -1.657721
v 0.948632 4.708851 -1.657721
v -0.950101 4.787941 1.632421
v -0.950101 4.787941 1.632421
v -0.950101 4.708851 1.632421
v -0.950101 4.708851 1.632421
v 0.948632 4.708851 1.632423
v 0.948632 4.708851 1.632423
v 0.948632 4.787941 1.632423
v 0.948632 4.787941 1.632423
v -0.950101 4.708851 1.573954
v -0.950101 4.708851 1.573954
v -0.950101 4.787941 1.573954
v -0.950101 4.787941 1.573954
v 0.948632 4.787941 1.573954
v 0.948632 4.787941 1.573954
v 0.948632 4.708851 1.573954
v 0.948632 4.708851 1.573954
v -0.911901 4.787941 0.010616
v -0.911901 4.714402 0.010616
v -0.911901 4.714402 0.010616
v 0.877610 4.714402 1.649275
v 0.877610 4.714402 1.649275
v 0.877610 4.787941 1.649275
v -0.879085 4.714402 -0.025225
v -0.879085 4.714402 -0.025225
v -0.879085 4.787941 -0.025225
v 0.910430 4.787941 1.613434
v 0.910430 4.714402 1.613434
v 0.910430 4.714402 1.613434
v -0.886533 4.787941 1.641382
v -0.886533 4.733335 1.641382
v -0.886533 4.733335 1.641382
v 0.917562 4.733335 0.018797
v 0.917562 4.733335 0.018797
v 0.917562 4.787941 0.018797
v -0.919030 4.733335 1.605251
v -0.919030 4.733335 1.605251
v -0.919030 4.787941 1.605251
v 0.885064 4.787941 -0.017338
v 0.885064 4.733335 -0.017338
v 0.885064 4.733335 -0.017338
v -0.911901 4.787941 -1.619608
v -0.911901 4.714402 -1.619608
v -0.911901 4.714402 -1.619608
v 0.877610 4.714402 0.019050
v 0.877610 4.714402 0.019050
v 0.877610 4.787941 0.019050
v -0.879085 4.714402 -1.655449
v -0.879085 4.714402 -1.655449
v -0.879085 4.787941 -1.655449
v 0.910430 4.787941 -0.016791
v 0.910430 4.714402 -0.016791
v 0.910430 4.714402 -0.016791
v -0.886533 4.787941 0.011158
v -0.886533 4.733335 0.011158
v -0.886533 4.733335 0.011158
v 0.917562 4.733335 -1.611427
v 0.917562 4.733335 -1.611427
v 0.917562 4.787941 -1.611427
v -0.919030 4.733335 -0.024973
v -0.919030 4.733335 -0.024973
v -0.919030 4.787941 -0.024973
v 0.885064 4.787941 -1.647562
v 0.885064 4.733335 -1.647562
v 0.885064 4.733335 -1.647562
v -0.911901 4.787941 1.625908
v -0.911901 4.714402 1.625908
v -0.911901 4.714402 1.625908
v -0.036956 4.714402 2.427253
v -0.036956 4.714402 2.427253
v -0.036956 4.787940 2.427253
v -0.879085 4.714402 1.590067
v -0.879085 4.714402 1.590067
v -0.879085 4.787941 1.590067
v 0.035003 4.787941 2.427253
v 0.035003 4.714402 2.427253
v 0.035003 4.714402 2.427253
v 0.035844 4.733335 2.427253
v 0.035844 4.733335 2.427253
v 0.917562 4.733335 1.634088
v 0.917562 4.733335 1.634088
v 0.917562 4.787941 1.634088
v 0.035844 4.787941 2.427253
v -0.036828 4.787941 2.427253
v 0.885064 4.787941 1.597954
v 0.885064 4.733335 1.597954
v 0.885064 4.733335 1.597954
v -0.036828 4.733335 2.427253
v -0.036828 4.733335 2.427253
v -0.886533 4.787941 -1.597754
v -0.886533 4.733335 -1.597754
v -0.886533 4.733335 -1.597754
v 0.035844 4.733335 -2.427258
v 0.035844 4.733335 -2.427258
v 0.035844 4.787941 -2.427258
v -0.919030 4.733335 -1.633885
v -0.919030 4.733335 -1.633885
v -0.919030 4.787941 -1.633885
v -0.036828 4.787941 -2.427258
v -0.036828 4.733335 -2.427258
v -0.036828 4.733335 -2.427258
v -0.036956 4.714402 -2.427258
v -0.036956 4.714402 -2.427258
v 0.877610 4.714402 -1.589861
v 0.877610 4.714402 -1.589861
v 0.877610 4.787941 -1.589861
v -0.036956 4.787940 -2.427258
v 0.035003 4.787941 -2.427258
v 0.910430 4.787941 -1.625702
v 0.910430 4.714402 -1.625702
v 0.910430 4.714402 -1.625702
v 0.035003 4.714402 -2.427258
v 0.035003 4.714402 -2.427258
v 1.036918 -0.269975 -0.057035
v 1.036918 -0.269975 -0.057035
v 1.036918 4.674497 -0.057036
v 1.036918 4.674497 -0.057036
v 1.036918 4.674497 0.034511
v 1.036918 4.674497 0.034511
v 1.036918 -0.269975 0.034512
v 1.036918 -0.269975 0.034512
v 0.945369 -0.269975 0.034512
v 0.945369 -0.269975 0.034512
v 0.945369 4.674496 0.034511
v 0.945369 4.674496 0.034511
v 0.945369 4.674496 -0.057036
v 0.945369 4.674496 -0.057036
v 0.945369 -0.269975 -0.057035
v 0.945369 -0.269975 -0.057035
v 1.044002 4.833996 -2.427258
v 1.044002 4.833996 -2.427258
v 1.044002 4.833996 2.427253
v 1.044002 4.833996 2.427253
v 1.044002 4.673042 2.427253
v 1.044002 4.673042 2.427253
v 1.044002 4.673042 -2.427258
v 1.044002 4.673042 -2.427258
v 0.947068 4.673042 -2.427258
v 0.947068 4.673042 -2.427258
v 0.947068 4.673042 2.427253
v 0.947068 4.673042 2.427253
v 0.947068 4.833996 2.427253
v 0.947068 4.833996 2.427253
v 0.947068 4.833996 -2.427258
v 0.947068 4.833996 -2.427258
v 1.048398 5.673082 -2.427258
v 1.048398 5.673080 2.427253
v 0.995934 5.620617 2.427253
v 0.995934 5.620619 -2.427258
v 0.942674 5.673880 -2.427258
v 0.942674 5.673878 2.427253
v 0.995137 5.726343 2.427253
v 0.995137 5.726343 2.427253
v 0.995137 5.726345 -2.427258
v 0.995137 5.726345 -2.427258
v 1.048396 5.448509 -2.427258
v 1.048396 5.448507 2.427253
v 0.995931 5.396044 2.427253
v 0.995931 5.396046 -2.427258
v 0.942670 5.449306 -2.427258
v 0.942670 5.449306 2.427253
v 0.995135 5.501770 2.427253
v 0.995135 5.501770 2.427253
v 0.995135 5.501770 -2.427258
v 0.995135 5.501770 -2.427258
v 0.990771 4.829755 -0.047026
v 0.990771 5.641268 -0.047026
v 1.033994 5.641268 -0.003805
v 1.033994 4.829755 -0.003805
v 1.000300 4.829755 0.029888
v 1.000300 5.641264 0.029888
v 0.957080 5.641264 -0.013333
v 0.957080 5.641264 -0.013333
v 0.957080 4.829755 -0.013332
v 0.957080 4.829755 -0.013332
v 1.033992 5.641268 -1.611340
v 1.033992 4.829755 -1.611340
v 0.990771 4.829755 -1.654556
v 0.990771 5.641268 -1.654556
v 0.957078 5.641268 -1.620865
v 0.957078 4.829758 -1.620865
v 1.000299 4.829758 -1.577646
v 1.000299 4.829758 -1.577646
v 1.000299 5.641268 -1.577646
v 1.000299 5.641268 -1.577646
v 1.000878 5.641266 1.635988
v 1.000878 4.829755 1.635988
v 1.034066 4.829755 1.602800
v 1.034066 5.641266 1.602800
v 0.990190 5.641266 1.558920
v 0.990190 4.829758 1.558920
v 0.957002 4.829758 1.592110
v 0.957002 4.829758 1.592110
v 0.957002 5.641266 1.592110
v 0.957002 5.641266 1.592110
v -0.945365 2.629363 0.012760
v -0.945365 2.629363 0.012760
v 0.945371 4.520099 0.012760
v 0.945371 4.520099 0.012760
v 0.945371 4.520099 -0.035271
v 0.945371 4.520099 -0.035271
v -0.945365 2.629363 -0.035271
v -0.945365 2.629363 -0.035271
v -0.945365 2.537303 -0.035271
v -0.945365 2.537303 -0.035271
v 0.945371 4.428040 -0.035271
v 0.945371 4.428040 -0.035271
v 0.945371 4.428039 0.012760
v 0.945371 4.428039 0.012760
v -0.945365 2.537302 0.012760
v -0.945365 2.537302 0.012760
v -0.945365 4.536353 -0.043800
v -0.945365 4.536353 -0.043800
v 0.945371 2.645617 -0.043800
v 0.945371 2.645617 -0.043800
v 0.945371 2.553557 -0.043800
v 0.945371 2.553557 -0.043800
v -0.945365 4.444293 -0.043800
v -0.945365 4.444293 -0.043800
v 0.945371 2.553558 0.021294
v 0.945371 2.553558 0.021294
v -0.945365 4.444293 0.021294
v -0.945365 4.444293 0.021294
v -0.945365 4.536354 0.021294
v -0.945365 4.536354 0.021294
v 0.945371 2.645618 0.021294
v 0.945371 2.645618 0.021294
v -0.945365 2.540962 0.012760
v -0.945365 2.540962 0.012760
v 0.945949 2.540961 0.012760
v 0.945949 2.540961 0.012760
v 0.945949 2.540961 -0.035271
v 0.945949 2.540961 -0.035271
v -0.945365 2.540962 -0.035271
v -0.945365 2.540962 -0.035271
v -0.945365 2.475866 -0.035271
v -0.945365 2.475866 -0.035271
v 0.945914 2.475866 -0.035271
v 0.945914 2.475866 -0.035271
v 0.945914 2.475865 0.012760
v 0.945914 2.475865 0.012760
v -0.945365 2.475864 0.012760
v -0.945365 2.475864 0.012760
v -0.945365 4.591267 0.012760
v -0.945365 4.591267 0.012760
v 0.945949 4.591266 0.012760
v 0.945949 4.591266 0.012760
v 0.945949 4.591266 -0.035271
v 0.945949 4.591266 -0.035271
v -0.945365 4.591267 -0.035271
v -0.945365 4.591267 -0.035271
v -0.945365 4.526171 -0.035271
v -0.945365 4.526171 -0.035271
v 0.945914 4.526171 -0.035271
v 0.945914 4.526171 -0.035271
v 0.945914 4.526170 0.012760
v 0.945914 4.526170 0.012760
v -0.945365 4.526169 0.012760
v -0.945365 4.526169 0.012760
v -0.945365 0.581995 0.012760
v -0.945365 0.581995 0.012760
v 0.945371 2.472731 0.012760
v 0.945371 2.472731 0.012760
v 0.945371 2.472731 -0.035271
v 0.945371 2.472731 -0.035271
v -0.945365 0.581995 -0.035271
v -0.945365 0.581995 -0.035271
v -0.945365 0.489935 -0.035271
v -0.945365 0.489935 -0.035271
v 0.945371 2.380672 -0.035271
v 0.945371 2.380672 -0.035271
v 0.945371 2.380671 0.012760
v 0.945371 2.380671 0.012760
v -0.945365 0.489934 0.012760
v -0.945365 0.489934 0.012760
v -0.945365 2.488986 -0.043800
v -0.945365 2.488986 -0.043800
v 0.945371 0.598250 -0.043800
v 0.945371 0.598250 -0.043800
v 0.945371 0.506190 -0.043800
v 0.945371 0.506190 -0.043800
v -0.945365 2.396926 -0.043800
v -0.945365 2.396926 -0.043800
v 0.945371 0.506191 0.021294
v 0.945371 0.506191 0.021294
v -0.945365 2.396926 0.021294
v -0.945365 2.396926 0.021294
v -0.945365 2.488987 0.021294
v -0.945365 2.488987 0.021294
v 0.945371 0.598251 0.021294
v 0.945371 0.598251 0.021294
v -0.945365 0.493594 0.012760
v -0.945365 0.493594 0.012760
v 0.945949 0.493593 0.012760
v 0.945949 0.493593 0.012760
v 0.945949 0.493593 -0.035271
v 0.945949 0.493593 -0.035271
v -0.945365 0.493594 -0.035271
v -0.945365 0.493594 -0.035271
v -0.945365 0.428498 -0.035271
v -0.945365 0.428498 -0.035271
v 0.945914 0.428498 -0.035271
v 0.945914 0.428498 -0.035271
v 0.945914 0.428497 0.012760
v 0.945914 0.428497 0.012760
v -0.945365 0.428496 0.012760
v -0.945365 0.428496 0.012760
vn -1.0000 -0.0000 -0.0000
vn 1.0000 -0.0000 -0.0000
vn -0.0000 -0.0000 1.0000
vn -0.0000 -0.0000 -1.0000
vn -0.0000 -1.0000 -0.0000
vn -0.0000 1.0000 -0.0000
vn 1.0000 -0.0000 0.0003
vn -0.0000 0.0002 -1.0000
vn -0.6753 -0.0000 0.7375
vn 0.6753 -0.0000 -0.7375
vn 0.6687 -0.0000 0.7435
vn -0.6687 -0.0000 -0.7435
vn -0.6754 -0.0000 0.7374
vn 0.6754 -0.0000 -0.7374
vn 0.6688 -0.0000 0.7435
vn -0.6688 -0.0000 -0.7435
vn 0.6687 -0.0000 0.7436
vn -1.0000 -0.0001 -0.0000
vn -0.0000 -0.0002 1.0000
vn -1.0000 -0.0003 -0.0000
vn -0.7071 0.7071 -0.0000
vn 0.7071 -0.7071 -0.0000
vn -0.7071 -0.7071 -0.0000
vn 0.7071 0.7071 -0.0000
vt 0.207732 0.000000
vt 0.207731 0.912737
vt 0.174144 0.912737
vt 0.174145 0.000000
vt 0.274905 0.000000
vt 0.274904 0.912737
vt 0.241318 0.912737
vt 0.241318 0.000000
vt 0.140558 0.912737
vt 0.140558 0.000000
vt 0.999462 0.659426
vt 0.603286 0.659426
vt 0.603286 0.488883
vt 0.999462 0.488883
vt 1.000000 0.663362
vt 1.000000 1.000000
vt 0.603892 1.000000
vt 0.603892 0.663362
vt 0.207731 1.000000
vt 0.174145 1.000000
vt 0.274904 1.000000
vt 0.241318 1.000000
vt 0.140558 1.000000
vt 0.067918 0.000000
vt 0.067918 1.000000
vt 0.034549 1.000000
vt 0.034549 0.000000
vt 0.134657 0.000000
vt 0.134657 1.000000
vt 0.101288 1.000000
vt 0.101288 0.000000
vt 0.001179 1.000000
vt 0.001179 0.000000
vt 0.067918 0.119260
vt 0.067918 0.353878
vt 0.034499 0.353878
vt 0.034549 0.119260
vt 0.134657 0.119260
vt 0.134657 0.353877
vt 0.101337 0.353877
vt 0.101288 0.119260
vt 0.001179 0.353877
vt 0.001179 0.119260
vt 0.067918 0.646122
vt 0.067918 0.880740
vt 0.034539 0.880740
vt 0.034545 0.646122
vt 0.134657 0.646123
vt 0.134657 0.880740
vt 0.101297 0.880740
vt 0.101291 0.646123
vt 0.001179 0.880740
vt 0.001180 0.646123
vt 0.034543 0.880740
vt 0.034547 0.646122
vt 0.101293 0.880740
vt 0.101290 0.646123
vt 0.207731 0.488930
vt 0.174145 0.488930
vt 0.274905 0.510802
vt 0.241318 0.510802
vt 0.174145 0.511268
vt 0.207732 0.511268
vt 0.241318 0.489000
vt 0.274905 0.489000
vt 0.174145 0.912737
vt 0.207732 0.912737
vt 0.241318 0.912737
vt 0.274905 0.912737
vt 0.140557 0.912737
vt 0.207731 0.839696
vt 0.174144 0.839696
vt 0.174145 0.084927
vt 0.207732 0.084927
vt 0.274905 0.821321
vt 0.241318 0.821321
vt 0.241318 0.066552
vt 0.274905 0.066552
vt 0.140558 0.091416
vt 0.174145 0.073041
vt 0.174144 0.827810
vt 0.140558 0.846185
vt 0.140558 0.821321
vt 0.140558 0.066552
vt 0.207731 0.827810
vt 0.207732 0.073041
vt 0.274905 0.846185
vt 0.241318 0.846185
vt 0.241318 0.091416
vt 0.274905 0.091416
vt 0.207731 0.720138
vt 0.174144 0.720138
vt 0.174145 0.186273
vt 0.207732 0.186273
vt 0.274905 0.720128
vt 0.241318 0.720128
vt 0.241318 0.186273
vt 0.274905 0.186273
vt 0.140558 0.186273
vt 0.140558 0.720128
s 0
usemtl Bridges_turn
f 3/1/1 5/2/1 7/3/1
f 3/1/1 7/3/1 1/4/1
f 12/5/2 14/6/2 16/7/2
f 12/5/2 16/7/2 10/8/2
f 9/8/3 15/7/3 6/2/3
f 9/8/3 6/2/3 4/1/3
f 13/9/4 11/10/4 2/4/4
f 13/9/4 2/4/4 8/3/4
f 18/11/5 19/12/5 20/13/5
f 18/11/5 20/13/5 17/14/5
f 21/15/6 22/16/6 24/17/6
f 21/15/6 24/17/6 26/18/6
f 23/15/6 27/16/6 29/17/6
f 23/15/6 29/17/6 25/18/6
f 28/15/6 31/16/6 32/17/6
f 28/15/6 32/17/6 30/18/6
f 35/1/1 37/19/1 39/20/1
f 35/1/1 39/20/1 33/4/1
f 44/5/2 46/21/2 48/22/2
f 44/5/2 48/22/2 42/8/2
f 41/8/5 47/22/5 38/19/5
f 41/8/5 38/19/5 36/1/5
f 45/23/6 43/10/6 34/4/6
f 45/23/6 34/4/6 40/20/6
s 1
f 50/24/1 51/25/1 52/26/6
f 50/24/1 52/26/6 49/27/6
f 55/28/2 57/29/2 58/30/5
f 55/28/2 58/30/5 53/31/5
f 53/31/5 58/30/5 51/25/1
f 53/31/5 51/25/1 50/24/1
f 56/32/2 54/33/2 49/27/6
f 56/32/2 49/27/6 52/26/6
f 60/24/1 61/25/1 62/26/6
f 60/24/1 62/26/6 59/27/6
f 65/28/2 67/29/7 68/30/5
f 65/28/2 68/30/5 63/31/5
f 63/31/5 68/30/5 61/25/1
f 63/31/5 61/25/1 60/24/1
f 66/32/2 64/33/2 59/27/6
f 66/32/2 59/27/6 62/26/6
f 70/34/3 71/35/3 72/36/1
f 70/34/3 72/36/1 69/37/1
f 75/38/4 77/39/4 78/40/2
f 75/38/4 78/40/2 73/41/2
f 73/41/2 78/40/2 71/35/3
f 73/41/2 71/35/3 70/34/3
f 76/42/4 74/43/8 69/37/1
f 76/42/4 69/37/1 72/36/1
f 80/44/1 81/45/1 82/46/3
f 80/44/1 82/46/3 79/47/3
f 85/48/2 87/49/2 88/50/4
f 85/48/2 88/50/4 83/51/4
f 83/51/4 88/50/4 81/45/1
f 83/51/4 81/45/1 80/44/1
f 86/52/2 84/53/2 79/47/3
f 86/52/2 79/47/3 82/46/3
f 90/44/3 91/45/3 92/54/2
f 90/44/3 92/54/2 89/55/2
f 95/48/4 97/49/8 98/56/1
f 95/48/4 98/56/1 93/57/1
f 93/57/1 98/56/1 91/45/3
f 93/57/1 91/45/3 90/44/3
f 96/52/4 94/53/4 89/55/2
f 96/52/4 89/55/2 92/54/2
s 0
f 102/1/3 104/19/3 105/20/3
f 102/1/3 105/20/3 99/4/3
f 109/5/4 111/21/4 114/22/4
f 109/5/4 114/22/4 108/8/4
f 107/8/5 113/22/5 103/19/5
f 107/8/5 103/19/5 101/1/5
f 112/23/6 110/10/6 100/4/6
f 112/23/6 100/4/6 106/20/6
f 118/1/3 120/19/3 121/20/3
f 118/1/3 121/20/3 115/4/3
f 125/5/4 127/21/4 130/22/4
f 125/5/4 130/22/4 124/8/4
f 123/8/5 129/22/5 119/19/5
f 123/8/5 119/19/5 117/1/5
f 128/23/6 126/10/6 116/4/6
f 128/23/6 116/4/6 122/20/6
f 134/1/3 136/19/3 137/20/3
f 134/1/3 137/20/3 131/4/3
f 141/5/4 143/21/4 146/22/4
f 141/5/4 146/22/4 140/8/4
f 139/8/5 145/22/5 135/19/5
f 139/8/5 135/19/5 133/1/5
f 144/23/6 142/10/6 132/4/6
f 144/23/6 132/4/6 138/20/6
f 148/1/9 150/19/9 152/20/9
f 148/1/9 152/20/9 147/4/9
f 155/5/10 156/21/10 158/22/10
f 155/5/10 158/22/10 154/8/10
f 153/8/5 157/22/5 151/19/5
f 153/8/5 151/19/5 149/1/5
s 1
f 161/1/11 163/19/11 164/20/11
f 161/1/11 164/20/11 159/4/11
s 0
f 167/5/12 168/21/12 169/22/12
f 167/5/12 169/22/12 165/8/12
f 166/8/5 170/22/5 162/19/5
f 166/8/5 162/19/5 160/1/5
f 172/1/9 174/19/9 176/20/9
f 172/1/9 176/20/9 171/4/9
f 179/5/10 180/21/10 182/22/10
f 179/5/10 182/22/10 178/8/10
f 177/8/5 181/22/5 175/19/5
f 177/8/5 175/19/5 173/1/5
s 1
f 185/1/11 187/19/11 188/20/11
f 185/1/11 188/20/11 183/4/11
s 0
f 191/5/12 192/21/12 193/22/12
f 191/5/12 193/22/12 189/8/12
f 190/8/5 194/22/5 186/19/5
f 190/8/5 186/19/5 184/1/5
f 196/1/13 198/58/13 200/59/13
f 196/1/13 200/59/13 195/4/13
f 203/5/14 204/60/14 206/61/14
f 203/5/14 206/61/14 202/8/14
f 201/8/5 205/61/5 199/58/5
f 201/8/5 199/58/5 197/1/5
f 210/19/15 211/20/15 212/62/15
f 210/19/15 212/62/15 208/63/15
f 214/21/16 215/22/16 217/64/16
f 214/21/16 217/64/16 213/65/16
f 216/22/5 209/19/5 207/63/5
f 216/22/5 207/63/5 218/64/5
f 221/1/11 223/63/11 224/62/11
f 221/1/17 224/62/17 219/4/17
f 227/5/12 228/65/12 229/64/12
f 227/5/12 229/64/12 225/8/12
f 220/1/5 226/8/5 230/64/5
f 220/1/5 230/64/5 222/63/5
f 233/19/9 235/20/9 236/59/9
f 233/19/9 236/59/9 231/58/9
f 238/21/10 240/22/10 242/61/10
f 238/21/10 242/61/10 237/60/10
f 241/61/5 239/22/5 234/19/5
f 241/61/5 234/19/5 232/58/5
f 246/66/2 248/67/2 250/1/2
f 246/66/2 250/1/2 244/4/2
f 253/68/1 255/69/1 257/5/1
f 253/68/1 257/5/1 251/8/1
f 247/67/3 254/68/3 252/8/3
f 247/67/3 252/8/3 249/1/3
f 243/4/4 258/10/4 256/70/4
f 243/4/4 256/70/4 245/66/4
f 262/20/2 264/19/2 266/1/2
f 262/20/2 266/1/2 260/4/2
f 269/22/1 271/21/1 273/5/1
f 269/22/1 273/5/1 267/8/1
f 263/19/5 270/22/5 268/8/5
f 263/19/5 268/8/5 265/1/5
f 259/4/6 274/10/6 272/23/6
f 259/4/6 272/23/6 261/20/6
s 1
f 276/26/2 277/25/5 278/24/5
f 276/26/2 278/24/5 275/27/2
f 280/30/1 282/29/6 284/28/6
f 280/30/1 284/28/6 279/31/1
f 277/25/5 280/30/1 279/31/1
f 277/25/5 279/31/1 278/24/5
f 275/27/2 283/33/6 281/32/6
f 275/27/2 281/32/6 276/26/2
f 286/26/2 287/25/5 288/24/5
f 286/26/2 288/24/5 285/27/2
f 290/30/1 292/29/6 294/28/6
f 290/30/1 294/28/6 289/31/1
f 287/25/5 290/30/1 289/31/1
f 287/25/5 289/31/1 288/24/5
f 285/27/2 293/33/6 291/32/6
f 285/27/2 291/32/6 286/26/2
f 296/36/4 297/35/2 298/34/2
f 296/36/4 298/34/2 295/37/4
f 300/40/3 302/39/1 304/38/1
f 300/40/3 304/38/1 299/41/3
f 297/35/2 300/40/3 299/41/3
f 297/35/2 299/41/3 298/34/2
f 295/37/4 303/43/1 301/42/18
f 295/37/4 301/42/18 296/36/4
f 306/46/2 307/45/4 308/44/4
f 306/46/2 308/44/4 305/47/2
f 310/50/1 312/49/3 314/48/3
f 310/50/1 314/48/3 309/51/1
f 307/45/4 310/50/1 309/51/1
f 307/45/4 309/51/1 308/44/4
f 305/47/2 313/53/3 311/52/19
f 305/47/2 311/52/19 306/46/2
f 316/54/3 317/45/2 318/44/2
f 316/54/3 318/44/2 315/55/3
f 320/56/4 322/49/1 324/48/1
f 320/56/4 324/48/1 319/57/4
f 317/45/2 320/56/4 319/57/4
f 317/45/2 319/57/4 318/44/2
f 315/55/3 323/53/1 321/52/20
f 315/55/3 321/52/20 316/54/3
s 0
f 327/71/21 329/72/21 331/73/21
f 327/71/21 331/73/21 325/74/21
f 336/75/22 338/76/22 340/77/22
f 336/75/22 340/77/22 334/78/22
f 337/76/3 328/71/3 326/74/3
f 337/76/3 326/74/3 339/77/3
f 343/79/4 346/80/4 348/81/4
f 343/79/4 348/81/4 341/82/4
f 335/83/4 333/84/4 332/73/4
f 335/83/4 332/73/4 330/72/4
f 351/85/23 347/81/23 345/80/23
f 351/85/23 345/80/23 349/86/23
f 342/87/24 354/88/24 356/89/24
f 342/87/24 356/89/24 344/90/24
f 355/89/3 353/88/3 352/85/3
f 355/89/3 352/85/3 350/86/3
f 360/91/6 362/92/6 364/93/6
f 360/91/6 364/93/6 358/94/6
f 367/95/5 369/96/5 371/97/5
f 367/95/5 371/97/5 365/98/5
f 370/96/3 359/91/3 357/94/3
f 370/96/3 357/94/3 372/97/3
f 366/99/4 363/93/4 361/92/4
f 366/99/4 361/92/4 368/100/4
f 376/91/6 378/92/6 380/93/6
f 376/91/6 380/93/6 374/94/6
f 383/95/5 385/96/5 387/97/5
f 383/95/5 387/97/5 381/98/5
f 386/96/3 375/91/3 373/94/3
f 386/96/3 373/94/3 388/97/3
f 382/99/4 379/93/4 377/92/4
f 382/99/4 377/92/4 384/100/4
f 391/71/21 393/72/21 395/73/21
f 391/71/21 395/73/21 389/74/21
f 400/75/22 402/76/22 404/77/22
f 400/75/22 404/77/22 398/78/22
f 401/76/3 392/71/3 390/74/3
f 401/76/3 390/74/3 403/77/3
f 407/79/4 410/80/4 412/81/4
f 407/79/4 412/81/4 405/82/4
f 399/83/4 397/84/4 396/73/4
f 399/83/4 396/73/4 394/72/4
f 415/85/23 411/81/23 409/80/23
f 415/85/23 409/80/23 413/86/23
f 406/87/24 418/88/24 420/89/24
f 406/87/24 420/89/24 408/90/24
f 419/89/3 417/88/3 416/85/3
f 419/89/3 416/85/3 414/86/3
f 424/91/6 426/92/6 428/93/6
f 424/91/6 428/93/6 422/94/6
f 431/95/5 433/96/5 435/97/5
f 431/95/5 435/97/5 429/98/5
f 434/96/3 423/91/3 421/94/3
f 434/96/3 421/94/3 436/97/3
f 430/99/4 427/93/4 425/92/4
f 430/99/4 425/92/4 432/100/4
