# Blender 4.0.2
# www.blender.org
mtllib Bridge_With_Railing.mtl
o Bridges_2
v 0.949015 0.153471 2.373295
v -0.949224 0.153471 2.373295
v -0.949224 0.153471 -2.481216
v 0.949018 0.153471 -2.481216
v -0.949225 0.193857 -2.481216
v -0.949225 0.193857 -0.863079
v -0.949225 0.193857 -0.863079
v 0.949018 0.193857 -0.863079
v 0.949018 0.193857 -0.863079
v 0.949017 0.193857 -2.481216
v -0.949225 0.193857 0.755030
v -0.949225 0.193857 0.755030
v 0.949018 0.193857 0.755030
v 0.949018 0.193857 0.755030
v -0.949225 0.193857 2.373295
v 0.949020 0.193857 2.373295
v -1.043140 0.220025 -2.481216
v -1.043140 0.220025 -2.481216
v -1.043140 0.059071 -2.481216
v -1.043140 0.059071 -2.481216
v -1.043140 0.059072 2.373295
v -1.043140 0.059072 2.373295
v -1.043140 0.220025 2.373295
v -1.043140 0.220025 2.373295
v -0.946207 0.059071 -2.481216
v -0.946207 0.059071 -2.481216
v -0.946207 0.220025 -2.481216
v -0.946207 0.220025 -2.481216
v -0.946207 0.220025 2.373295
v -0.946207 0.220025 2.373295
v -0.946207 0.059072 2.373295
v -0.946207 0.059072 2.373295
v -0.995071 1.112373 -2.481216
v -1.047535 1.059907 -2.481216
v -1.047535 1.059907 2.373295
v -0.995071 1.112373 2.373295
v -0.994274 1.006646 -2.481216
v -0.941811 1.059111 -2.481216
v -0.941811 1.059111 -2.481216
v -0.941811 1.059112 2.373295
v -0.941811 1.059112 2.373295
v -0.994274 1.006646 2.373295
v -0.995073 0.887799 -2.481216
v -1.047539 0.835334 -2.481216
v -1.047539 0.835334 2.373295
v -0.995073 0.887799 2.373295
v -0.994276 0.782073 -2.481216
v -0.941813 0.834537 -2.481216
v -0.941813 0.834537 -2.481216
v -0.941813 0.834538 2.373295
v -0.941813 0.834538 2.373295
v -0.994276 0.782073 2.373295
v -1.033129 0.215784 -0.067291
v -0.989907 0.215784 -0.024071
v -0.989907 1.027296 -0.024071
v -1.033129 1.027296 -0.067291
v -0.956215 0.215784 -0.057762
v -0.999437 0.215784 -0.100985
v -0.999437 0.215784 -0.100985
v -0.999437 1.027292 -0.100985
v -0.999437 1.027292 -0.100985
v -0.956215 1.027292 -0.057762
v -0.989910 1.027296 -1.631605
v -1.033131 1.027296 -1.674824
v -1.033131 0.215784 -1.674824
v -0.989910 0.215784 -1.631605
v -0.999437 1.027296 -1.708515
v -0.956219 1.027296 -1.665297
v -0.956219 1.027296 -1.665297
v -0.956219 0.215787 -1.665297
v -0.956219 0.215787 -1.665297
v -0.999437 0.215787 -1.708515
v -0.956144 1.027296 1.548840
v -0.989332 1.027296 1.582029
v -0.989332 0.215784 1.582029
v -0.956144 0.215784 1.548840
v -1.033211 1.027296 1.538151
v -1.000021 1.027296 1.504961
v -1.000021 1.027296 1.504961
v -1.000021 0.215787 1.504961
v -1.000021 0.215787 1.504961
v -1.033211 0.215787 1.538151
v -0.949242 0.173970 -0.031357
v -0.949242 0.173970 -0.031357
v -0.949242 0.094880 -0.031357
v -0.949242 0.094880 -0.031357
v 0.949492 0.094880 -0.031355
v 0.949492 0.094880 -0.031355
v 0.949492 0.173970 -0.031355
v 0.949492 0.173970 -0.031355
v -0.949241 0.094880 -0.089825
v -0.949241 0.094880 -0.089825
v -0.949241 0.173970 -0.089825
v -0.949241 0.173970 -0.089825
v 0.949492 0.173970 -0.089825
v 0.949492 0.173970 -0.089825
v 0.949492 0.094880 -0.089825
v 0.949492 0.094880 -0.089825
v -0.949242 0.173970 -1.653212
v -0.949242 0.173970 -1.653212
v -0.949242 0.094880 -1.653212
v -0.949242 0.094880 -1.653212
v 0.949492 0.094880 -1.653210
v 0.949492 0.094880 -1.653210
v 0.949492 0.173970 -1.653210
v 0.949492 0.173970 -1.653210
v -0.949241 0.094880 -1.711679
v -0.949241 0.094880 -1.711679
v -0.949241 0.173970 -1.711679
v -0.949241 0.173970 -1.711679
v 0.949492 0.173970 -1.711679
v 0.949492 0.173970 -1.711679
v 0.949492 0.094880 -1.711679
v 0.949492 0.094880 -1.711679
v -0.949242 0.173970 1.578463
v -0.949242 0.173970 1.578463
v -0.949242 0.094880 1.578463
v -0.949242 0.094880 1.578463
v 0.949492 0.094880 1.578465
v 0.949492 0.094880 1.578465
v 0.949492 0.173970 1.578465
v 0.949492 0.173970 1.578465
v -0.949241 0.094880 1.519995
v -0.949241 0.094880 1.519995
v -0.949241 0.173970 1.519995
v -0.949241 0.173970 1.519995
v 0.949492 0.173970 1.519995
v 0.949492 0.173970 1.519995
v 0.949492 0.094880 1.519995
v 0.949492 0.094880 1.519995
v -0.911041 0.173970 -0.043343
v -0.911041 0.100431 -0.043343
v -0.911041 0.100431 -0.043343
v 0.878469 0.100432 1.595316
v 0.878469 0.100432 1.595316
v 0.878469 0.173970 1.595316
v -0.878224 0.100431 -0.079184
v -0.878224 0.100431 -0.079184
v -0.878224 0.173970 -0.079184
v 0.911289 0.173970 1.559475
v 0.911289 0.100432 1.559475
v 0.911289 0.100432 1.559475
v -0.885674 0.173970 1.587423
v -0.885674 0.119365 1.587423
v -0.885674 0.119365 1.587423
v 0.918421 0.119365 -0.035162
v 0.918421 0.119365 -0.035162
v 0.918421 0.173970 -0.035162
v -0.918171 0.119365 1.551292
v -0.918171 0.119365 1.551292
v -0.918171 0.173970 1.551292
v 0.885923 0.173970 -0.071297
v 0.885923 0.119365 -0.071297
v 0.885923 0.119365 -0.071297
v -0.911041 0.173970 -1.673567
v -0.911041 0.100431 -1.673567
v -0.911041 0.100431 -1.673567
v 0.878469 0.100431 -0.034908
v 0.878469 0.100431 -0.034908
v 0.878469 0.173970 -0.034908
v -0.878224 0.100431 -1.709408
v -0.878224 0.100431 -1.709408
v -0.878224 0.173970 -1.709408
v 0.911289 0.173970 -0.070749
v 0.911289 0.100431 -0.070749
v 0.911289 0.100431 -0.070749
v -0.885674 0.173970 -0.042801
v -0.885674 0.119365 -0.042801
v -0.885674 0.119365 -0.042801
v 0.918421 0.119365 -1.665386
v 0.918421 0.119365 -1.665386
v 0.918421 0.173970 -1.665386
v -0.918171 0.119365 -0.078932
v -0.918171 0.119365 -0.078932
v -0.918171 0.173970 -0.078932
v 0.885923 0.173970 -1.701521
v 0.885923 0.119365 -1.701521
v 0.885923 0.119365 -1.701521
v -0.911041 0.173970 1.571949
v -0.911041 0.100432 1.571949
v -0.911041 0.100432 1.571949
v -0.036097 0.100432 2.373295
v -0.036097 0.100432 2.373295
v -0.036097 0.173969 2.373295
v -0.878224 0.100432 1.536108
v -0.878224 0.100432 1.536108
v -0.878224 0.173970 1.536108
v 0.035862 0.173970 2.373295
v 0.035862 0.100432 2.373295
v 0.035862 0.100432 2.373295
v 0.036703 0.119365 2.373295
v 0.036703 0.119365 2.373295
v 0.918421 0.119365 1.580130
v 0.918421 0.119365 1.580130
v 0.918421 0.173970 1.580130
v 0.036703 0.173970 2.373295
v -0.035969 0.173970 2.373295
v 0.885923 0.173970 1.543995
v 0.885923 0.119365 1.543995
v 0.885923 0.119365 1.543995
v -0.035969 0.119365 2.373295
v -0.035969 0.119365 2.373295
v -0.885674 0.173970 -1.651712
v -0.885674 0.119365 -1.651712
v -0.885674 0.119365 -1.651712
v 0.036703 0.119365 -2.481216
v 0.036703 0.119365 -2.481216
v 0.036703 0.173970 -2.481216
v -0.918171 0.119365 -1.687843
v -0.918171 0.119365 -1.687843
v -0.918171 0.173970 -1.687843
v -0.035969 0.173970 -2.481216
v -0.035969 0.119365 -2.481216
v -0.035969 0.119365 -2.481216
v -0.036096 0.100431 -2.481216
v -0.036096 0.100431 -2.481216
v 0.878469 0.100431 -1.643820
v 0.878469 0.100431 -1.643820
v 0.878469 0.173970 -1.643820
v -0.036096 0.173969 -2.481216
v 0.035863 0.173970 -2.481216
v 0.911289 0.173970 -1.679661
v 0.911289 0.100431 -1.679661
v 0.911289 0.100431 -1.679661
v 0.035863 0.100431 -2.481216
v 0.035863 0.100431 -2.481216
v 1.044862 0.220025 -2.481216
v 1.044862 0.220025 -2.481216
v 1.044862 0.220025 2.373295
v 1.044862 0.220025 2.373295
v 1.044862 0.059072 2.373295
v 1.044862 0.059072 2.373295
v 1.044862 0.059071 -2.481216
v 1.044862 0.059071 -2.481216
v 0.947927 0.059071 -2.481216
v 0.947927 0.059071 -2.481216
v 0.947927 0.059072 2.373295
v 0.947927 0.059072 2.373295
v 0.947928 0.220025 2.373295
v 0.947928 0.220025 2.373295
v 0.947928 0.220025 -2.481216
v 0.947928 0.220025 -2.481216
v 1.049258 1.059111 -2.481216
v 1.049258 1.059111 2.373295
v 0.996795 1.006647 2.373295
v 0.996795 1.006647 -2.481216
v 0.943533 1.059908 -2.481216
v 0.943533 1.059908 2.373295
v 0.995997 1.112373 2.373295
v 0.995997 1.112373 2.373295
v 0.995997 1.112372 -2.481216
v 0.995997 1.112372 -2.481216
v 1.049256 0.834537 -2.481216
v 1.049256 0.834538 2.373295
v 0.996791 0.782074 2.373295
v 0.996791 0.782074 -2.481216
v 0.943529 0.835336 -2.481216
v 0.943529 0.835336 2.373295
v 0.995995 0.887799 2.373295
v 0.995995 0.887799 2.373295
v 0.995995 0.887799 -2.481216
v 0.995995 0.887799 -2.481216
v 0.991631 0.215784 -0.100985
v 0.991631 1.027296 -0.100985
v 1.034853 1.027296 -0.057764
v 1.034853 0.215784 -0.057764
v 1.001160 0.215784 -0.024071
v 1.001160 1.027292 -0.024071
v 0.957939 1.027292 -0.067291
v 0.957939 1.027292 -0.067291
v 0.957939 0.215784 -0.067291
v 0.957939 0.215784 -0.067291
v 1.034851 1.027296 -1.665298
v 1.034851 0.215784 -1.665298
v 0.991631 0.215784 -1.708515
v 0.991631 1.027296 -1.708515
v 0.957938 1.027296 -1.674824
v 0.957938 0.215787 -1.674824
v 1.001158 0.215787 -1.631605
v 1.001158 0.215787 -1.631605
v 1.001158 1.027296 -1.631605
v 1.001158 1.027296 -1.631605
v 1.001739 1.027296 1.582029
v 1.001739 0.215784 1.582029
v 1.034926 0.215784 1.548841
v 1.034926 1.027296 1.548841
v 0.991050 1.027296 1.504961
v 0.991050 0.215787 1.504961
v 0.957861 0.215787 1.538151
v 0.957861 0.215787 1.538151
v 0.957861 1.027296 1.538151
v 0.957861 1.027296 1.538151
vn -0.0000 -1.0000 -0.0000
vn -0.0000 1.0000 -0.0000
vn -1.0000 -0.0000 -0.0000
vn 1.0000 -0.0000 -0.0000
vn 1.0000 -0.0000 -0.0003
vn -0.0000 -0.0000 1.0000
vn -0.0000 -0.0000 -1.0000
vn -0.0000 0.0003 -1.0000
vn -0.0000 0.0002 -1.0000
vn -0.0000 -0.0003 -1.0000
vn -0.6753 -0.0000 0.7375
vn 0.6753 -0.0000 -0.7375
vn 0.6687 -0.0000 0.7435
vn -0.6687 -0.0000 -0.7435
vn -0.6754 -0.0000 0.7374
vn 0.6754 -0.0000 -0.7374
vn 0.6688 -0.0000 0.7435
vn -0.6688 -0.0000 -0.7435
vn -0.0000 1.0000 0.0002
vn -1.0000 -0.0001 -0.0000
vn -0.0000 -0.0002 1.0000
vt 0.999462 0.659426
vt 0.603286 0.659426
vt 0.603286 0.488883
vt 0.999462 0.488883
vt 1.000000 0.663362
vt 1.000000 1.000000
vt 0.603892 1.000000
vt 0.603892 0.663362
vt 0.207732 0.000000
vt 0.207731 1.000000
vt 0.174145 1.000000
vt 0.174145 0.000000
vt 0.274905 0.000000
vt 0.274904 1.000000
vt 0.241318 1.000000
vt 0.241318 0.000000
vt 0.140558 1.000000
vt 0.140558 0.000000
vt 0.207732 0.119260
vt 0.207731 0.353878
vt 0.174095 0.353878
vt 0.174145 0.119260
vt 0.274905 0.119260
vt 0.274905 0.353877
vt 0.241368 0.353877
vt 0.241318 0.119260
vt 0.140558 0.353877
vt 0.140558 0.119260
vt 0.207731 0.646122
vt 0.207731 0.880740
vt 0.174135 0.880740
vt 0.174141 0.646122
vt 0.274905 0.646123
vt 0.274904 0.880740
vt 0.241328 0.880740
vt 0.241322 0.646123
vt 0.140558 0.880740
vt 0.140559 0.646123
vt 0.174139 0.880740
vt 0.174143 0.646122
vt 0.241324 0.880740
vt 0.241320 0.646123
vt 0.207731 0.488930
vt 0.174145 0.488930
vt 0.274905 0.510802
vt 0.241318 0.510802
vt 0.174145 0.511268
vt 0.207732 0.511268
vt 0.241318 0.489000
vt 0.274905 0.489000
s 0
usemtl Bridges_turn
f 2/1/1 3/2/1 4/3/1
f 2/1/1 4/3/1 1/4/1
f 5/5/2 6/6/2 8/7/2
f 5/5/2 8/7/2 10/8/2
f 7/5/2 11/6/2 13/7/2
f 7/5/2 13/7/2 9/8/2
f 12/5/2 15/6/2 16/7/2
f 12/5/2 16/7/2 14/8/2
f 19/9/3 21/10/3 23/11/3
f 19/9/3 23/11/3 17/12/3
f 28/13/4 30/14/4 32/15/4
f 28/13/4 32/15/4 26/16/4
f 25/16/1 31/15/1 22/10/1
f 25/16/1 22/10/1 20/9/1
f 29/17/2 27/18/2 18/12/2
f 29/17/2 18/12/2 24/11/2
s 1
f 34/9/3 35/10/3 36/11/2
f 34/9/3 36/11/2 33/12/2
f 39/13/4 41/14/4 42/15/1
f 39/13/4 42/15/1 37/16/1
f 37/16/1 42/15/1 35/10/3
f 37/16/1 35/10/3 34/9/3
f 40/17/4 38/18/4 33/12/2
f 40/17/4 33/12/2 36/11/2
f 44/9/3 45/10/3 46/11/2
f 44/9/3 46/11/2 43/12/2
f 49/13/4 51/14/5 52/15/1
f 49/13/4 52/15/1 47/16/1
f 47/16/1 52/15/1 45/10/3
f 47/16/1 45/10/3 44/9/3
f 50/17/4 48/18/4 43/12/2
f 50/17/4 43/12/2 46/11/2
f 54/19/6 55/20/6 56/21/3
f 54/19/6 56/21/3 53/22/3
f 59/23/7 61/24/8 62/25/4
f 59/23/7 62/25/4 57/26/4
f 57/26/4 62/25/4 55/20/6
f 57/26/4 55/20/6 54/19/6
f 60/27/7 58/28/7 53/22/3
f 60/27/7 53/22/3 56/21/3
f 64/29/3 65/30/3 66/31/6
f 64/29/3 66/31/6 63/32/6
f 69/33/4 71/34/4 72/35/7
f 69/33/4 72/35/7 67/36/7
f 67/36/7 72/35/7 65/30/3
f 67/36/7 65/30/3 64/29/3
f 70/37/4 68/38/4 63/32/6
f 70/37/4 63/32/6 66/31/6
f 74/29/6 75/30/6 76/39/4
f 74/29/6 76/39/4 73/40/4
f 79/33/7 81/34/9 82/41/3
f 79/33/7 82/41/3 77/42/3
f 77/42/3 82/41/3 75/30/6
f 77/42/3 75/30/6 74/29/6
f 80/37/7 78/38/10 73/40/4
f 80/37/7 73/40/4 76/39/4
s 0
f 86/9/6 88/10/6 89/11/6
f 86/9/6 89/11/6 83/12/6
f 93/13/7 95/14/7 98/15/7
f 93/13/7 98/15/7 92/16/7
f 91/16/1 97/15/1 87/10/1
f 91/16/1 87/10/1 85/9/1
f 96/17/2 94/18/2 84/12/2
f 96/17/2 84/12/2 90/11/2
f 102/9/6 104/10/6 105/11/6
f 102/9/6 105/11/6 99/12/6
f 109/13/7 111/14/7 114/15/7
f 109/13/7 114/15/7 108/16/7
f 107/16/1 113/15/1 103/10/1
f 107/16/1 103/10/1 101/9/1
f 112/17/2 110/18/2 100/12/2
f 112/17/2 100/12/2 106/11/2
f 118/9/6 120/10/6 121/11/6
f 118/9/6 121/11/6 115/12/6
f 125/13/7 127/14/7 130/15/7
f 125/13/7 130/15/7 124/16/7
f 123/16/1 129/15/1 119/10/1
f 123/16/1 119/10/1 117/9/1
f 128/17/2 126/18/2 116/12/2
f 128/17/2 116/12/2 122/11/2
f 132/9/11 134/10/11 136/11/11
f 132/9/11 136/11/11 131/12/11
f 139/13/12 140/14/12 142/15/12
f 139/13/12 142/15/12 138/16/12
f 137/16/1 141/15/1 135/10/1
f 137/16/1 135/10/1 133/9/1
s 1
f 145/9/13 147/10/13 148/11/13
s 0
f 145/9/13 148/11/13 143/12/13
f 151/13/14 152/14/14 153/15/14
f 151/13/14 153/15/14 149/16/14
f 150/16/1 154/15/1 146/10/1
f 150/16/1 146/10/1 144/9/1
f 156/9/11 158/10/11 160/11/11
f 156/9/11 160/11/11 155/12/11
f 163/13/12 164/14/12 166/15/12
f 163/13/12 166/15/12 162/16/12
f 161/16/1 165/15/1 159/10/1
f 161/16/1 159/10/1 157/9/1
s 1
f 169/9/13 171/10/13 172/11/13
s 0
f 169/9/13 172/11/13 167/12/13
f 175/13/14 176/14/14 177/15/14
f 175/13/14 177/15/14 173/16/14
f 174/16/1 178/15/1 170/10/1
f 174/16/1 170/10/1 168/9/1
s 1
f 180/9/15 182/43/15 184/44/15
s 0
f 180/9/15 184/44/15 179/12/15
f 187/13/16 188/45/16 190/46/16
f 187/13/16 190/46/16 186/16/16
f 185/16/1 189/46/1 183/43/1
f 185/16/1 183/43/1 181/9/1
f 194/10/17 195/11/17 196/47/17
f 194/10/17 196/47/17 192/48/17
f 198/14/18 199/15/18 201/49/18
f 198/14/18 201/49/18 197/50/18
f 200/15/1 193/10/1 191/48/1
f 200/15/1 191/48/1 202/49/1
f 205/9/13 207/48/13 208/47/13
f 205/9/13 208/47/13 203/12/13
s 1
f 211/13/14 212/50/14 213/49/14
s 0
f 211/13/14 213/49/14 209/16/14
f 204/9/1 210/16/1 214/49/1
f 204/9/1 214/49/1 206/48/1
f 217/10/11 219/11/11 220/44/11
f 217/10/11 220/44/11 215/43/11
f 222/14/12 224/15/12 226/46/12
f 222/14/12 226/46/12 221/45/12
f 225/46/1 223/15/1 218/10/1
f 225/46/1 218/10/1 216/43/1
f 230/11/4 232/10/4 234/9/4
f 230/11/4 234/9/4 228/12/4
f 237/15/3 239/14/3 241/13/3
f 237/15/3 241/13/3 235/16/3
f 231/10/1 238/15/1 236/16/1
f 231/10/1 236/16/1 233/9/1
f 227/12/2 242/18/2 240/17/2
f 227/12/2 240/17/2 229/11/2
s 1
f 244/11/4 245/10/1 246/9/1
f 244/11/4 246/9/1 243/12/4
f 248/15/3 250/14/2 252/13/19
f 248/15/3 252/13/19 247/16/3
f 245/10/1 248/15/3 247/16/3
f 245/10/1 247/16/3 246/9/1
f 243/12/4 251/18/2 249/17/2
f 243/12/4 249/17/2 244/11/4
f 254/11/4 255/10/1 256/9/1
f 254/11/4 256/9/1 253/12/4
f 258/15/3 260/14/2 262/13/2
f 258/15/3 262/13/2 257/16/3
f 255/10/1 258/15/3 257/16/3
f 255/10/1 257/16/3 256/9/1
f 253/12/4 261/18/2 259/17/2
f 253/12/4 259/17/2 254/11/4
f 264/21/7 265/20/4 266/19/4
f 264/21/7 266/19/4 263/22/7
f 268/25/6 270/24/3 272/23/3
f 268/25/6 272/23/3 267/26/6
f 265/20/4 268/25/6 267/26/6
f 265/20/4 267/26/6 266/19/4
f 263/22/7 271/28/3 269/27/20
f 263/22/7 269/27/20 264/21/7
f 274/31/4 275/30/7 276/29/7
f 274/31/4 276/29/7 273/32/4
f 278/35/3 280/34/6 282/33/21
f 278/35/3 282/33/21 277/36/3
f 275/30/7 278/35/3 277/36/3
f 275/30/7 277/36/3 276/29/7
f 273/32/4 281/38/6 279/37/21
f 273/32/4 279/37/21 274/31/4
f 284/39/6 285/30/4 286/29/4
f 284/39/6 286/29/4 283/40/6
f 288/41/7 290/34/3 292/33/3
f 288/41/7 292/33/3 287/42/7
f 285/30/4 288/41/7 287/42/7
f 285/30/4 287/42/7 286/29/4
f 283/40/6 291/38/3 289/37/3
f 283/40/6 289/37/3 284/39/6
