# Blender 4.0.2
# www.blender.org
mtllib Building_13.mtl
o Building_13
v 3.664550 -0.071116 1.595757
v 3.664550 -0.071116 1.595757
v -3.664547 -0.071117 1.595757
v -3.664547 -0.071117 1.595757
v -3.841723 4.201133 1.775270
v -3.841723 4.201133 1.775270
v -3.841723 4.201133 1.775270
v 3.841719 4.201134 1.775270
v 3.841719 4.201134 1.775270
v 3.841719 4.201134 1.775270
v -3.664547 -0.071116 -1.595757
v -3.664547 -0.071116 -1.595757
v 3.664550 -0.071116 -1.595757
v 3.664550 -0.071116 -1.595757
v 3.841722 4.201134 -1.775271
v 3.841722 4.201134 -1.775271
v 3.841722 4.201134 -1.775271
v -3.841721 4.201133 -1.775271
v -3.841721 4.201133 -1.775271
v -3.841721 4.201133 -1.775271
v -3.664550 4.201133 1.595757
v -3.664550 4.201133 1.595757
v -3.664550 4.201133 1.595757
v -3.664547 4.201134 -1.595756
v -3.664547 4.201134 -1.595756
v -3.664547 4.201134 -1.595756
v 3.664549 4.201134 1.595756
v 3.664549 4.201134 1.595756
v 3.664549 4.201134 1.595756
v 3.664551 4.201135 -1.595756
v 3.664551 4.201135 -1.595756
v 3.664551 4.201135 -1.595756
v -3.664546 4.047763 -1.595756
v -3.664546 4.047763 -1.595756
v -3.664546 4.047763 -1.595756
v -3.664549 4.047762 1.595757
v -3.664549 4.047762 1.595757
v -3.664549 4.047762 1.595757
v 3.664549 4.047764 1.595756
v 3.664549 4.047764 1.595756
v 3.664549 4.047764 1.595756
v 3.664551 3.839059 -1.595756
v 3.664551 3.839059 -1.595756
v 3.664551 3.839059 -1.595756
v -3.841721 3.839058 -1.775271
v -3.841721 3.839058 -1.775271
v -3.841721 3.839058 -1.775271
v 3.841719 3.839060 1.775270
v 3.841719 3.839060 1.775270
v 3.841719 3.839060 1.775270
v 3.841722 3.839059 -1.775271
v 3.841722 3.839059 -1.775271
v 3.841722 3.839059 -1.775271
v 3.664550 3.839060 1.595757
v 3.664550 3.839060 1.595757
v 3.664550 3.839060 1.595757
v -3.664547 3.839059 -1.595756
v -3.664547 3.839059 -1.595756
v -3.664547 3.839059 -1.595756
v -3.664548 3.839059 1.595757
v -3.664548 3.839059 1.595757
v -3.664548 3.839059 1.595757
v -3.841723 3.839058 1.775270
v -3.841723 3.839058 1.775270
v -3.841723 3.839058 1.775270
v 3.664550 4.047764 -1.595756
v 3.664550 4.047764 -1.595756
v 3.664550 4.047764 -1.595756
vn 1.0000 -0.0000 -0.0000
vn -0.0000 -0.0000 -1.0000
vn -0.0000 1.0000 -0.0000
vn -1.0000 -0.0000 -0.0000
vn -0.0000 -0.0000 1.0000
vn -0.0000 -1.0000 -0.0000
vt 0.690624 0.470239
vt 0.690624 0.002440
vt 0.997191 0.002440
vt 0.997191 0.470239
vt 0.688216 0.470634
vt 0.000859 0.470634
vt 0.000859 0.514026
vt 0.688216 0.514026
vt 0.445097 0.737516
vt 0.434379 0.725027
vt 0.434379 0.527955
vt 0.445097 0.515465
vt 0.688216 0.002022
vt 0.000859 0.002022
vt 0.001699 0.737516
vt 0.012418 0.725027
vt 0.001699 0.515465
vt 0.012418 0.527955
vt 0.997191 0.513556
vt 0.690624 0.513556
vt 0.223398 0.515465
vt 0.223398 0.527955
vt 0.012418 0.527955
vt 0.012049 0.515465
vt 0.434747 0.515465
vt 0.434379 0.527955
s 0
usemtl Building_13
f 56/1/1 2/2/1 14/3/1
f 56/1/1 14/3/1 44/4/1
f 52/5/2 47/6/2 19/7/2
f 52/5/2 19/7/2 15/8/2
f 16/9/3 32/10/3 29/11/3
f 29/11/3 9/12/3 16/9/3
f 13/13/2 12/14/2 59/6/2
f 13/13/2 59/6/2 43/5/2
f 57/1/4 11/2/4 3/3/4
f 57/1/4 3/3/4 60/4/4
f 20/15/3 25/16/3 32/10/3
f 32/10/3 16/9/3 20/15/3
f 25/16/3 20/15/3 7/17/3
f 7/17/3 22/18/3 25/16/3
f 22/18/3 7/17/3 9/12/3
f 9/12/3 29/11/3 22/18/3
f 45/1/4 63/4/4 5/19/4
f 45/1/4 5/19/4 18/20/4
f 62/6/5 4/14/5 1/13/5
f 62/6/5 1/13/5 55/5/5
f 35/21/1 26/22/1 23/23/1
f 35/21/1 23/23/1 38/24/1
f 65/6/5 49/5/5 8/8/5
f 65/6/5 8/8/5 6/7/5
f 41/11/3 68/10/3 34/16/3
f 41/11/3 34/16/3 37/18/3
f 51/9/6 48/12/6 54/11/6
f 54/11/6 42/10/6 51/9/6
f 46/15/6 51/9/6 42/10/6
f 42/10/6 58/16/6 46/15/6
f 58/16/6 61/18/6 64/17/6
f 64/17/6 46/15/6 58/16/6
f 61/18/6 54/11/6 48/12/6
f 48/12/6 64/17/6 61/18/6
f 24/25/5 33/26/5 67/23/5
f 24/25/5 67/23/5 31/24/5
f 21/25/2 28/24/2 40/23/2
f 21/25/2 40/23/2 36/26/2
f 39/25/4 27/26/4 30/22/4
f 39/25/4 30/22/4 66/21/4
f 50/1/1 53/4/1 17/19/1
f 50/1/1 17/19/1 10/20/1
