# Blender 4.0.2
# www.blender.org
mtllib Building_7.mtl
o Building_7
v 4.728752 2.994897 -3.598641
v 4.728748 -0.085327 -3.598633
v -4.834949 -0.085326 -3.598640
v -4.834949 -0.085326 -3.598640
v -4.834953 2.596907 -3.598656
v -4.834953 2.596907 -3.598656
v -4.834953 2.596907 -3.598656
v -4.834953 2.596906 -0.000000
v -0.053104 2.994897 -3.598641
v -0.053104 2.994897 -3.598641
v 4.728745 2.596905 -3.598656
v 4.728745 2.596905 -3.598656
v -4.834957 2.994897 -3.598641
v -4.834957 2.994897 -3.598641
v -4.834957 2.994897 -3.598641
v 4.728752 4.943655 -0.000000
v 4.728752 4.943655 -0.000000
v 4.728752 4.943655 -0.000000
v -4.834957 4.943655 -0.000000
v -4.834957 4.943655 -0.000000
v -4.834957 4.943655 -0.000000
v -4.834957 -0.085327 3.598656
v -4.834957 -0.085327 3.598656
v 4.728745 -0.085329 3.598656
v -4.834957 2.596906 3.598656
v -4.834957 2.596906 3.598656
v -4.834957 2.994897 3.598655
v -4.834957 2.994897 3.598655
v -4.834957 2.994897 3.598655
v -0.053104 2.994896 3.598655
v -0.053104 2.994896 3.598655
v 4.728745 2.994895 3.598655
v 4.728745 2.994895 3.598655
v 4.728741 2.596905 3.598656
v -0.053101 4.943655 -0.000000
v -0.053101 4.943655 -0.000000
v -0.053101 4.943655 -0.000000
v -0.053101 4.943655 -0.000000
v 4.593601 3.051290 -1.368996
v 4.593582 3.051295 1.368980
v 4.593586 -0.085325 1.368973
v 4.593594 -0.085327 -1.368996
v 4.728752 2.994897 -3.598641
v 4.728752 2.994897 -3.598641
v 4.728748 -0.085327 -3.598633
v 4.728745 -0.085329 3.598656
v 4.728745 2.994895 3.598655
v 4.728745 2.596905 -1.422501
v 4.728745 2.596905 -1.422501
v 4.728745 -0.085328 -1.422500
v 4.728741 2.596905 1.422455
v 4.728745 -0.085328 1.422455
v 4.728745 3.122477 -0.000000
v 4.728748 3.122477 -1.422501
v 4.728748 3.122477 1.422455
v 4.728760 3.051290 -1.422485
v 4.834938 3.051290 -1.422485
v 4.834938 3.051290 -1.422485
v 4.834923 -0.085329 -1.422500
v 4.834923 -0.085329 -1.422500
v 4.728745 -0.085329 -1.422500
v 4.834938 3.051291 -1.368996
v 4.834938 3.051291 -1.368996
v 4.593601 3.051291 -1.368996
v 4.593586 -0.085329 -1.369003
v 4.834923 -0.085329 -1.369003
v 4.834923 -0.085329 -1.369003
v 4.728748 -0.085325 1.422455
v 4.834927 -0.085325 1.422455
v 4.834927 -0.085325 1.422455
v 4.834953 3.051294 1.422470
v 4.834953 3.051294 1.422470
v 4.728775 3.051294 1.422470
v 4.834927 -0.085326 1.368973
v 4.834927 -0.085326 1.368973
v 4.593586 -0.085326 1.368973
v 4.593616 3.051294 1.368996
v 4.834953 3.051294 1.368996
v 4.834953 3.051294 1.368996
v 4.728764 3.122479 1.422470
v 4.728764 3.122479 1.422470
v 4.834942 3.122479 1.422470
v 4.834942 3.122479 1.422470
v 4.834942 3.122479 1.422470
v 4.834938 3.122474 -1.422485
v 4.834938 3.122474 -1.422485
v 4.834938 3.122474 -1.422485
v 4.728745 3.122474 -1.422485
v 4.728745 3.122474 -1.422485
v 4.834942 3.051296 1.422470
v 4.834942 3.051296 1.422470
v 4.834942 3.051296 1.422470
v 4.728764 3.051296 1.422470
v 4.728764 3.051296 1.422470
v 4.593601 3.051296 1.422470
v 4.593586 3.051292 -1.422485
v 4.728745 3.051292 -1.422485
v 4.728745 3.051292 -1.422485
v 4.834938 3.051292 -1.422485
v 4.834938 3.051292 -1.422485
v 4.834938 3.051292 -1.422485
vn 1.0000 -0.0000 -0.0000
vn -0.0000 -0.0000 -1.0000
vn -1.0000 -0.0000 -0.0000
vn -0.0000 0.8793 -0.4762
vn -0.0000 0.8793 0.4762
vn -0.0000 -0.0000 1.0000
vn -0.0000 -1.0000 -0.0000
vn -0.0000 1.0000 -0.0000
vt 0.696524 0.334253
vt 0.696525 0.404369
vt 0.995520 0.383143
vt 0.995520 0.334253
vt 0.995251 0.334211
vt 0.004329 0.334211
vt 0.995251 0.291746
vt 0.995519 0.004767
vt 0.501088 0.334253
vt 0.006657 0.004767
vt 0.006658 0.334254
vt 0.223567 0.662313
vt 0.003754 0.662314
vt 0.003754 0.338887
vt 0.223567 0.338887
vt 0.526005 0.664563
vt 0.005192 0.664563
vt 0.005192 0.686247
vt 0.526005 0.686246
vt 0.004329 0.291746
vt 0.004329 0.005555
vt 0.995251 0.005555
vt 0.501091 0.657926
vt 0.005192 0.707930
vt 0.526005 0.707930
vt 0.005192 0.729614
vt 0.526005 0.729614
vt 0.305647 0.334253
vt 0.305644 0.004767
vt 0.696532 0.404369
vt 0.696531 0.334253
vt 0.501089 0.406742
vt 0.005192 0.757215
vt 0.526005 0.757215
vt 0.226102 0.337304
vt 0.226102 0.661453
vt 0.498934 0.661453
vt 0.498934 0.337304
vt 0.019512 0.686247
vt 0.019512 0.707930
vt 0.696522 0.004767
s 0
usemtl Building_7
f 51/1/1 55/2/1 33/3/1
f 51/1/1 33/3/1 34/4/1
f 14/5/2 1/6/2 7/7/2
f 22/8/3 25/4/3 8/9/3
f 3/10/3 22/8/3 8/9/3
f 5/11/3 3/10/3 8/9/3
f 20/12/4 35/13/4 9/14/4
f 20/12/4 9/14/4 15/15/4
f 38/12/5 21/13/5 29/14/5
f 38/12/5 29/14/5 31/15/5
f 61/16/2 56/17/2 57/18/2
f 61/16/2 57/18/2 59/19/2
f 26/20/6 23/21/6 24/22/6
f 27/3/3 19/23/3 8/9/3
f 27/3/3 8/9/3 25/4/3
f 8/9/3 19/23/3 13/3/3
f 8/9/3 13/3/3 6/4/3
f 87/19/1 84/18/1 92/24/1
f 87/19/1 92/24/1 101/25/1
f 90/24/7 93/26/7 97/27/7
f 90/24/7 97/27/7 99/25/7
f 33/3/1 55/2/1 18/23/1
f 45/10/1 11/11/1 48/28/1
f 45/10/1 48/28/1 50/29/1
f 36/12/4 16/13/4 43/14/4
f 36/12/4 43/14/4 10/15/4
f 54/30/1 44/3/1 18/23/1
f 12/4/1 44/3/1 54/30/1
f 12/4/1 54/30/1 49/31/1
f 47/5/6 28/6/6 26/20/6
f 47/5/6 26/20/6 24/22/6
f 55/2/1 53/32/1 18/23/1
f 18/23/1 53/32/1 54/30/1
f 93/26/7 95/33/7 96/34/7
f 93/26/7 96/34/7 97/27/7
f 42/35/1 39/36/1 40/37/1
f 42/35/1 40/37/1 41/38/1
f 72/19/1 70/18/1 75/24/1
f 72/19/1 75/24/1 79/25/1
f 78/25/2 74/24/2 76/33/2
f 78/25/2 76/33/2 77/34/2
f 60/19/1 58/18/1 63/24/1
f 60/19/1 63/24/1 67/25/1
f 4/22/2 7/7/2 1/6/2
f 4/22/2 1/6/2 2/21/2
f 66/25/6 62/24/6 64/33/6
f 66/25/6 64/33/6 65/34/6
f 73/16/6 68/17/6 69/18/6
f 73/16/6 69/18/6 71/19/6
f 89/16/8 81/17/8 83/18/8
f 89/16/8 83/18/8 86/19/8
f 17/12/5 37/13/5 30/14/5
f 17/12/5 30/14/5 32/15/5
f 91/24/6 82/18/6 80/39/6
f 91/24/6 80/39/6 94/40/6
f 52/41/1 51/1/1 34/4/1
f 52/41/1 34/4/1 46/8/1
f 88/39/2 85/18/2 100/24/2
f 88/39/2 100/24/2 98/40/2
