# Blender 4.0.2
# www.blender.org
mtllib Cooling_Tower.mtl
o Cooling_tower
v 1.894091 0.289307 0.000000
v 1.706517 0.289307 -0.821815
v 1.180947 0.289307 -1.480860
v 0.421475 0.289307 -1.846602
v -0.421475 0.289307 -1.846602
v -0.421475 0.289307 -1.846602
v -1.180946 0.289307 -1.480860
v -1.706517 0.289307 -0.821815
v -1.894091 0.289307 0.000000
v -1.706517 0.289307 0.821815
v -1.180947 0.289307 1.480860
v -0.421475 0.289307 1.846603
v 0.421475 0.289307 1.846603
v 1.180947 0.289307 1.480860
v 1.706518 0.289307 0.821815
v 1.894091 1.712784 0.000000
v 1.894091 1.712784 0.000000
v 1.706517 1.712784 -0.821815
v 1.706517 1.712784 -0.821815
v 1.180947 1.712784 -1.480860
v 1.180947 1.712784 -1.480860
v 0.421475 1.712784 -1.846602
v 0.421475 1.712784 -1.846602
v -0.421475 1.712784 -1.846602
v -0.421475 1.712784 -1.846602
v -0.421475 1.712784 -1.846602
v -0.421475 1.712784 -1.846602
v -1.180946 1.712784 -1.480860
v -1.180946 1.712784 -1.480860
v -1.706517 1.712784 -0.821815
v -1.706517 1.712784 -0.821815
v -1.894091 1.712784 -0.000000
v -1.894091 1.712784 -0.000000
v -1.706517 1.712784 0.821815
v -1.706517 1.712784 0.821815
v -1.180947 1.712784 1.480860
v -1.180947 1.712784 1.480860
v -0.421475 1.712784 1.846602
v -0.421475 1.712784 1.846602
v 0.421475 1.712784 1.846602
v 0.421475 1.712784 1.846602
v 1.180947 1.712784 1.480860
v 1.180947 1.712784 1.480860
v 1.706518 1.712784 0.821815
v 1.706518 1.712784 0.821815
v 1.601633 4.575621 0.000000
v 1.601633 4.575621 0.000000
v 1.443021 4.575621 -0.694922
v 1.443021 4.575621 -0.694922
v 0.998601 4.575621 -1.252207
v 0.998601 4.575621 -1.252207
v 0.356397 4.575621 -1.561476
v 0.356397 4.575621 -1.561476
v -0.356397 4.575621 -1.561476
v -0.356397 4.575621 -1.561476
v -0.356397 4.575621 -1.561476
v -0.356397 4.575621 -1.561476
v -0.998601 4.575621 -1.252207
v -0.998601 4.575621 -1.252207
v -1.443021 4.575621 -0.694922
v -1.443021 4.575621 -0.694922
v -1.601632 4.575621 -0.000000
v -1.601632 4.575621 -0.000000
v -1.443021 4.575621 0.694922
v -1.443021 4.575621 0.694922
v -0.998602 4.575620 1.252207
v -0.998602 4.575620 1.252207
v -0.356397 4.575621 1.561476
v -0.356397 4.575621 1.561476
v 0.356397 4.575621 1.561476
v 0.356397 4.575621 1.561476
v 0.998602 4.575621 1.252206
v 0.998602 4.575621 1.252206
v 1.443021 4.575621 0.694922
v 1.443021 4.575621 0.694922
v 1.435695 6.718779 -0.000000
v 1.435695 6.718779 -0.000000
v 1.293516 6.718779 -0.622925
v 1.293516 6.718779 -0.622925
v 0.895141 6.718778 -1.122471
v 0.895141 6.718778 -1.122471
v 0.319472 6.718778 -1.399699
v 0.319472 6.718778 -1.399699
v -0.319472 6.718778 -1.399699
v -0.319472 6.718778 -1.399699
v -0.319472 6.718778 -1.399699
v -0.319472 6.718778 -1.399699
v -0.895141 6.718778 -1.122471
v -0.895141 6.718778 -1.122471
v -1.293516 6.718778 -0.622925
v -1.293516 6.718778 -0.622925
v -1.435694 6.718779 -0.000000
v -1.435694 6.718779 -0.000000
v -1.293516 6.718779 0.622924
v -1.293516 6.718779 0.622924
v -0.895141 6.718778 1.122471
v -0.895141 6.718778 1.122471
v -0.319472 6.718778 1.399699
v -0.319472 6.718778 1.399699
v 0.319472 6.718778 1.399699
v 0.319472 6.718778 1.399699
v 0.895141 6.718778 1.122471
v 0.895141 6.718778 1.122471
v 1.293517 6.718778 0.622924
v 1.293517 6.718778 0.622924
v 1.352537 8.861935 -0.000000
v 1.352537 8.861935 -0.000000
v 1.218594 8.861935 -0.586844
v 1.218594 8.861935 -0.586844
v 0.843293 8.861935 -1.057456
v 0.843293 8.861935 -1.057456
v 0.300968 8.861935 -1.318627
v 0.300968 8.861935 -1.318627
v -0.300968 8.861935 -1.318627
v -0.300968 8.861935 -1.318627
v -0.300968 8.861935 -1.318627
v -0.300968 8.861935 -1.318627
v -0.843293 8.861935 -1.057456
v -0.843293 8.861935 -1.057456
v -1.218594 8.861935 -0.586844
v -1.218594 8.861935 -0.586844
v -1.352537 8.861935 -0.000000
v -1.352537 8.861935 -0.000000
v -1.218594 8.861935 0.586843
v -1.218594 8.861935 0.586843
v -0.843293 8.861934 1.057456
v -0.843293 8.861934 1.057456
v -0.300968 8.861935 1.318626
v -0.300968 8.861935 1.318626
v 0.300968 8.861935 1.318626
v 0.300968 8.861935 1.318626
v 0.843293 8.861934 1.057456
v 0.843293 8.861934 1.057456
v 1.218595 8.861934 0.586843
v 1.218595 8.861934 0.586843
v 1.314387 11.005092 -0.000000
v 1.184222 11.005092 -0.570292
v 0.819507 11.005092 -1.027630
v 0.292479 11.005092 -1.281433
v -0.292479 11.005092 -1.281433
v -0.292479 11.005092 -1.281433
v -0.819507 11.005092 -1.027630
v -1.184222 11.005092 -0.570292
v -1.314387 11.005092 -0.000000
v -1.184222 11.005093 0.570291
v -0.819507 11.005091 1.027629
v -0.292479 11.005093 1.281433
v 0.292479 11.005093 1.281433
v 0.819507 11.005091 1.027629
v 1.184222 11.005092 0.570291
v 1.765000 3.147507 0.000000
v 1.765000 3.147507 0.000000
v 1.590210 3.147507 -0.765805
v 1.590210 3.147507 -0.765805
v 1.100459 3.147507 -1.379933
v 1.100459 3.147507 -1.379933
v 0.392749 3.147507 -1.720748
v 0.392749 3.147507 -1.720748
v -0.392749 3.147507 -1.720748
v -0.392749 3.147507 -1.720748
v -0.392749 3.147507 -1.720748
v -0.392749 3.147507 -1.720748
v -1.100459 3.147507 -1.379933
v -1.100459 3.147507 -1.379933
v -1.590210 3.147507 -0.765805
v -1.590210 3.147507 -0.765805
v -1.765000 3.147507 -0.000000
v -1.765000 3.147507 -0.000000
v -1.590210 3.147507 0.765805
v -1.590210 3.147507 0.765805
v -1.100460 3.147507 1.379932
v -1.100460 3.147507 1.379932
v -0.392750 3.147507 1.720748
v -0.392750 3.147507 1.720748
v 0.392750 3.147507 1.720748
v 0.392750 3.147507 1.720748
v 1.100460 3.147507 1.379932
v 1.100460 3.147507 1.379932
v 1.590211 3.147507 0.765804
v 1.590211 3.147507 0.765804
v 2.257763 0.289307 0.000000
v 2.257763 0.289307 0.000000
v 2.034174 0.289307 -0.979607
v 2.034174 0.289307 -0.979607
v 1.407692 0.289307 -1.765190
v 1.407692 0.289307 -1.765190
v 0.502399 0.289307 -2.201156
v 0.502399 0.289307 -2.201156
v -0.502400 0.289307 -2.201156
v -0.502400 0.289307 -2.201156
v -0.502400 0.289307 -2.201156
v -0.502400 0.289307 -2.201156
v -1.407692 0.289307 -1.765190
v -1.407692 0.289307 -1.765190
v -2.034174 0.289307 -0.979606
v -2.034174 0.289307 -0.979606
v -2.257763 0.289307 0.000000
v -2.257763 0.289307 0.000000
v -2.034174 0.289307 0.979606
v -2.034174 0.289307 0.979606
v -1.407693 0.289307 1.765190
v -1.407693 0.289307 1.765190
v -0.502400 0.289307 2.201156
v -0.502400 0.289307 2.201156
v 0.502400 0.289307 2.201156
v 0.502400 0.289307 2.201156
v 1.407693 0.289307 1.765190
v 1.407693 0.289307 1.765190
v 2.034174 0.289307 0.979606
v 2.034174 0.289307 0.979606
v 2.257763 -0.115454 0.000000
v 2.034174 -0.115454 -0.979606
v 1.407692 -0.115454 -1.765190
v 0.502399 -0.115454 -2.201156
v -0.502400 -0.115454 -2.201156
v -0.502400 -0.115454 -2.201156
v -1.407692 -0.115454 -1.765190
v -2.034174 -0.115454 -0.979606
v -2.257763 -0.115454 0.000000
v -2.034174 -0.115454 0.979606
v -1.407693 -0.115454 1.765190
v -0.502400 -0.115454 2.201156
v 0.502400 -0.115454 2.201156
v 1.407693 -0.115454 1.765190
v 2.034174 -0.115454 0.979606
v 1.372494 11.173451 -0.000000
v 1.236574 11.173451 -0.595503
v 0.855736 11.173451 -1.073059
v 0.305408 11.173451 -1.338083
v -0.305409 11.173451 -1.338083
v -0.305409 11.173451 -1.338083
v -0.855736 11.173451 -1.073059
v -1.236574 11.173451 -0.595503
v -1.372494 11.173451 -0.000000
v -1.236574 11.173452 0.595502
v -0.855736 11.173451 1.073058
v -0.305409 11.173452 1.338082
v 0.305409 11.173452 1.338082
v 0.855736 11.173451 1.073058
v 1.236575 11.173451 0.595502
v 1.894091 0.289307 0.000000
v 1.706517 0.289307 -0.821815
v 1.180947 0.289307 -1.480860
v 0.421475 0.289307 -1.846602
v -0.421475 0.289307 -1.846602
v -0.421475 0.289307 -1.846602
v -1.180946 0.289307 -1.480860
v -1.706517 0.289307 -0.821815
v -1.894091 0.289307 0.000000
v -1.706517 0.289307 0.821815
v -1.180947 0.289307 1.480860
v -0.421475 0.289307 1.846603
v 0.421475 0.289307 1.846603
v 1.180947 0.289307 1.480860
v 1.706518 0.289307 0.821815
v 1.314387 11.005092 -0.000000
v 1.184222 11.005092 -0.570292
v 0.819507 11.005092 -1.027630
v 0.292479 11.005092 -1.281433
v -0.292479 11.005092 -1.281433
v -0.292479 11.005092 -1.281433
v -0.819507 11.005092 -1.027630
v -1.184222 11.005092 -0.570292
v -1.314387 11.005092 -0.000000
v -1.184222 11.005093 0.570291
v -0.819507 11.005091 1.027629
v -0.292479 11.005093 1.281433
v 0.292479 11.005093 1.281433
v 0.819507 11.005091 1.027629
v 1.184222 11.005092 0.570291
vn -0.2223 0.0446 0.9740
vn -0.2225 -0.0000 0.9749
vn 0.2225 -0.0000 0.9749
vn 0.2223 0.0446 0.9740
vn 0.6235 -0.0000 0.7818
vn 0.6229 0.0446 0.7811
vn -0.6235 -0.0000 -0.7818
vn -0.9010 -0.0000 -0.4339
vn -0.2225 -0.0000 -0.9749
vn -0.6229 0.0446 -0.7811
vn -0.2223 0.0446 -0.9740
vn 0.2224 0.0283 0.9745
vn 0.6232 0.0283 0.7815
vn 0.6234 0.0178 0.7817
vn 0.2225 0.0178 0.9748
vn -0.9001 0.0446 -0.4335
vn -1.0000 -0.0000 -0.0000
vn -0.9990 0.0446 -0.0000
vn -0.9010 -0.0000 0.4339
vn -0.9001 0.0446 0.4335
vn -0.6235 -0.0000 0.7818
vn -0.6229 0.0446 0.7811
vn 0.6235 -0.0000 -0.7818
vn 0.2225 -0.0000 -0.9749
vn 0.2223 0.0446 -0.9740
vn 0.6229 0.0446 -0.7811
vn 0.9010 -0.0000 -0.4339
vn 0.9001 0.0446 -0.4335
vn -0.2214 0.1015 -0.9699
vn -0.6203 0.1015 -0.7778
vn -0.6206 0.0957 -0.7782
vn -0.2215 0.0957 -0.9705
vn -0.6206 0.0957 0.7782
vn -0.6203 0.1015 0.7778
vn -0.2214 0.1015 0.9699
vn -0.2215 0.0957 0.9705
vn 0.9948 0.1015 -0.0000
vn 0.8963 0.1015 -0.4316
vn 0.8968 0.0957 -0.4319
vn 0.9954 0.0957 -0.0000
vn 0.2214 0.1015 0.9699
vn 0.2215 0.0957 0.9705
vn -0.8968 0.0957 -0.4319
vn -0.8963 0.1015 -0.4316
vn -0.9948 0.1015 -0.0000
vn -0.9954 0.0957 -0.0000
vn 0.8968 0.0957 0.4319
vn 0.8963 0.1015 0.4316
vn 0.6206 0.0957 0.7782
vn 0.6203 0.1015 0.7778
vn 0.6206 0.0957 -0.7782
vn 0.6203 0.1015 -0.7778
vn 0.2214 0.1015 -0.9699
vn 0.2215 0.0957 -0.9705
vn -0.8963 0.1015 0.4316
vn -0.8968 0.0957 0.4319
vn 0.2103 -0.3262 -0.9216
vn -0.2103 -0.3262 -0.9216
vn -0.8995 0.0582 -0.4331
vn -0.9983 0.0582 -0.0000
vn 0.6224 0.0582 -0.7805
vn 0.2221 0.0582 -0.9733
vn -0.6224 0.0582 0.7805
vn -0.2221 0.0582 0.9733
vn -0.8995 0.0582 0.4331
vn 0.2221 0.0582 0.9733
vn -0.6224 0.0582 -0.7805
vn 0.8995 0.0582 -0.4331
vn 0.9983 0.0582 -0.0000
vn 0.8995 0.0582 0.4331
vn 0.6224 0.0582 0.7805
vn -0.2221 0.0582 -0.9733
vn 0.9006 0.0283 0.4337
vn 0.9996 0.0283 -0.0000
vn -0.6232 0.0283 -0.7815
vn -0.9006 0.0283 -0.4337
vn -0.6232 0.0283 0.7815
vn -0.2224 0.0283 0.9745
vn 0.6232 0.0283 -0.7815
vn 0.2224 0.0283 -0.9745
vn 0.9006 0.0283 -0.4337
vn -0.9006 0.0283 0.4337
vn -0.9996 0.0283 -0.0000
vn -0.2224 0.0283 -0.9745
vn 0.9008 0.0178 0.4338
vn 0.9998 0.0178 -0.0000
vn -0.2225 0.0178 0.9748
vn -0.6234 0.0178 -0.7817
vn -0.2225 0.0178 -0.9748
vn 0.6234 0.0178 -0.7817
vn 0.2225 0.0178 -0.9748
vn 0.9008 0.0178 -0.4338
vn -0.9008 0.0178 0.4338
vn -0.9998 0.0178 -0.0000
vn -0.9008 0.0178 -0.4338
vn -0.6234 0.0178 0.7817
vn 0.9990 0.0446 -0.0000
vn 0.9001 0.0446 0.4335
vn -0.0000 1.0000 -0.0000
vn 0.9010 -0.0000 0.4339
vn 1.0000 -0.0000 -0.0000
vn -0.9453 -0.3262 -0.0000
vn -0.8517 -0.3262 0.4101
vn 0.9453 -0.3262 -0.0000
vn 0.8517 -0.3262 -0.4101
vn -0.5894 -0.3262 -0.7391
vn -0.2103 -0.3262 0.9216
vn 0.2103 -0.3262 0.9216
vn -0.8517 -0.3262 -0.4101
vn 0.5894 -0.3262 -0.7391
vn 0.8517 -0.3262 0.4101
vn -0.5894 -0.3262 0.7391
vn 0.5894 -0.3262 0.7391
vt 0.215617 0.456570
vt 0.215617 0.189563
vt 0.429902 0.189563
vt 0.429902 0.456570
vt 0.644188 0.189563
vt 0.644188 0.456570
vt -1.030455 0.001268
vt -0.821592 0.001268
vt -0.821592 0.046285
vt -1.030455 0.046285
vt -1.070098 0.189563
vt -0.855812 0.189563
vt -0.855812 0.456570
vt -1.070098 0.456570
vt -0.460032 0.618005
vt -0.245746 0.618005
vt -0.245746 0.998588
vt -0.460032 0.998588
vt -0.641526 0.456570
vt -0.641526 0.189563
vt -0.427241 0.189563
vt -0.427241 0.456570
vt -0.212955 0.189563
vt -0.212955 0.456570
vt 0.001331 0.189563
vt 0.001331 0.456570
vt -0.429494 0.046285
vt -0.429494 0.001268
vt -0.247429 0.001268
vt -0.247429 0.046285
vt 1.501331 0.189563
vt 1.715617 0.189563
vt 1.715617 0.456570
vt 1.501331 0.456570
vt 1.255781 0.001268
vt 1.490103 0.001268
vt 1.490103 0.046285
vt 1.255781 0.046285
vt -0.620811 0.001268
vt -0.620811 0.046285
vt 1.287045 0.189563
vt 1.287045 0.456570
vt -1.787456 0.401843
vt -1.573170 0.401843
vt -1.573170 0.672284
vt -1.787456 0.672284
vt -0.716028 0.672284
vt -0.716028 0.401843
vt -0.501742 0.401843
vt -0.501742 0.672284
vt 0.355401 0.401843
vt 0.569687 0.401843
vt 0.569687 0.672284
vt 0.355401 0.672284
vt -0.287456 0.401843
vt -0.287456 0.672284
vt -1.358885 0.672284
vt -1.358885 0.401843
vt -1.144599 0.401843
vt -1.144599 0.672284
vt 0.141116 0.672284
vt 0.141116 0.401843
vt -0.073170 0.672284
vt -0.073170 0.401843
vt 0.783972 0.672284
vt 0.783972 0.401843
vt 0.998258 0.401843
vt 0.998258 0.672284
vt 1.212544 0.401843
vt 1.212544 0.672284
vt -0.930314 0.401843
vt -0.930314 0.672284
vt -0.294699 0.188552
vt -0.424922 0.188552
vt -0.424922 0.145927
vt -0.294699 0.145928
vt -0.773527 0.741638
vt -0.773527 0.331691
vt -0.560170 0.331691
vt -0.560170 0.741638
vt 1.360042 0.741638
vt 1.360042 0.331691
vt 1.573399 0.331691
vt 1.573399 0.741638
vt -0.133456 0.741638
vt -0.133456 0.331691
vt 0.079901 0.331691
vt 0.079901 0.741638
vt -0.346813 0.331691
vt -0.346813 0.741638
vt 0.293258 0.331691
vt 0.293258 0.741638
vt -0.986884 0.741638
vt -0.986884 0.331691
vt 0.933329 0.331691
vt 1.146686 0.331691
vt 1.146686 0.741638
vt 0.933329 0.741638
vt 0.719972 0.741638
vt 0.719972 0.331691
vt 0.506615 0.741638
vt 0.506615 0.331691
vt 1.786756 0.331691
vt 1.786756 0.741638
vt 0.004474 0.708808
vt -0.209812 0.708808
vt -0.209812 0.456362
vt 0.004474 0.456362
vt -1.200241 0.331691
vt -1.200241 0.741638
vt 1.230572 0.794369
vt 1.230572 0.367010
vt 1.444858 0.367010
vt 1.444858 0.794369
vt -0.483714 0.794369
vt -0.483714 0.367010
vt -0.269428 0.367010
vt -0.269428 0.794369
vt 0.373429 0.794369
vt 0.373429 0.367010
vt 0.587715 0.367010
vt 0.587715 0.794369
vt 1.873429 0.794369
vt 1.873429 0.367010
vt 2.087715 0.367010
vt 2.087715 0.794369
vt 1.659143 0.367010
vt 1.659143 0.794369
vt -0.055142 0.367010
vt 0.159143 0.367010
vt 0.159143 0.794369
vt -0.055142 0.794369
vt 0.802000 0.367010
vt 0.802000 0.794369
vt 1.016286 0.367010
vt 1.016286 0.794369
vt -0.698000 0.367010
vt -0.698000 0.794369
vt 2.302001 0.367010
vt 2.302001 0.794369
vt -0.031460 0.998588
vt -0.031460 0.618005
vt 0.182826 0.618005
vt 0.182826 0.998588
vt -0.674317 0.618005
vt -0.674317 0.998588
vt -1.960032 0.618005
vt -1.745746 0.618005
vt -1.745746 0.998588
vt -1.960032 0.998588
vt 0.611397 0.998588
vt 0.611397 0.618005
vt 0.825683 0.618005
vt 0.825683 0.998588
vt 0.397111 0.618005
vt 0.397111 0.998588
vt -1.317174 0.618005
vt -1.102889 0.618005
vt -1.102889 0.998588
vt -1.317174 0.998588
vt -1.531460 0.998588
vt -1.531460 0.618005
vt 1.039968 0.618005
vt 1.039968 0.998588
vt -0.888603 0.618005
vt -0.888603 0.998588
vt 1.933046 0.708808
vt 1.718760 0.708808
vt 1.718760 0.456362
vt 1.933046 0.456362
vt 0.218760 0.456362
vt 0.218760 0.708808
vt 1.290189 0.708808
vt 1.075903 0.708808
vt 1.075903 0.456362
vt 1.290189 0.456362
vt 0.861618 0.708808
vt 0.861618 0.456362
vt -0.638383 0.708808
vt -0.638383 0.456362
vt -0.424097 0.456362
vt -0.424097 0.708808
vt 0.647332 0.708808
vt 0.433046 0.708808
vt 0.433046 0.456362
vt 0.647332 0.456362
vt 1.504474 0.708808
vt 1.504474 0.456362
vt -0.852668 0.708808
vt -1.066954 0.708808
vt -1.066954 0.456362
vt -0.852668 0.456362
vt 0.641657 0.046285
vt 0.641657 0.097724
vt 0.453221 0.097724
vt 0.453221 0.046285
vt 1.490103 0.097724
vt 1.255781 0.097724
vt -1.030455 0.097724
vt -0.821592 0.097724
vt -0.620811 0.097724
vt 0.273379 0.097724
vt 0.273379 0.046285
vt -0.072402 0.097724
vt -0.247429 0.097724
vt -0.072402 0.046285
vt 0.099590 0.046285
vt 0.099590 0.097724
vt -1.237437 0.097724
vt -1.237437 0.046285
vt -0.429494 0.097724
vt 0.839125 0.046285
vt 0.839125 0.097724
vt 1.044395 0.097724
vt 1.044395 0.046285
vt 0.858474 0.189563
vt 0.858474 0.456570
vt 0.273379 0.001268
vt 0.453221 0.001268
vt 0.641657 0.001268
vt 0.839125 0.001268
vt 1.044395 0.001268
vt 0.099590 0.001268
vt -0.072401 0.001268
vt -1.237437 0.001268
vt 1.072760 0.189563
vt 1.072760 0.456570
vt 1.929902 0.189563
vt 1.929902 0.456570
vt 1.015325 0.145928
vt 1.015325 0.188552
vt 0.884696 0.188552
vt 0.884696 0.145928
vt 0.103684 0.145928
vt 0.103684 0.188552
vt -0.027966 0.188552
vt -0.027966 0.145928
vt 1.413098 0.145928
vt 1.413098 0.188552
vt 1.278918 0.188552
vt 1.278918 0.145928
vt 0.624665 0.188552
vt 0.494844 0.188552
vt 0.494844 0.145928
vt 0.624665 0.145928
vt 1.146658 0.188552
vt 1.146658 0.145928
vt -0.160627 0.188552
vt -0.160627 0.145928
vt 0.234562 0.188552
vt 0.234562 0.145928
vt 0.754546 0.188552
vt 0.754546 0.145928
vt 0.364879 0.188552
vt 0.364879 0.145928
s 1
usemtl Cooling_tower
f 38/1/1 252/2/2 253/3/3
f 38/1/1 253/3/3 40/4/4
f 253/3/3 254/5/5 42/6/6
f 253/3/3 42/6/6 40/4/4
f 217/7/7 218/8/8 195/9/8
f 217/7/7 195/9/8 193/10/7
f 245/11/9 247/12/7 28/13/10
f 245/11/9 28/13/10 24/14/11
f 130/15/12 132/16/13 269/17/14
f 130/15/12 269/17/14 268/18/15
f 30/19/16 248/20/8 249/21/17
f 30/19/16 249/21/17 32/22/18
f 249/21/17 250/23/19 34/24/20
f 249/21/17 34/24/20 32/22/18
f 34/24/20 250/23/19 251/25/21
f 34/24/20 251/25/21 36/26/22
f 199/27/19 220/28/19 221/29/21
f 199/27/19 221/29/21 201/30/21
f 243/31/23 244/32/24 22/33/25
f 243/31/23 22/33/25 20/34/26
f 214/35/24 216/36/9 190/37/9
f 214/35/24 190/37/9 188/38/24
f 247/12/7 248/20/8 30/19/16
f 247/12/7 30/19/16 28/13/10
f 218/8/8 219/39/17 197/40/17
f 218/8/8 197/40/17 195/9/8
f 242/41/27 243/31/23 20/34/26
f 242/41/27 20/34/26 18/42/28
f 159/43/29 163/44/30 58/45/31
f 159/43/29 58/45/31 54/46/32
f 66/47/33 171/48/34 173/49/35
f 66/47/33 173/49/35 68/50/36
f 151/51/37 153/52/38 48/53/39
f 151/51/37 48/53/39 46/54/40
f 68/50/36 173/49/35 175/55/41
f 68/50/36 175/55/41 70/56/42
f 60/57/43 165/58/44 167/59/45
f 60/57/43 167/59/45 62/60/46
f 74/61/47 179/62/48 151/51/37
f 74/61/47 151/51/37 46/54/40
f 72/63/49 177/64/50 179/62/48
f 72/63/49 179/62/48 74/61/47
f 50/65/51 155/66/52 157/67/53
f 50/65/51 157/67/53 52/68/54
f 175/55/41 177/64/50 72/63/49
f 175/55/41 72/63/49 70/56/42
f 157/67/53 161/69/29 56/70/32
f 157/67/53 56/70/32 52/68/54
f 169/71/55 171/48/34 66/47/33
f 169/71/55 66/47/33 64/72/56
f 167/59/45 169/71/55 64/72/56
f 167/59/45 64/72/56 62/60/46
f 58/45/31 163/44/30 165/58/44
f 58/45/31 165/58/44 60/57/43
f 139/73/57 140/74/58 230/75/58
f 139/73/57 230/75/58 229/76/57
f 90/77/59 61/78/43 63/79/46
f 90/77/59 63/79/46 92/80/60
f 80/81/61 51/82/51 53/83/54
f 80/81/61 53/83/54 82/84/62
f 96/85/63 67/86/33 69/87/36
f 96/85/63 69/87/36 98/88/64
f 63/79/46 65/89/56 94/90/65
f 63/79/46 94/90/65 92/80/60
f 98/88/64 69/87/36 71/91/42
f 98/88/64 71/91/42 100/92/66
f 65/89/56 67/86/33 96/85/63
f 65/89/56 96/85/63 94/90/65
f 88/93/67 59/94/31 61/78/43
f 88/93/67 61/78/43 90/77/59
f 47/95/40 49/96/39 78/97/68
f 47/95/40 78/97/68 76/98/69
f 104/99/70 75/100/47 47/95/40
f 104/99/70 47/95/40 76/98/69
f 102/101/71 73/102/49 75/100/47
f 102/101/71 75/100/47 104/99/70
f 53/83/54 57/103/32 86/104/72
f 53/83/54 86/104/72 82/84/62
f 49/96/39 51/82/51 80/81/61
f 49/96/39 80/81/61 78/97/68
f 172/105/34 170/106/55 35/107/20
f 172/105/34 35/107/20 37/108/22
f 71/91/42 73/102/49 102/101/71
f 71/91/42 102/101/71 100/92/66
f 55/109/32 59/94/31 88/93/67
f 55/109/32 88/93/67 84/110/72
f 135/111/73 105/112/70 77/113/69
f 135/111/73 77/113/69 107/114/74
f 119/115/75 89/116/67 91/117/59
f 119/115/75 91/117/59 121/118/76
f 127/119/77 97/120/63 99/121/64
f 127/119/77 99/121/64 129/122/78
f 111/123/79 81/124/61 83/125/62
f 111/123/79 83/125/62 113/126/80
f 79/127/68 81/124/61 111/123/79
f 79/127/68 111/123/79 109/128/81
f 93/129/60 95/130/65 125/131/82
f 93/129/60 125/131/82 123/132/83
f 129/122/78 99/121/64 101/133/66
f 129/122/78 101/133/66 131/134/12
f 121/118/76 91/117/59 93/129/60
f 121/118/76 93/129/60 123/132/83
f 101/133/66 103/135/71 133/136/13
f 101/133/66 133/136/13 131/134/12
f 133/136/13 103/135/71 105/112/70
f 133/136/13 105/112/70 135/111/73
f 85/137/72 89/116/67 119/115/75
f 85/137/72 119/115/75 115/138/84
f 83/125/62 87/139/72 117/140/84
f 83/125/62 117/140/84 113/126/80
f 77/113/69 79/127/68 109/128/81
f 77/113/69 109/128/81 107/114/74
f 270/141/85 134/142/73 106/143/74
f 270/141/85 106/143/74 256/144/86
f 128/145/78 130/15/12 268/18/15
f 128/145/78 268/18/15 267/146/87
f 114/147/84 118/148/75 262/149/88
f 114/147/84 262/149/88 260/150/89
f 258/151/90 110/152/79 112/153/80
f 258/151/90 112/153/80 259/154/91
f 106/143/74 108/155/81 257/156/92
f 106/143/74 257/156/92 256/144/86
f 122/157/83 124/158/82 265/159/93
f 122/157/83 265/159/93 264/160/94
f 108/155/81 110/152/79 258/151/90
f 108/155/81 258/151/90 257/156/92
f 263/161/95 120/162/76 122/157/83
f 263/161/95 122/157/83 264/160/94
f 259/154/91 112/153/80 116/163/84
f 259/154/91 116/163/84 261/164/89
f 124/158/82 126/165/77 266/166/96
f 124/158/82 266/166/96 265/159/93
f 266/166/96 126/165/77 128/145/78
f 266/166/96 128/145/78 267/146/87
f 269/17/14 132/16/13 134/142/73
f 269/17/14 134/142/73 270/141/85
f 262/149/88 118/148/75 120/162/76
f 262/149/88 120/162/76 263/161/95
f 95/130/65 97/120/63 127/119/77
f 95/130/65 127/119/77 125/131/82
f 162/167/29 158/168/53 23/169/25
f 162/167/29 23/169/25 27/170/11
f 172/105/34 37/108/22 39/171/1
f 172/105/34 39/171/1 174/172/35
f 154/173/38 152/174/37 17/175/97
f 154/173/38 17/175/97 19/176/28
f 180/177/48 45/178/98 17/175/97
f 180/177/48 17/175/97 152/174/37
f 153/52/38 155/66/52 50/65/51
f 153/52/38 50/65/51 48/53/39
f 166/179/44 31/180/16 33/181/18
f 166/179/44 33/181/18 168/182/45
f 178/183/50 176/184/41 41/185/4
f 178/183/50 41/185/4 43/186/6
f 178/183/50 43/186/6 45/178/98
f 178/183/50 45/178/98 180/177/48
f 156/187/52 154/173/38 19/176/28
f 156/187/52 19/176/28 21/188/26
f 176/184/41 174/172/35 39/171/1
f 176/184/41 39/171/1 41/185/4
f 156/187/52 21/188/26 23/169/25
f 156/187/52 23/169/25 158/168/53
f 170/106/55 168/182/45 33/181/18
f 170/106/55 33/181/18 35/107/20
f 164/189/30 160/190/29 25/191/11
f 164/189/30 25/191/11 29/192/10
f 164/189/30 29/192/10 31/180/16
f 164/189/30 31/180/16 166/179/44
s 0
f 181/193/99 241/194/99 255/195/99
f 181/193/99 255/195/99 209/196/99
f 6/197/99 4/198/99 187/38/99
f 6/197/99 187/38/99 192/37/99
f 7/199/99 194/10/99 196/9/99
f 7/199/99 196/9/99 8/200/99
f 196/9/99 198/40/99 9/201/99
f 196/9/99 9/201/99 8/200/99
f 209/196/99 255/195/99 14/202/99
f 209/196/99 14/202/99 207/203/99
f 12/204/99 11/205/99 202/30/99
f 12/204/99 202/30/99 204/206/99
f 205/207/99 207/203/99 14/202/99
f 205/207/99 14/202/99 13/208/99
f 7/199/99 5/209/99 191/210/99
f 7/199/99 191/210/99 194/10/99
f 202/30/99 11/205/99 10/211/99
f 202/30/99 10/211/99 200/27/99
f 241/194/99 181/193/99 183/212/99
f 241/194/99 183/212/99 2/213/99
f 3/214/99 185/215/99 187/38/99
f 3/214/99 187/38/99 4/198/99
f 204/206/99 205/207/99 13/208/99
f 204/206/99 13/208/99 12/204/99
f 2/213/99 183/212/99 185/215/99
f 2/213/99 185/215/99 3/214/99
s 1
f 254/5/5 15/216/100 44/217/98
f 254/5/5 44/217/98 42/6/6
f 197/40/17 219/39/17 220/28/19
f 197/40/17 220/28/19 199/27/19
f 224/218/5 225/219/100 210/196/100
f 224/218/5 210/196/100 208/203/5
f 182/193/101 211/220/101 212/221/27
f 182/193/101 212/221/27 184/212/27
f 213/222/23 214/35/24 188/38/24
f 213/222/23 188/38/24 186/215/23
f 206/207/3 223/223/3 224/218/5
f 206/207/3 224/218/5 208/203/5
f 203/206/2 222/224/2 223/223/3
f 203/206/2 223/223/3 206/207/3
f 225/219/100 211/220/101 182/193/101
f 225/219/100 182/193/101 210/196/100
f 184/212/27 212/221/27 213/222/23
f 184/212/27 213/222/23 186/215/23
f 189/210/9 215/225/9 217/7/7
f 189/210/9 217/7/7 193/10/7
f 44/217/98 15/216/100 1/226/101
f 44/217/98 1/226/101 16/227/97
f 244/32/24 246/228/9 26/229/11
f 244/32/24 26/229/11 22/33/25
f 36/26/22 251/25/21 252/2/2
f 36/26/22 252/2/2 38/1/1
f 221/29/21 222/224/2 203/206/2
f 221/29/21 203/206/2 201/30/21
f 234/230/102 144/231/102 145/232/103
f 234/230/102 145/232/103 235/233/103
f 226/234/104 136/235/104 137/236/105
f 226/234/104 137/236/105 227/237/105
f 231/238/58 141/239/58 142/240/106
f 231/238/58 142/240/106 232/241/106
f 147/242/107 148/243/108 238/244/108
f 147/242/107 238/244/108 237/245/107
f 143/246/109 144/231/102 234/230/102
f 143/246/109 234/230/102 233/247/109
f 227/237/105 137/236/105 138/248/110
f 227/237/105 138/248/110 228/249/110
f 150/250/111 136/235/104 226/234/104
f 150/250/111 226/234/104 240/251/111
f 146/252/112 147/242/107 237/245/107
f 146/252/112 237/245/107 236/253/112
s 0
f 200/27/99 10/211/99 9/201/99
f 200/27/99 9/201/99 198/40/99
s 1
f 149/254/113 150/250/111 240/251/111
f 149/254/113 240/251/111 239/255/113
f 138/248/110 139/73/57 229/76/57
f 138/248/110 229/76/57 228/249/110
f 235/233/103 145/232/103 146/252/112
f 235/233/103 146/252/112 236/253/112
f 238/244/108 148/243/108 149/254/113
f 238/244/108 149/254/113 239/255/113
f 142/240/106 143/246/109 233/247/109
f 142/240/106 233/247/109 232/241/106
f 1/226/101 242/41/27 18/42/28
f 1/226/101 18/42/28 16/227/97
