# Blender 4.0.2
# www.blender.org
mtllib Crate_B_Empty.mtl
o Cargo_1_open
v -4.060351 0.152622 -1.439411
v -4.060351 0.152622 -1.439411
v -4.060351 0.152622 -1.439411
v -0.060351 0.152622 -1.439411
v -0.060351 0.152622 -1.439411
v -0.060351 0.152622 -1.439411
v -0.060351 0.152622 -1.439411
v -0.060351 2.832378 -1.439411
v -0.060351 2.832378 -1.439411
v -0.060351 2.832378 -1.439411
v -0.060351 2.832378 -1.439411
v -4.060351 2.832378 -1.439411
v -4.060351 2.832378 -1.439411
v -4.060351 2.832378 -1.439411
v -4.060350 0.152622 1.457938
v -4.060350 0.152622 1.457938
v -4.060350 0.152622 1.457938
v -0.060351 0.152622 1.457937
v -0.060351 0.152622 1.457937
v -0.060351 0.152622 1.457937
v -0.060351 0.152622 1.457937
v -4.060351 2.832378 1.457938
v -4.060351 2.832378 1.457938
v -4.060351 2.832378 1.457938
v -0.060351 2.832378 1.457939
v -0.060351 2.832378 1.457939
v -0.060351 2.832378 1.457939
v -0.060351 2.832378 1.457939
v -4.060351 2.989424 1.505892
v -4.060351 2.989424 1.505892
v -4.060351 2.989424 1.505892
v -4.060351 2.989424 -1.494108
v -4.060351 2.989424 -1.494108
v -4.060351 2.989424 -1.494108
v -4.060350 -0.010576 1.505892
v -4.060350 -0.010576 1.505892
v -4.060350 -0.010576 1.505892
v -4.060351 -0.010576 -1.494108
v -4.060351 -0.010576 -1.494108
v -4.060351 -0.010576 -1.494108
v -4.060351 2.832378 0.002134
v -4.060351 0.152622 0.002134
v 3.939649 -0.010576 -1.494108
v 3.939649 -0.010576 -1.494108
v 3.939649 -0.010576 -1.494108
v 3.939649 2.989424 -1.494108
v 3.939649 2.989424 -1.494108
v 3.939649 2.989424 -1.494108
v 3.939649 2.989424 1.505892
v 3.939649 2.989424 1.505892
v 3.939649 2.989424 1.505892
v 3.939649 -0.010576 1.505892
v 3.939649 -0.010576 1.505892
v 3.939649 -0.010576 1.505892
v 3.939648 2.832378 -1.439412
v 3.939648 2.832378 -1.439412
v 3.939648 2.832378 -1.439412
v 3.939648 0.152622 -1.439413
v 3.939648 0.152622 -1.439413
v 3.939648 0.152622 -1.439413
v 3.939648 2.832378 1.457937
v 3.939648 2.832378 1.457937
v 3.939648 2.832378 1.457937
v 3.939648 0.152622 1.457937
v 3.939648 0.152622 1.457937
v 3.939648 0.152622 1.457937
vn -0.0000 -1.0000 -0.0000
vn -0.0000 1.0000 -0.0000
vn -0.0000 -0.0000 1.0000
vn 1.0000 -0.0000 -0.0000
vn -0.0000 -0.0000 -1.0000
vn -1.0000 -0.0000 -0.0000
vt 0.759128 0.649002
vt 0.759128 0.325229
vt 0.000468 0.325229
vt 0.000468 0.649002
vt 0.998514 0.000631
vt 0.760599 0.000631
vt 0.760599 0.322794
vt 0.998514 0.322794
vt 0.998514 0.324732
vt 0.998514 0.650023
vt 0.760599 0.650023
vt 0.760599 0.324732
vt 0.336004 0.669844
vt 0.330801 0.650976
vt 0.656279 0.650976
vt 0.650345 0.669844
vt 0.759289 0.324429
vt 0.000327 0.324429
vt 0.000327 0.000360
vt 0.759289 0.000360
vt 0.328065 1.000000
vt 0.322821 0.981729
vt 0.322821 0.669963
vt 0.328065 0.650976
vt 0.163622 0.981729
vt 0.005981 0.981729
vt 0.000000 1.000000
vt 0.005981 0.669963
vt 0.000000 0.650976
vt 0.163622 0.669963
vt 0.336004 0.979663
vt 0.330801 0.997820
vt 0.656279 0.997820
vt 0.650345 0.979663
s 0
usemtl Cargo_1_open
f 43/1/1 52/2/1 36/3/1
f 43/1/1 36/3/1 39/4/1
f 55/5/1 61/6/1 25/7/1
f 55/5/1 25/7/1 8/8/1
f 59/9/2 6/10/2 20/11/2
f 59/9/2 20/11/2 65/12/2
f 56/5/3 10/8/3 4/7/3
f 56/5/3 4/7/3 58/6/3
f 66/13/4 54/14/4 45/15/4
f 66/13/4 45/15/4 60/16/4
f 28/5/5 19/6/5 16/7/5
f 28/5/5 16/7/5 24/8/5
f 7/9/2 3/10/2 17/11/2
f 7/9/2 17/11/2 21/12/2
f 62/5/5 64/6/5 18/7/5
f 62/5/5 18/7/5 27/8/5
f 33/17/5 46/18/5 44/19/5
f 33/17/5 44/19/5 40/20/5
f 9/5/1 26/6/1 23/7/1
f 9/5/1 23/7/1 13/8/1
f 29/21/6 22/22/6 15/23/6
f 15/23/6 35/24/6 29/21/6
f 49/17/3 30/18/3 37/19/3
f 49/17/3 37/19/3 53/20/3
f 11/5/3 14/8/3 2/7/3
f 11/5/3 2/7/3 5/6/3
f 41/25/6 22/22/6 29/21/6
f 12/26/6 41/25/6 29/21/6
f 12/26/6 29/21/6 32/27/6
f 1/28/6 12/26/6 32/27/6
f 32/27/6 38/29/6 1/28/6
f 42/30/6 1/28/6 38/29/6
f 15/23/6 42/30/6 38/29/6
f 15/23/6 38/29/6 35/24/6
f 63/31/4 51/32/4 54/14/4
f 54/14/4 66/13/4 63/31/4
f 48/33/4 51/32/4 63/31/4
f 48/33/4 63/31/4 57/34/4
f 48/33/4 57/34/4 60/16/4
f 60/16/4 45/15/4 48/33/4
f 47/1/2 34/4/2 31/3/2
f 47/1/2 31/3/2 50/2/2
