# Blender 4.0.2
# www.blender.org
mtllib Crate_A_Empty.mtl
o Cargo_2_empty
v -2.468361 -0.046682 0.881542
v -2.468361 -0.046682 0.881542
v 2.468361 -0.046682 0.881542
v 2.468361 -0.046682 0.881542
v 2.401655 0.001836 0.793076
v 2.401655 0.001836 0.793076
v 2.401655 0.001836 0.793076
v -2.468361 1.566469 0.182299
v -2.468361 1.566469 0.182299
v -2.468361 1.566469 0.182299
v -2.404290 0.001836 -0.797663
v -2.404290 0.001836 -0.797663
v -2.404290 0.001836 -0.797663
v -2.404290 1.566469 -0.797663
v -2.404290 1.566469 -0.797663
v -2.404290 1.566469 -0.797663
v -2.404290 1.566469 -0.797663
v 2.401655 1.566469 -0.797663
v 2.401655 1.566469 -0.797663
v 2.401655 1.566469 -0.797663
v 2.401655 1.566469 -0.797663
v 2.401654 0.001836 -0.797663
v 2.401654 0.001836 -0.797663
v 2.401654 0.001836 -0.797663
v -2.404290 0.001836 0.793076
v -2.404290 0.001836 0.793076
v -2.404290 0.001836 0.793076
v 2.468361 1.566469 0.881542
v 2.468361 1.566469 0.881542
v 2.468361 1.566469 0.881542
v 2.468361 1.566469 0.881542
v -2.468361 1.566468 0.881542
v -2.468361 1.566468 0.881542
v -2.468361 1.566468 0.881542
v -2.468361 1.566468 0.881542
v 2.401655 1.566469 0.793076
v 2.401655 1.566469 0.793076
v 2.401655 1.566469 0.793076
v 2.401655 1.566469 0.793076
v -2.404290 1.566468 0.793076
v -2.404290 1.566468 0.793076
v -2.404290 1.566468 0.793076
v -2.404290 1.566468 0.793076
v -2.468361 1.566469 -0.191403
v -2.468361 1.566469 -0.191403
v -2.468361 1.566469 -0.191403
v -2.468361 1.506760 0.182299
v -2.468361 1.506760 0.182299
v -2.468361 1.506760 0.182299
v -2.468361 1.506760 -0.191403
v -2.468361 1.506760 -0.191403
v -2.468361 1.506760 -0.191403
v -2.404290 1.566469 -0.191403
v -2.404290 1.566469 -0.191403
v -2.404290 1.566469 -0.191403
v -2.404290 1.566469 0.182299
v -2.404290 1.566469 0.182299
v -2.404290 1.566469 0.182299
v -2.404290 1.506760 -0.191403
v -2.404290 1.506760 -0.191403
v -2.404290 1.506760 -0.191403
v -2.404290 1.506760 0.182300
v -2.404290 1.506760 0.182300
v -2.404290 1.506760 0.182300
v 2.468361 -0.046682 -0.881542
v 2.468361 -0.046682 -0.881542
v -2.468361 -0.046682 -0.881542
v -2.468361 -0.046682 -0.881542
v -2.468361 1.566469 -0.881542
v -2.468361 1.566469 -0.881542
v -2.468361 1.566469 -0.881542
v -2.468361 1.566469 -0.881542
v 2.468361 1.566469 -0.881542
v 2.468361 1.566469 -0.881542
v 2.468361 1.566469 -0.881542
v 2.468361 1.566469 -0.881542
vn -0.0000 -0.0000 1.0000
vn -0.0000 -0.0000 -1.0000
vn -1.0000 -0.0000 -0.0000
vn -0.0000 1.0000 -0.0000
vn 1.0000 -0.0000 -0.0000
vt 0.792000 0.998701
vt 0.000720 0.998701
vt 0.000720 0.680797
vt 0.792000 0.680797
vt 0.997768 0.308892
vt 0.001261 0.308892
vt 0.001261 0.001063
vt 0.997768 0.001063
vt 0.790926 0.311048
vt 0.634499 0.665127
vt 0.550898 0.665127
vt 0.984388 0.308892
vt 0.014106 0.308892
vt 0.001261 0.295872
vt 0.997768 0.295872
vt 0.790926 0.678737
vt 0.634499 0.678737
vt 0.550898 0.678737
vt 0.396508 0.678737
vt 0.793571 0.677347
vt 0.793571 0.312394
vt 0.946867 0.312394
vt 0.946867 0.677347
vt 0.787021 0.308892
vt 0.776929 0.308892
vt 0.777434 0.295872
vt 0.787527 0.295872
vt 0.396508 0.311048
vt 0.538619 0.986935
vt 0.602910 0.986935
vt 0.707961 0.680797
vt 0.659757 0.308892
vt 0.641879 0.295872
vt 0.979935 0.295872
vt 0.641879 0.308892
vt 0.660457 0.295872
vt 0.862213 0.295872
vt 0.978880 0.308892
vt 0.861708 0.308892
vt 0.851615 0.308892
vt 0.852121 0.295872
vt 0.434318 0.680797
vt 0.434318 0.998701
vt 0.602910 0.998701
vt 0.707961 0.998701
vt 0.538619 0.998701
vt 0.395324 0.678869
vt 0.000738 0.678869
vt 0.000738 0.311030
vt 0.395324 0.311030
s 0
usemtl Cargo_2_full
f 19/1/1 14/2/1 11/3/1
f 19/1/1 11/3/1 23/4/1
f 70/5/2 73/6/2 65/7/2
f 70/5/2 65/7/2 68/8/2
f 1/9/3 47/10/3 50/11/3
f 39/12/4 41/13/4 34/14/4
f 39/12/4 34/14/4 30/15/4
f 28/5/1 33/6/1 2/7/1
f 28/5/1 2/7/1 3/8/1
f 1/9/3 32/16/3 8/17/3
f 8/17/3 47/10/3 1/9/3
f 50/11/3 44/18/3 69/19/3
f 37/1/2 6/4/2 25/3/2
f 37/1/2 25/3/2 40/2/2
f 26/20/4 7/21/4 24/22/4
f 26/20/4 24/22/4 12/23/4
f 59/24/1 53/25/1 45/26/1
f 59/24/1 45/26/1 51/27/1
f 69/19/3 67/28/3 1/9/3
f 69/19/3 1/9/3 50/11/3
f 61/29/5 64/30/5 27/31/5
f 16/12/4 20/13/4 74/14/4
f 16/12/4 74/14/4 72/15/4
f 46/26/4 54/25/4 15/32/4
f 15/32/4 71/33/4 46/26/4
f 38/34/4 29/5/4 75/35/4
f 75/35/4 21/36/4 38/34/4
f 10/37/4 35/15/4 42/38/4
f 42/38/4 57/39/4 10/37/4
f 63/40/4 60/24/4 52/27/4
f 63/40/4 52/27/4 49/41/4
f 13/42/5 17/43/5 61/29/5
f 13/42/5 61/29/5 27/31/5
f 56/39/2 62/40/2 48/41/2
f 56/39/2 48/41/2 9/37/2
f 27/31/5 64/30/5 58/44/5
f 58/44/5 43/45/5 27/31/5
f 17/43/5 55/46/5 61/29/5
f 36/45/3 18/43/3 22/42/3
f 36/45/3 22/42/3 5/31/3
f 76/47/5 31/48/5 4/49/5
f 76/47/5 4/49/5 66/50/5
