# Blender 4.0.2
# www.blender.org
mtllib Fence_Mesh.mtl
o Fence
v 0.000000 -0.455640 2.820638
v 0.000000 0.978588 2.820638
v 0.000000 -0.455640 2.820639
v 0.000000 0.978588 2.820639
v 0.000000 -0.455640 0.015599
v 0.000000 0.978588 0.015599
v 0.000000 -0.455640 0.015600
v 0.000000 0.978588 0.015600
vn 1.0000 -0.0000 -0.0000
vn -1.0000 -0.0000 -0.0000
vt 0.500000 -0.890108
vt 0.500000 1.890108
vt 6.537115 1.890108
vt 6.537115 -0.890108
s 0
usemtl Fence
f 7/1/1 8/2/1 4/3/1
f 7/1/1 4/3/1 3/4/1
f 6/2/2 5/1/2 1/4/2
f 6/2/2 1/4/2 2/3/2
