# Blender 4.0.2
# www.blender.org
mtllib Metal_Cabinet_2.mtl
o Metal_cabinet_2
v 0.589690 1.971698 -0.199787
v 0.589690 1.971698 -0.199787
v 0.589690 1.971698 -0.199787
v -0.589691 1.971699 0.199786
v -0.589691 1.971699 0.199786
v -0.589691 1.971699 0.199786
v -0.589691 -0.018376 0.199786
v -0.589691 -0.018376 0.199786
v -0.589691 -0.018376 0.199786
v -0.589691 1.971699 -0.199787
v -0.589691 1.971699 -0.199787
v -0.589691 1.971699 -0.199787
v 0.589691 -0.018377 0.199786
v 0.589691 -0.018377 0.199786
v 0.589691 -0.018377 0.199786
v -0.589691 -0.018376 -0.199787
v -0.589691 -0.018376 -0.199787
v -0.589691 -0.018376 -0.199787
v 0.589690 1.971698 0.199786
v 0.589690 1.971698 0.199786
v 0.589690 1.971698 0.199786
v 0.589691 -0.018377 -0.199787
v 0.589691 -0.018377 -0.199787
v 0.589691 -0.018377 -0.199787
vn -1.0000 -0.0000 -0.0000
vn -0.0000 -0.0000 1.0000
vn 1.0000 -0.0000 -0.0000
vn -0.0000 1.0000 -0.0000
vn -0.0000 -0.0000 -1.0000
vn -0.0000 -1.0000 -0.0000
vt 0.588617 0.011297
vt 0.881814 0.011297
vt 0.881814 0.987803
vt 0.588617 0.987803
vt 0.004662 0.987653
vt 0.004662 0.011364
vt 0.584983 0.011364
vt 0.584983 0.987653
vt 0.886353 0.397854
vt 0.886353 0.010964
vt 0.996828 0.010964
vt 0.996828 0.397855
vt 0.417525 0.007871
vt 0.748207 0.007871
vt 0.748207 0.565861
vt 0.417525 0.565861
vt 0.141852 0.120729
vt 0.141852 0.008694
vt 0.472534 0.008694
vt 0.472534 0.120729
s 0
usemtl Metal_cabinet_2
f 4/1/1 10/2/1 16/3/1
f 4/1/1 16/3/1 7/4/1
f 5/5/2 9/6/2 14/7/2
f 5/5/2 14/7/2 19/8/2
f 21/1/3 15/4/3 24/3/3
f 21/1/3 24/3/3 3/2/3
f 6/9/4 20/10/4 2/11/4
f 6/9/4 2/11/4 12/12/4
f 23/13/5 18/14/5 11/15/5
f 23/13/5 11/15/5 1/16/5
f 8/17/6 17/18/6 22/19/6
f 8/17/6 22/19/6 13/20/6
