# Blender 4.0.2
# www.blender.org
mtllib Miniwall_Long.mtl
o Concrete_miniwall_long
v -0.050037 -0.069268 5.000002
v -0.050037 -0.069269 -4.999996
v 0.171413 1.602103 4.999998
v 0.171413 1.602103 4.999998
v 0.171413 1.602103 -5.000004
v 0.171413 1.602103 -5.000004
v -0.050037 1.467377 5.000002
v -0.050037 1.467377 5.000002
v -0.050037 1.467377 -4.999996
v -0.050037 1.467377 -4.999996
v -0.171412 1.467377 -4.999996
v -0.171412 1.467377 -4.999996
v -0.171412 1.467378 5.000002
v -0.171412 1.467378 5.000002
v -0.171412 1.602102 -4.999996
v -0.171412 1.602102 -4.999996
v -0.171412 1.602102 5.000002
v -0.171412 1.602102 5.000002
v 0.171413 1.467380 4.999998
v 0.171413 1.467379 -5.000004
vn -0.0000 1.0000 -0.0000
vn -1.0000 -0.0000 -0.0000
vn 1.0000 -0.0000 -0.0000
vn -0.0000 -1.0000 -0.0000
vt 0.000999 0.888468
vt 1.999001 0.888468
vt 1.999001 0.999501
vt 0.000999 0.999501
vt 0.000999 0.821173
vt 1.999001 0.821173
vt 0.000999 0.768055
vt 1.999001 0.768055
vt 0.000999 0.000499
vt 1.999001 0.000499
s 0
usemtl Fence_metal
f 16/1/1 18/2/1 3/3/1
f 16/1/1 3/3/1 5/4/1
f 11/5/2 13/6/2 17/2/2
f 11/5/2 17/2/2 15/1/2
f 6/7/3 4/8/3 19/6/3
f 6/7/3 19/6/3 20/5/3
f 9/7/2 2/9/2 1/10/2
f 9/7/2 1/10/2 7/8/2
f 10/7/4 8/8/4 14/6/4
f 10/7/4 14/6/4 12/5/4
