# Blender 4.0.2
# www.blender.org
mtllib Palet.mtl
o Palet_single
v -0.874614 0.209574 -0.697610
v -0.874614 0.209574 -0.697610
v -0.874614 0.209574 -0.697610
v -0.874614 0.209574 0.697611
v -0.874614 0.209574 0.697611
v -0.874614 0.209574 0.697611
v -0.874614 0.173656 -0.697610
v -0.874614 0.173656 -0.697610
v -0.874614 0.173656 -0.697610
v -0.874614 0.173656 0.697611
v -0.874614 0.173656 0.697611
v -0.874614 0.173656 0.697611
v -0.668139 0.209574 -0.697610
v -0.668139 0.209574 -0.697610
v -0.668139 0.209574 -0.697610
v -0.668139 0.209574 0.697611
v -0.668139 0.209574 0.697611
v -0.668139 0.209574 0.697611
v -0.668139 0.173656 -0.697610
v -0.668139 0.173656 -0.697610
v -0.668139 0.173656 -0.697610
v -0.668139 0.173656 0.697611
v -0.668139 0.173656 0.697611
v -0.668139 0.173656 0.697611
v -0.589566 0.209574 -0.686600
v -0.589566 0.209574 -0.686600
v -0.589566 0.209574 -0.686600
v -0.589566 0.173656 -0.686600
v -0.589566 0.173656 -0.686600
v -0.589566 0.173656 -0.686600
v -0.540729 0.173656 0.693900
v -0.540729 0.173656 0.693900
v -0.540729 0.173656 0.693900
v -0.540729 0.209574 0.693900
v -0.540729 0.209574 0.693900
v -0.540729 0.209574 0.693900
v -0.383220 0.209574 -0.693899
v -0.383220 0.209574 -0.693899
v -0.383220 0.209574 -0.693899
v -0.334383 0.209574 0.686601
v -0.334383 0.209574 0.686601
v -0.334383 0.209574 0.686601
v -0.334383 0.173656 0.686601
v -0.334383 0.173656 0.686601
v -0.334383 0.173656 0.686601
v -0.383220 0.173656 -0.693899
v -0.383220 0.173656 -0.693899
v -0.383220 0.173656 -0.693899
v -0.874614 0.029129 -0.642015
v -0.874614 0.029129 -0.642015
v -0.874614 0.029129 -0.642015
v -0.874614 0.029129 -0.677933
v -0.874614 0.029129 -0.677933
v -0.874614 0.029129 -0.677933
v 0.874614 0.029129 -0.677933
v 0.874614 0.029129 -0.677933
v 0.874614 0.029129 -0.677933
v 0.874614 0.029129 -0.642015
v 0.874614 0.029129 -0.642015
v 0.874614 0.029129 -0.642015
v -0.874614 0.173656 -0.642015
v -0.874614 0.173656 -0.642015
v -0.874614 0.173656 -0.642015
v 0.874614 0.173656 -0.642015
v 0.874614 0.173656 -0.642015
v 0.874614 0.173656 -0.642015
v 0.874614 0.173656 -0.677933
v 0.874614 0.173656 -0.677933
v 0.874614 0.173656 -0.677933
v -0.874614 0.173656 -0.677933
v -0.874614 0.173656 -0.677933
v -0.874614 0.173656 -0.677933
v -0.874614 0.029129 0.677934
v -0.874614 0.029129 0.677934
v -0.874614 0.029129 0.677934
v -0.874614 0.029129 0.642016
v -0.874614 0.029129 0.642016
v -0.874614 0.029129 0.642016
v 0.874614 0.029129 0.642016
v 0.874614 0.029129 0.642016
v 0.874614 0.029129 0.642016
v 0.874614 0.029129 0.677934
v 0.874614 0.029129 0.677934
v 0.874614 0.029129 0.677934
v -0.874614 0.173656 0.677934
v -0.874614 0.173656 0.677934
v -0.874614 0.173656 0.677934
v 0.874614 0.173656 0.677934
v 0.874614 0.173656 0.677934
v 0.874614 0.173656 0.677934
v 0.874614 0.173656 0.642016
v 0.874614 0.173656 0.642016
v 0.874614 0.173656 0.642016
v -0.874614 0.173656 0.642016
v -0.874614 0.173656 0.642016
v -0.874614 0.173656 0.642016
v 0.628568 0.209574 -0.697610
v 0.628568 0.209574 -0.697610
v 0.628568 0.209574 -0.697610
v 0.628568 0.173656 -0.697610
v 0.628568 0.173656 -0.697610
v 0.628568 0.173656 -0.697610
v 0.628568 0.173656 0.697611
v 0.628568 0.173656 0.697611
v 0.628568 0.173656 0.697611
v 0.628568 0.209574 0.697611
v 0.628568 0.209574 0.697611
v 0.628568 0.209574 0.697611
v 0.835043 0.209574 -0.697610
v 0.835043 0.209574 -0.697610
v 0.835043 0.209574 -0.697610
v 0.835043 0.209574 0.697611
v 0.835043 0.209574 0.697611
v 0.835043 0.209574 0.697611
v 0.835043 0.173656 0.697611
v 0.835043 0.173656 0.697611
v 0.835043 0.173656 0.697611
v 0.835043 0.173656 -0.697610
v 0.835043 0.173656 -0.697610
v 0.835043 0.173656 -0.697610
v -0.019996 0.173656 -0.677933
v -0.019996 0.173656 -0.677933
v -0.019996 0.173656 -0.677933
v -0.019996 0.209574 -0.677933
v -0.019996 0.209574 -0.677933
v -0.019996 0.209574 -0.677933
v -0.019996 0.209574 0.677934
v -0.019996 0.209574 0.677934
v -0.019996 0.209574 0.677934
v -0.019996 0.173656 0.677934
v -0.019996 0.173656 0.677934
v -0.019996 0.173656 0.677934
v -0.226471 0.173656 -0.677933
v -0.226471 0.173656 -0.677933
v -0.226471 0.173656 -0.677933
v -0.226471 0.173656 0.677934
v -0.226471 0.173656 0.677934
v -0.226471 0.173656 0.677934
v -0.226471 0.209574 0.677934
v -0.226471 0.209574 0.677934
v -0.226471 0.209574 0.677934
v -0.226471 0.209574 -0.677933
v -0.226471 0.209574 -0.677933
v -0.226471 0.209574 -0.677933
v 0.411973 0.209574 0.693188
v 0.411973 0.209574 0.693188
v 0.411973 0.209574 0.693188
v 0.411973 0.173656 0.693188
v 0.411973 0.173656 0.693188
v 0.411973 0.173656 0.693188
v 0.448783 0.173656 -0.687685
v 0.448783 0.173656 -0.687685
v 0.448783 0.173656 -0.687685
v 0.448783 0.209574 -0.687685
v 0.448783 0.209574 -0.687685
v 0.448783 0.209574 -0.687685
v 0.205572 0.209574 0.687686
v 0.205572 0.209574 0.687686
v 0.205572 0.209574 0.687686
v 0.242382 0.209574 -0.693187
v 0.242382 0.209574 -0.693187
v 0.242382 0.209574 -0.693187
v 0.242382 0.173656 -0.693187
v 0.242382 0.173656 -0.693187
v 0.242382 0.173656 -0.693187
v 0.205572 0.173656 0.687686
v 0.205572 0.173656 0.687686
v 0.205572 0.173656 0.687686
v -0.874613 0.029129 -0.697611
v -0.874613 0.029129 -0.697611
v -0.874613 0.029129 -0.697611
v -0.874613 -0.006789 -0.697611
v -0.874613 -0.006789 -0.697611
v -0.874613 -0.006789 -0.697611
v -0.874614 -0.006789 0.697610
v -0.874614 -0.006789 0.697610
v -0.874614 -0.006789 0.697610
v -0.874614 0.029129 0.697610
v -0.874614 0.029129 0.697610
v -0.874614 0.029129 0.697610
v -0.668138 0.029129 -0.697611
v -0.668138 0.029129 -0.697611
v -0.668138 0.029129 -0.697611
v -0.668139 0.029129 0.697610
v -0.668139 0.029129 0.697610
v -0.668139 0.029129 0.697610
v -0.668139 -0.006789 0.697610
v -0.668139 -0.006789 0.697610
v -0.668139 -0.006789 0.697610
v -0.668138 -0.006789 -0.697611
v -0.668138 -0.006789 -0.697611
v -0.668138 -0.006789 -0.697611
v -0.515406 0.029129 -0.677934
v -0.515406 0.029129 -0.677934
v -0.515406 0.029129 -0.677934
v -0.515406 -0.006789 -0.677934
v -0.515406 -0.006789 -0.677934
v -0.515406 -0.006789 -0.677934
v -0.515407 -0.006789 0.677934
v -0.515407 -0.006789 0.677934
v -0.515407 -0.006789 0.677934
v -0.515407 0.029129 0.677934
v -0.515407 0.029129 0.677934
v -0.515407 0.029129 0.677934
v -0.308931 0.029129 -0.677934
v -0.308931 0.029129 -0.677934
v -0.308931 0.029129 -0.677934
v -0.308932 0.029129 0.677934
v -0.308932 0.029129 0.677934
v -0.308932 0.029129 0.677934
v -0.308932 -0.006789 0.677934
v -0.308932 -0.006789 0.677934
v -0.308932 -0.006789 0.677934
v -0.308931 -0.006789 -0.677934
v -0.308931 -0.006789 -0.677934
v -0.308931 -0.006789 -0.677934
v 0.628569 0.029129 -0.697611
v 0.628569 0.029129 -0.697611
v 0.628569 0.029129 -0.697611
v 0.628569 -0.006789 -0.697611
v 0.628569 -0.006789 -0.697611
v 0.628569 -0.006789 -0.697611
v 0.628568 -0.006789 0.697611
v 0.628568 -0.006789 0.697611
v 0.628568 -0.006789 0.697611
v 0.628568 0.029129 0.697611
v 0.628568 0.029129 0.697611
v 0.628568 0.029129 0.697611
v 0.835044 0.029129 -0.697611
v 0.835044 0.029129 -0.697611
v 0.835044 0.029129 -0.697611
v 0.835043 0.029129 0.697611
v 0.835043 0.029129 0.697611
v 0.835043 0.029129 0.697611
v 0.835043 -0.006789 0.697611
v 0.835043 -0.006789 0.697611
v 0.835043 -0.006789 0.697611
v 0.835044 -0.006789 -0.697611
v 0.835044 -0.006789 -0.697611
v 0.835044 -0.006789 -0.697611
v 0.035858 -0.006789 -0.689425
v 0.035858 -0.006789 -0.689425
v 0.035858 -0.006789 -0.689425
v 0.035858 0.029129 -0.689425
v 0.035858 0.029129 -0.689425
v 0.035858 0.029129 -0.689425
v 0.019674 0.029129 0.691844
v 0.019674 0.029129 0.691844
v 0.019674 0.029129 0.691844
v 0.019674 -0.006789 0.691844
v 0.019674 -0.006789 0.691844
v 0.019674 -0.006789 0.691844
v -0.170603 -0.006789 -0.691844
v -0.170603 -0.006789 -0.691844
v -0.170603 -0.006789 -0.691844
v -0.186787 -0.006789 0.689424
v -0.186787 -0.006789 0.689424
v -0.186787 -0.006789 0.689424
v -0.186787 0.029129 0.689424
v -0.186787 0.029129 0.689424
v -0.186787 0.029129 0.689424
v -0.170603 0.029129 -0.691844
v -0.170603 0.029129 -0.691844
v -0.170603 0.029129 -0.691844
v 0.439606 0.029129 0.675339
v 0.439606 0.029129 0.675339
v 0.439606 0.029129 0.675339
v 0.439606 -0.006789 0.675339
v 0.439606 -0.006789 0.675339
v 0.439606 -0.006789 0.675339
v 0.407963 -0.006789 -0.680159
v 0.407963 -0.006789 -0.680159
v 0.407963 -0.006789 -0.680159
v 0.407963 0.029129 -0.680159
v 0.407963 0.029129 -0.680159
v 0.407963 0.029129 -0.680159
v 0.233187 0.029129 0.680158
v 0.233187 0.029129 0.680158
v 0.233187 0.029129 0.680158
v 0.201544 0.029129 -0.675340
v 0.201544 0.029129 -0.675340
v 0.201544 0.029129 -0.675340
v 0.201544 -0.006789 -0.675340
v 0.201544 -0.006789 -0.675340
v 0.201544 -0.006789 -0.675340
v 0.233187 -0.006789 0.680158
v 0.233187 -0.006789 0.680158
v 0.233187 -0.006789 0.680158
v -0.874614 0.029129 0.006298
v -0.874614 0.029129 0.006298
v -0.874614 0.029129 0.006298
v -0.874614 0.029129 -0.029620
v -0.874614 0.029129 -0.029620
v -0.874614 0.029129 -0.029620
v 0.874614 0.029129 -0.029620
v 0.874614 0.029129 -0.029620
v 0.874614 0.029129 -0.029620
v 0.874614 0.029129 0.006298
v 0.874614 0.029129 0.006298
v 0.874614 0.029129 0.006298
v -0.874614 0.173656 0.006298
v -0.874614 0.173656 0.006298
v -0.874614 0.173656 0.006298
v 0.874614 0.173656 0.006298
v 0.874614 0.173656 0.006298
v 0.874614 0.173656 0.006298
v 0.874614 0.173656 -0.029620
v 0.874614 0.173656 -0.029620
v 0.874614 0.173656 -0.029620
v -0.874614 0.173656 -0.029620
v -0.874614 0.173656 -0.029620
v -0.874614 0.173656 -0.029620
vn -0.0000 -0.0000 1.0000
vn -0.0000 -0.0000 -1.0000
vn 1.0000 -0.0000 -0.0000
vn -0.0000 1.0000 -0.0000
vn -0.9994 -0.0000 0.0354
vn 0.9994 -0.0000 -0.0354
vn -0.0000 -1.0000 -0.0000
vn -1.0000 -0.0000 -0.0000
vn 0.0233 -0.0000 0.9997
vn -0.0233 -0.0000 -0.9997
vn 0.0117 -0.0000 -0.9999
vn -0.0117 -0.0000 0.9999
vn 0.9997 -0.0000 -0.0233
vn -0.9996 -0.0000 -0.0266
vn -0.0266 -0.0000 0.9996
vn 0.9996 -0.0000 0.0266
vn 0.9999 -0.0000 0.0117
vn -0.9999 -0.0000 -0.0117
vn -0.9997 -0.0000 0.0233
vn -0.0354 -0.0000 -0.9994
vn 0.0354 -0.0000 0.9994
vn 0.0266 -0.0000 -0.9996
vt 0.782973 0.574476
vt 0.782973 0.595836
vt 0.619874 0.595836
vt 0.619874 0.574476
vt 0.000980 0.489984
vt 0.999494 0.489984
vt 0.999494 0.574407
vt 0.000980 0.574407
vt 0.619918 0.595875
vt 0.783017 0.595875
vt 0.783017 0.617235
vt 0.619918 0.617235
vt 0.000980 0.001705
vt 0.999494 0.001705
vt 0.999494 0.105508
vt 0.000980 0.105508
vt 0.000925 0.574494
vt 0.999432 0.574494
vt 0.999432 0.596015
vt 0.000925 0.596015
vt 0.999491 0.617449
vt 0.000984 0.617449
vt 0.000984 0.595928
vt 0.999491 0.595928
vt 0.000980 0.404528
vt 0.999494 0.404528
vt 0.999494 0.211924
vt 0.000980 0.211924
vt 0.000980 0.317520
vt 0.999494 0.317520
vt 0.000980 0.317847
vt 0.999494 0.317847
s 0
usemtl Palet
f 140/1/1 138/2/1 131/3/1
f 140/1/1 131/3/1 127/4/1
f 296/5/2 294/6/2 311/7/2
f 296/5/2 311/7/2 307/8/2
f 122/9/2 135/10/2 143/11/2
f 122/9/2 143/11/2 124/12/2
f 300/3/3 297/4/3 309/1/3
f 300/3/3 309/1/3 306/2/3
f 3/13/4 6/14/4 17/15/4
f 3/13/4 17/15/4 14/16/4
f 34/17/5 25/18/5 28/19/5
f 34/17/5 28/19/5 31/20/5
f 45/21/6 48/22/6 39/23/6
f 45/21/6 39/23/6 42/24/6
f 291/25/1 299/26/1 304/6/1
f 291/25/1 304/6/1 302/5/1
f 282/15/4 278/16/4 265/13/4
f 282/15/4 265/13/4 275/14/4
f 303/23/4 305/24/4 308/21/4
f 303/23/4 308/21/4 312/22/4
f 149/15/7 168/27/7 164/28/7
f 149/15/7 164/28/7 151/16/7
f 58/17/7 50/18/7 53/19/7
f 58/17/7 53/19/7 55/20/7
f 63/23/4 65/24/4 68/21/4
f 63/23/4 68/21/4 72/22/4
f 51/29/1 59/30/1 64/26/1
f 51/29/1 64/26/1 62/25/1
f 60/3/3 57/4/3 69/1/3
f 60/3/3 69/1/3 66/2/3
f 56/25/2 54/26/2 71/6/2
f 56/25/2 71/6/2 67/5/2
f 52/12/8 49/9/8 61/10/8
f 52/12/8 61/10/8 70/11/8
f 82/17/7 74/18/7 77/19/7
f 82/17/7 77/19/7 79/20/7
f 87/23/4 89/24/4 92/21/4
f 87/23/4 92/21/4 96/22/4
f 75/25/1 83/26/1 88/6/1
f 75/25/1 88/6/1 86/5/1
f 84/3/3 81/4/3 93/1/3
f 84/3/3 93/1/3 90/2/3
f 80/5/2 78/6/2 95/7/2
f 80/5/2 95/7/2 91/8/2
f 76/12/8 73/9/8 85/10/8
f 76/12/8 85/10/8 94/11/8
f 298/17/7 290/18/7 293/19/7
f 298/17/7 293/19/7 295/20/7
f 4/17/8 1/18/8 7/19/8
f 4/17/8 7/19/8 10/20/8
f 279/10/9 288/11/9 269/12/9
f 279/10/9 269/12/9 266/9/9
f 137/15/7 134/16/7 121/13/7
f 137/15/7 121/13/7 130/14/7
f 281/2/10 274/3/10 271/4/10
f 281/2/10 271/4/10 284/1/10
f 242/9/11 255/10/11 264/11/11
f 242/9/11 264/11/11 245/12/11
f 129/20/3 132/17/3 123/18/3
f 129/20/3 123/18/3 126/19/3
f 133/23/8 136/24/8 139/21/8
f 133/23/8 139/21/8 142/22/8
f 260/1/12 257/2/12 250/3/12
f 260/1/12 250/3/12 247/4/12
f 115/31/7 104/28/7 101/27/7
f 115/31/7 101/27/7 118/32/7
f 276/17/13 267/18/13 270/19/13
f 276/17/13 270/19/13 273/20/13
f 244/15/4 263/27/4 261/28/4
f 244/15/4 261/28/4 248/16/4
f 211/31/7 200/28/7 197/27/7
f 211/31/7 197/27/7 214/32/7
f 163/21/14 166/22/14 157/23/14
f 163/21/14 157/23/14 160/24/14
f 232/2/1 227/3/1 225/4/1
f 232/2/1 225/4/1 236/1/1
f 268/15/7 287/27/7 285/28/7
f 268/15/7 285/28/7 272/16/7
f 24/21/3 21/22/3 15/23/3
f 24/21/3 15/23/3 18/24/3
f 161/15/4 159/16/4 146/13/4
f 161/15/4 146/13/4 154/14/4
f 205/10/2 215/11/2 198/12/2
f 205/10/2 198/12/2 194/9/2
f 106/17/8 97/18/8 100/19/8
f 106/17/8 100/19/8 103/20/8
f 208/2/1 203/3/1 201/4/1
f 208/2/1 201/4/1 212/1/1
f 99/16/4 108/15/4 113/27/4
f 99/16/4 113/27/4 110/28/4
f 213/21/3 216/22/3 207/23/3
f 213/21/3 207/23/3 210/24/3
f 258/15/7 254/16/7 241/13/7
f 258/15/7 241/13/7 251/14/7
f 202/17/8 193/18/8 196/19/8
f 202/17/8 196/19/8 199/20/8
f 226/17/8 217/18/8 220/19/8
f 226/17/8 220/19/8 223/20/8
f 181/10/2 191/11/2 174/12/2
f 181/10/2 174/12/2 170/9/2
f 235/31/7 224/28/7 221/27/7
f 235/31/7 221/27/7 238/32/7
f 184/2/1 179/3/1 177/4/1
f 184/2/1 177/4/1 188/1/1
f 171/13/4 180/14/4 185/15/4
f 171/13/4 185/15/4 182/16/4
f 189/21/3 192/22/3 183/23/3
f 189/21/3 183/23/3 186/24/3
f 178/17/8 169/18/8 172/19/8
f 178/17/8 172/19/8 175/20/8
f 158/10/15 167/11/15 148/12/15
f 158/10/15 148/12/15 145/9/15
f 22/28/7 11/16/7 8/15/7
f 22/28/7 8/15/7 19/27/7
f 292/12/8 289/9/8 301/10/8
f 292/12/8 301/10/8 310/11/8
f 187/28/7 176/16/7 173/15/7
f 187/28/7 173/15/7 190/27/7
f 156/17/16 147/18/16 150/19/16
f 156/17/16 150/19/16 153/20/16
f 229/10/2 239/11/2 222/12/2
f 229/10/2 222/12/2 218/9/2
f 249/20/17 252/17/17 243/18/17
f 249/20/17 243/18/17 246/19/17
f 125/15/4 144/27/4 141/28/4
f 125/15/4 141/28/4 128/16/4
f 253/23/18 256/24/18 259/21/18
f 253/23/18 259/21/18 262/22/18
f 27/16/4 35/15/4 40/27/4
f 27/16/4 40/27/4 38/28/4
f 195/16/4 204/15/4 209/27/4
f 195/16/4 209/27/4 206/28/4
f 283/21/19 286/22/19 277/23/19
f 283/21/19 277/23/19 280/24/19
f 219/16/4 228/15/4 233/27/4
f 219/16/4 233/27/4 230/28/4
f 43/31/7 32/28/7 30/27/7
f 43/31/7 30/27/7 47/32/7
f 109/10/2 119/11/2 102/12/2
f 109/10/2 102/12/2 98/9/2
f 112/2/1 107/3/1 105/4/1
f 112/2/1 105/4/1 116/1/1
f 117/21/3 120/22/3 111/23/3
f 117/21/3 111/23/3 114/24/3
f 37/10/20 46/11/20 29/12/20
f 37/10/20 29/12/20 26/9/20
f 41/2/21 36/3/21 33/4/21
f 41/2/21 33/4/21 44/1/21
f 13/10/2 20/11/2 9/12/2
f 13/10/2 9/12/2 2/9/2
f 16/2/1 5/3/1 12/4/1
f 16/2/1 12/4/1 23/1/1
f 237/21/3 240/22/3 231/23/3
f 237/21/3 231/23/3 234/24/3
f 162/2/22 155/3/22 152/4/22
f 162/2/22 152/4/22 165/1/22
