# Blender 4.0.2
# www.blender.org
mtllib Pipes_D_Long.mtl
o Pipes_vertical_long
v 0.542845 -1.161327 0.515153
v 0.542845 -1.161327 0.515153
v 0.542845 -1.161327 0.515153
v 0.542845 -1.161327 0.515153
v 0.542846 -1.046087 0.515153
v 0.542846 -1.046087 0.515153
v 0.542846 -1.046087 0.515153
v 0.542846 -1.046087 0.515153
v -0.542845 -1.046086 0.515151
v -0.542845 -1.046086 0.515151
v -0.542845 -1.046086 0.515151
v -0.542845 -1.046086 0.515151
v -0.542845 -1.161325 0.515151
v -0.542845 -1.161325 0.515151
v -0.542845 -1.161325 0.515151
v -0.542845 -1.161325 0.515151
v -0.542846 -1.161324 -0.515153
v -0.542846 -1.161324 -0.515153
v -0.542846 -1.161324 -0.515153
v -0.542846 -1.161324 -0.515153
v -0.542846 -1.046085 -0.515153
v -0.542846 -1.046085 -0.515153
v -0.542846 -1.046085 -0.515153
v -0.542846 -1.046085 -0.515153
v 0.542845 -1.046086 -0.515151
v 0.542845 -1.046086 -0.515151
v 0.542845 -1.046086 -0.515151
v 0.542845 -1.046086 -0.515151
v 0.542844 -1.161326 -0.515151
v 0.542844 -1.161326 -0.515151
v 0.542844 -1.161326 -0.515151
v 0.542844 -1.161326 -0.515151
v 0.483781 -2.291957 -0.014510
v 0.382256 -2.291957 -0.259613
v 0.137152 -2.291957 -0.361138
v -0.107951 -2.291957 -0.259613
v -0.209476 -2.291957 -0.014510
v -0.209476 -2.291957 -0.014510
v -0.107951 -2.291957 0.230594
v 0.137152 -2.291957 0.332119
v 0.382256 -2.291957 0.230594
v -0.267667 -2.291957 -0.355718
v -0.344777 -2.291957 -0.461851
v -0.344777 -0.000000 -0.461851
v -0.344777 -0.000000 -0.461851
v -0.267667 -0.000000 -0.355718
v -0.267667 -0.000000 -0.355718
v -0.469543 -2.291957 -0.421312
v -0.469543 -0.000000 -0.421312
v -0.469543 -0.000000 -0.421312
v -0.469543 -2.291957 -0.290124
v -0.469543 -0.000000 -0.290124
v -0.469543 -0.000000 -0.290124
v -0.344777 -2.291957 -0.249585
v -0.344777 -2.291957 -0.249585
v -0.344777 -0.000000 -0.249585
v -0.344777 -0.000000 -0.249585
v -0.344777 -0.000000 -0.249585
v -0.344777 -0.000000 -0.249585
v 0.478387 -1.161327 0.451099
v 0.478387 -1.161327 0.451099
v 0.478387 -1.161327 0.451099
v 0.478387 -1.161327 0.451099
v 0.478386 -1.161326 -0.451097
v 0.478386 -1.161326 -0.451097
v 0.478386 -1.161326 -0.451097
v 0.478386 -1.161326 -0.451097
v -0.478387 -1.161326 0.451097
v -0.478387 -1.161326 0.451097
v -0.478387 -1.161326 0.451097
v -0.478387 -1.161326 0.451097
v 0.478387 -1.046086 -0.451098
v 0.478387 -1.046086 -0.451098
v 0.478387 -1.046086 -0.451098
v 0.478387 -1.046086 -0.451098
v 0.478388 -1.046087 0.451099
v 0.478388 -1.046087 0.451099
v 0.478388 -1.046087 0.451099
v 0.478388 -1.046087 0.451099
v -0.478387 -1.046085 -0.451099
v -0.478387 -1.046085 -0.451099
v -0.478387 -1.046085 -0.451099
v -0.478387 -1.046085 -0.451099
v -0.478388 -1.161325 -0.451099
v -0.478388 -1.161325 -0.451099
v -0.478388 -1.161325 -0.451099
v -0.478388 -1.161325 -0.451099
v -0.478386 -1.046086 0.451096
v -0.478386 -1.046086 0.451096
v -0.478386 -1.046086 0.451096
v -0.478386 -1.046086 0.451096
v -0.202265 -1.161325 -0.451099
v -0.202265 -1.161325 -0.451099
v -0.202264 -1.046085 -0.451099
v -0.202264 -1.046085 -0.451099
v -0.202264 -1.046086 0.451096
v -0.202264 -1.046086 0.451096
v -0.202264 -1.161326 0.451097
v -0.202264 -1.161326 0.451097
v -0.266723 -1.161324 -0.451099
v -0.266723 -1.161324 -0.451099
v -0.266722 -1.161325 0.451097
v -0.266722 -1.161325 0.451097
v -0.266721 -1.046086 0.451097
v -0.266721 -1.046086 0.451097
v -0.266722 -1.046085 -0.451099
v -0.266722 -1.046085 -0.451099
v 0.542845 1.130630 0.515153
v 0.542845 1.130630 0.515153
v 0.542845 1.130630 0.515153
v 0.542845 1.130630 0.515153
v 0.542846 1.245869 0.515153
v 0.542846 1.245869 0.515153
v 0.542846 1.245869 0.515153
v 0.542846 1.245869 0.515153
v -0.542845 1.245870 0.515151
v -0.542845 1.245870 0.515151
v -0.542845 1.245870 0.515151
v -0.542845 1.245870 0.515151
v -0.542845 1.130631 0.515151
v -0.542845 1.130631 0.515151
v -0.542845 1.130631 0.515151
v -0.542845 1.130631 0.515151
v -0.542846 1.130632 -0.515153
v -0.542846 1.130632 -0.515153
v -0.542846 1.130632 -0.515153
v -0.542846 1.130632 -0.515153
v -0.542846 1.245872 -0.515153
v -0.542846 1.245872 -0.515153
v -0.542846 1.245872 -0.515153
v -0.542846 1.245872 -0.515153
v 0.542845 1.245870 -0.515152
v 0.542845 1.245870 -0.515152
v 0.542845 1.245870 -0.515152
v 0.542845 1.245870 -0.515152
v 0.542844 1.130631 -0.515152
v 0.542844 1.130631 -0.515152
v 0.542844 1.130631 -0.515152
v 0.542844 1.130631 -0.515152
v 0.382256 2.291956 -0.259613
v 0.483781 2.291956 -0.014510
v 0.137152 2.291956 -0.361139
v -0.107951 2.291956 -0.259613
v -0.209476 2.291956 -0.014510
v -0.209476 2.291956 -0.014510
v -0.107951 2.291956 0.230594
v 0.137152 2.291956 0.332119
v 0.382256 2.291956 0.230594
v -0.344777 2.291956 -0.461851
v -0.267667 2.291956 -0.355718
v -0.469543 2.291956 -0.421312
v -0.469543 2.291956 -0.290124
v -0.344777 2.291956 -0.249585
v -0.344777 2.291956 -0.249585
v 0.478387 1.130630 0.451099
v 0.478387 1.130630 0.451099
v 0.478387 1.130630 0.451099
v 0.478387 1.130630 0.451099
v 0.478386 1.130631 -0.451097
v 0.478386 1.130631 -0.451097
v 0.478386 1.130631 -0.451097
v 0.478386 1.130631 -0.451097
v -0.478387 1.130631 0.451097
v -0.478387 1.130631 0.451097
v -0.478387 1.130631 0.451097
v -0.478387 1.130631 0.451097
v 0.478387 1.245870 -0.451098
v 0.478387 1.245870 -0.451098
v 0.478387 1.245870 -0.451098
v 0.478387 1.245870 -0.451098
v 0.478388 1.245869 0.451099
v 0.478388 1.245869 0.451099
v 0.478388 1.245869 0.451099
v 0.478388 1.245869 0.451099
v -0.478387 1.245871 -0.451099
v -0.478387 1.245871 -0.451099
v -0.478387 1.245871 -0.451099
v -0.478387 1.245871 -0.451099
v -0.478388 1.130632 -0.451100
v -0.478388 1.130632 -0.451100
v -0.478388 1.130632 -0.451100
v -0.478388 1.130632 -0.451100
v -0.478386 1.245870 0.451096
v -0.478386 1.245870 0.451096
v -0.478386 1.245870 0.451096
v -0.478386 1.245870 0.451096
v -0.202265 1.130632 -0.451100
v -0.202265 1.130632 -0.451100
v -0.202264 1.245871 -0.451099
v -0.202264 1.245871 -0.451099
v -0.202264 1.245870 0.451096
v -0.202264 1.245870 0.451096
v -0.202264 1.130631 0.451097
v -0.202264 1.130631 0.451097
v -0.266723 1.130632 -0.451099
v -0.266723 1.130632 -0.451099
v -0.266722 1.130631 0.451097
v -0.266722 1.130631 0.451097
v -0.266721 1.245870 0.451097
v -0.266721 1.245870 0.451097
v -0.266722 1.245871 -0.451099
v -0.266722 1.245871 -0.451099
vn -0.0000 -0.0000 1.0000
vn -1.0000 -0.0000 -0.0000
vn 1.0000 -0.0000 -0.0000
vn 0.7071 -0.0000 -0.7071
vn -0.0000 -0.0000 -1.0000
vn -0.7071 -0.0000 -0.7071
vn -0.7071 -0.0000 0.7071
vn 0.7071 -0.0000 0.7071
vn 0.3090 -0.0000 -0.9511
vn -0.8090 -0.0000 -0.5878
vn -0.8090 -0.0000 0.5878
vn 0.3090 -0.0000 0.9511
vn -0.0000 -1.0000 -0.0000
vn -0.0000 1.0000 -0.0000
vn 0.3090 -0.0002 0.9511
vt 0.997518 0.393680
vt 0.936815 0.393680
vt 0.936815 0.002179
vt 0.997517 0.002179
vt 0.879234 0.393680
vt 0.879234 0.002347
vt 0.936815 0.002347
vt 0.818438 0.002346
vt 0.879234 0.002346
vt 0.818438 0.393680
vt 0.606877 0.002725
vt 0.657751 0.002725
vt 0.657751 0.998925
vt 0.606877 0.998925
vt 0.708626 0.002725
vt 0.708626 0.998925
vt 0.759501 0.002725
vt 0.759501 0.998925
vt 0.810375 0.002725
vt 0.810375 0.998925
vt 0.403378 0.002725
vt 0.454253 0.002725
vt 0.454253 0.998925
vt 0.403378 0.998925
vt 0.505127 0.002725
vt 0.505127 0.998925
vt 0.556002 0.002725
vt 0.556002 0.998925
vt 0.025106 0.474971
vt 0.048096 0.474971
vt 0.048096 0.998109
vt 0.025106 0.998109
vt 0.071085 0.474971
vt 0.071085 0.998109
vt 0.094075 0.474971
vt 0.094074 0.998109
vt 0.117064 0.474971
vt 0.117064 0.998109
vt 0.002117 0.474971
vt 0.002117 0.998109
vt 0.963671 0.369417
vt 0.963671 0.026442
vt 0.852337 0.369275
vt 0.852337 0.026752
vt 0.963671 0.026442
vt 0.963671 0.369417
vt 0.845335 0.026752
vt 0.845335 0.369274
vt 0.845335 0.026752
vt 0.845335 0.369274
vt 0.970662 0.026442
vt 0.970662 0.369417
vt 0.970662 0.026442
vt 0.970662 0.369417
vt 0.852337 0.026752
vt 0.852337 0.369275
vt 0.936815 0.369351
vt 0.879234 0.369351
vt 0.879234 0.026676
vt 0.936815 0.026676
vt 0.936815 0.026519
vt 0.936815 0.369341
vt 0.936815 0.026519
vt 0.936815 0.369341
s 0
usemtl Pipes
f 3/1/1 5/2/1 10/3/1
f 3/1/1 10/3/1 16/4/1
f 13/2/2 9/5/2 21/6/2
f 13/2/2 21/6/2 17/7/2
f 8/8/3 4/9/3 32/5/3
f 8/8/3 32/5/3 28/10/3
s 1
f 33/11/3 34/12/4 140/13/4
f 33/11/3 140/13/4 141/14/3
f 34/12/4 35/15/5 142/16/5
f 34/12/4 142/16/5 140/13/4
f 35/15/5 36/17/6 143/18/6
f 35/15/5 143/18/6 142/16/5
f 36/17/6 38/19/2 145/20/2
f 36/17/6 145/20/2 143/18/6
f 37/21/2 39/22/7 146/23/7
f 37/21/2 146/23/7 144/24/2
f 39/22/7 40/25/1 147/26/1
f 39/22/7 147/26/1 146/23/7
f 40/25/1 41/27/8 148/28/8
f 40/25/1 148/28/8 147/26/1
f 41/27/8 33/11/3 141/14/3
f 41/27/8 141/14/3 148/28/8
f 42/29/3 43/30/9 44/31/9
f 42/29/3 44/31/9 46/32/3
f 43/30/9 48/33/10 49/34/10
f 43/30/9 49/34/10 44/31/9
f 48/33/10 51/35/11 52/36/11
f 48/33/10 52/36/11 49/34/10
f 51/35/11 55/37/12 58/38/12
f 51/35/11 58/38/12 52/36/11
f 54/39/12 42/29/3 46/32/3
f 54/39/12 46/32/3 57/40/12
s 0
f 31/1/5 20/4/5 22/3/5
f 31/1/5 22/3/5 25/2/5
f 62/41/13 66/42/13 30/4/13
f 62/41/13 30/4/13 2/1/13
f 68/43/13 61/44/13 1/8/13
f 68/43/13 1/8/13 14/10/13
f 27/4/14 75/45/14 79/46/14
f 27/4/14 79/46/14 7/1/14
f 74/47/14 26/9/14 23/5/14
f 74/47/14 23/5/14 81/48/14
f 29/9/13 65/49/13 84/50/13
f 29/9/13 84/50/13 18/5/13
f 82/51/14 24/3/14 12/2/14
f 82/51/14 12/2/14 90/52/14
f 19/3/13 85/53/13 69/54/13
f 19/3/13 69/54/13 15/2/13
f 6/8/14 78/55/14 89/56/14
f 6/8/14 89/56/14 11/10/14
f 63/1/5 70/4/5 88/3/5
f 63/1/5 88/3/5 77/2/5
f 83/6/3 91/5/3 71/2/3
f 83/6/3 71/2/3 87/7/3
f 64/5/2 60/9/2 76/8/2
f 64/5/2 76/8/2 72/10/2
f 67/1/1 73/2/1 80/3/1
f 67/1/1 80/3/1 86/4/1
f 95/6/3 97/5/3 99/2/3
f 95/6/3 99/2/3 93/7/3
f 102/57/2 104/58/2 106/59/2
f 102/57/2 106/59/2 100/60/2
f 94/51/14 107/61/14 105/62/14
f 94/51/14 105/62/14 96/52/14
f 101/63/13 92/53/13 98/54/13
f 101/63/13 98/54/13 103/64/13
f 110/1/1 112/2/1 117/3/1
f 110/1/1 117/3/1 123/4/1
f 120/2/2 116/5/2 128/6/2
f 120/2/2 128/6/2 124/7/2
f 115/8/3 111/9/3 139/5/3
f 115/8/3 139/5/3 135/10/3
s 1
f 47/29/3 45/30/9 149/31/9
f 47/29/3 149/31/9 150/32/3
f 45/30/9 50/33/10 151/34/10
f 45/30/9 151/34/10 149/31/9
f 50/33/10 53/35/11 152/36/11
f 50/33/10 152/36/11 151/34/10
f 53/35/11 59/37/12 154/38/15
f 53/35/11 154/38/15 152/36/11
f 56/39/12 47/29/3 150/32/3
f 56/39/12 150/32/3 153/40/12
s 0
f 138/1/5 127/4/5 129/3/5
f 138/1/5 129/3/5 132/2/5
f 157/41/13 161/42/13 137/4/13
f 157/41/13 137/4/13 109/1/13
f 163/43/13 156/44/13 108/8/13
f 163/43/13 108/8/13 121/10/13
f 134/4/14 170/45/14 174/46/14
f 134/4/14 174/46/14 114/1/14
f 169/47/14 133/9/14 130/5/14
f 169/47/14 130/5/14 176/48/14
f 136/9/13 160/49/13 179/50/13
f 136/9/13 179/50/13 125/5/13
f 177/51/14 131/3/14 119/2/14
f 177/51/14 119/2/14 185/52/14
f 126/3/13 180/53/13 164/54/13
f 126/3/13 164/54/13 122/2/13
f 113/8/14 173/55/14 184/56/14
f 113/8/14 184/56/14 118/10/14
f 158/1/5 165/4/5 183/3/5
f 158/1/5 183/3/5 172/2/5
f 178/6/3 186/5/3 166/2/3
f 178/6/3 166/2/3 182/7/3
f 159/5/2 155/9/2 171/8/2
f 159/5/2 171/8/2 167/10/2
f 162/1/1 168/2/1 175/3/1
f 162/1/1 175/3/1 181/4/1
f 190/6/3 192/5/3 194/2/3
f 190/6/3 194/2/3 188/7/3
f 197/57/2 199/58/2 201/59/2
f 197/57/2 201/59/2 195/60/2
f 189/51/14 202/61/14 200/62/14
f 189/51/14 200/62/14 191/52/14
f 196/63/13 187/53/13 193/54/13
f 196/63/13 193/54/13 198/64/13
