# Blender 4.0.2
# www.blender.org
mtllib Pipes_D_Short.mtl
o Pipes_vertical_short
v -0.542846 0.099894 -0.515153
v -0.542846 0.099894 -0.515153
v -0.542846 0.099894 -0.515153
v -0.542846 0.099894 -0.515153
v -0.542846 -0.015346 -0.515153
v -0.542846 -0.015346 -0.515153
v -0.542846 -0.015346 -0.515153
v -0.542846 -0.015346 -0.515153
v 0.542844 0.099892 -0.515152
v 0.542844 0.099892 -0.515152
v 0.542844 0.099892 -0.515152
v 0.542844 0.099892 -0.515152
v -0.542845 0.099893 0.515151
v -0.542845 0.099893 0.515151
v -0.542845 0.099893 0.515151
v -0.542845 0.099893 0.515151
v 0.483781 -1.145978 -0.014510
v 0.382255 -1.145978 -0.259613
v 0.137152 -1.145978 -0.361138
v -0.107952 -1.145978 -0.259613
v -0.209476 -1.145978 -0.014510
v -0.209476 -1.145978 -0.014510
v -0.107952 -1.145978 0.230594
v 0.137152 -1.145978 0.332119
v 0.382255 -1.145978 0.230594
v 0.483781 1.145978 -0.014510
v 0.382255 1.145978 -0.259613
v 0.137152 1.145978 -0.361139
v -0.107952 1.145978 -0.259613
v -0.209476 1.145978 -0.014510
v -0.209476 1.145978 -0.014510
v -0.107952 1.145978 0.230594
v 0.137152 1.145978 0.332119
v 0.382255 1.145978 0.230594
v -0.267667 -1.145978 -0.355718
v -0.344777 -1.145978 -0.461851
v -0.469543 -1.145978 -0.421312
v -0.469543 -1.145978 -0.290124
v -0.344777 -1.145978 -0.249585
v -0.344777 -1.145978 -0.249585
v -0.267667 1.145978 -0.355718
v -0.344777 1.145978 -0.461851
v -0.469543 1.145978 -0.421312
v -0.469543 1.145978 -0.290124
v -0.344777 1.145978 -0.249585
v -0.344777 1.145978 -0.249585
v 0.542844 -0.015347 -0.515151
v 0.542844 -0.015347 -0.515151
v 0.542844 -0.015347 -0.515151
v 0.542844 -0.015347 -0.515151
v 0.542845 0.099891 0.515153
v 0.542845 0.099891 0.515153
v 0.542845 0.099891 0.515153
v 0.542845 0.099891 0.515153
v -0.542845 -0.015347 0.515151
v -0.542845 -0.015347 0.515151
v -0.542845 -0.015347 0.515151
v -0.542845 -0.015347 0.515151
v 0.542845 -0.015348 0.515153
v 0.542845 -0.015348 0.515153
v 0.542845 -0.015348 0.515153
v 0.542845 -0.015348 0.515153
v -0.478387 0.099893 -0.451099
v -0.478387 0.099893 -0.451099
v -0.478387 0.099893 -0.451099
v -0.478387 0.099893 -0.451099
v -0.478388 -0.015346 -0.451099
v -0.478388 -0.015346 -0.451099
v -0.478388 -0.015346 -0.451099
v -0.478388 -0.015346 -0.451099
v 0.478388 0.099891 0.451099
v 0.478388 0.099891 0.451099
v 0.478388 0.099891 0.451099
v 0.478388 0.099891 0.451099
v 0.478387 -0.015348 0.451099
v 0.478387 -0.015348 0.451099
v 0.478387 -0.015348 0.451099
v 0.478387 -0.015348 0.451099
v -0.478387 0.099893 0.451096
v -0.478387 0.099893 0.451096
v -0.478387 0.099893 0.451096
v -0.478387 0.099893 0.451096
v 0.478386 -0.015348 -0.451097
v 0.478386 -0.015348 -0.451097
v 0.478386 -0.015348 -0.451097
v 0.478386 -0.015348 -0.451097
v -0.478387 -0.015347 0.451097
v -0.478387 -0.015347 0.451097
v -0.478387 -0.015347 0.451097
v -0.478387 -0.015347 0.451097
v 0.478386 0.099892 -0.451098
v 0.478386 0.099892 -0.451098
v 0.478386 0.099892 -0.451098
v 0.478386 0.099892 -0.451098
v -0.202264 0.099893 0.451096
v -0.202264 0.099893 0.451096
v -0.202265 0.099893 -0.451099
v -0.202265 0.099893 -0.451099
v -0.202265 -0.015346 -0.451099
v -0.202265 -0.015346 -0.451099
v -0.202264 -0.015347 0.451097
v -0.202264 -0.015347 0.451097
v -0.266723 -0.015346 -0.451099
v -0.266723 -0.015346 -0.451099
v -0.266723 0.099893 -0.451099
v -0.266723 0.099893 -0.451099
v -0.266722 0.099893 0.451097
v -0.266722 0.099893 0.451097
v -0.266722 -0.015347 0.451097
v -0.266722 -0.015347 0.451097
vn -0.0000 -0.0000 1.0000
vn -1.0000 -0.0000 -0.0000
vn 1.0000 -0.0000 -0.0000
vn 0.7071 -0.0000 -0.7071
vn -0.0000 -0.0000 -1.0000
vn -0.7071 -0.0000 -0.7071
vn -0.7071 -0.0000 0.7071
vn 0.7071 -0.0000 0.7071
vn 0.3090 -0.0000 -0.9511
vn -0.8090 -0.0000 -0.5878
vn -0.8090 -0.0000 0.5878
vn 0.3090 -0.0000 0.9511
vn -0.0000 -1.0000 -0.0000
vn -0.0000 1.0000 -0.0000
vt 0.997518 0.393680
vt 0.936815 0.393680
vt 0.936815 0.002179
vt 0.997517 0.002179
vt 0.879234 0.393680
vt 0.879234 0.002347
vt 0.936815 0.002347
vt 0.818438 0.002346
vt 0.879234 0.002346
vt 0.818438 0.393680
vt 0.608252 0.500319
vt 0.659127 0.500319
vt 0.659127 0.998419
vt 0.608252 0.998419
vt 0.710001 0.500319
vt 0.710001 0.998419
vt 0.760876 0.500319
vt 0.760876 0.998419
vt 0.811751 0.500319
vt 0.811751 0.998419
vt 0.404753 0.500319
vt 0.455628 0.500319
vt 0.455628 0.998419
vt 0.404753 0.998419
vt 0.506503 0.500319
vt 0.506503 0.998419
vt 0.557377 0.500319
vt 0.557377 0.998419
vt 0.025106 0.474971
vt 0.048096 0.474971
vt 0.048096 0.998109
vt 0.025106 0.998109
vt 0.071085 0.474971
vt 0.071085 0.998109
vt 0.094075 0.474971
vt 0.094074 0.998109
vt 0.117064 0.474971
vt 0.117064 0.998109
vt 0.002117 0.474971
vt 0.002117 0.998109
vt 0.963671 0.369417
vt 0.963671 0.026442
vt 0.852337 0.369275
vt 0.852337 0.026752
vt 0.963671 0.026442
vt 0.963671 0.369417
vt 0.845335 0.026752
vt 0.845335 0.369274
vt 0.845335 0.026752
vt 0.845335 0.369274
vt 0.970662 0.026442
vt 0.970662 0.369417
vt 0.970662 0.026442
vt 0.970662 0.369417
vt 0.852337 0.026752
vt 0.852337 0.369275
vt 0.936815 0.369351
vt 0.879234 0.369351
vt 0.879234 0.026676
vt 0.936815 0.026676
vt 0.936815 0.026519
vt 0.936815 0.369341
vt 0.936815 0.026519
vt 0.936815 0.369341
s 0
usemtl Pipes
f 61/1/1 51/2/1 14/3/1
f 61/1/1 14/3/1 58/4/1
f 55/2/2 13/5/2 1/6/2
f 55/2/2 1/6/2 5/7/2
f 54/8/3 62/9/3 50/5/3
f 54/8/3 50/5/3 12/10/3
s 1
f 17/11/3 18/12/4 27/13/4
f 17/11/3 27/13/4 26/14/3
f 18/12/4 19/15/5 28/16/5
f 18/12/4 28/16/5 27/13/4
f 19/15/5 20/17/6 29/18/6
f 19/15/5 29/18/6 28/16/5
f 20/17/6 22/19/2 31/20/2
f 20/17/6 31/20/2 29/18/6
f 21/21/2 23/22/7 32/23/7
f 21/21/2 32/23/7 30/24/2
f 23/22/7 24/25/1 33/26/1
f 23/22/7 33/26/1 32/23/7
f 24/25/1 25/27/8 34/28/8
f 24/25/1 34/28/8 33/26/1
f 25/27/8 17/11/3 26/14/3
f 25/27/8 26/14/3 34/28/8
f 35/29/3 36/30/9 42/31/9
f 35/29/3 42/31/9 41/32/3
f 36/30/9 37/33/10 43/34/10
f 36/30/9 43/34/10 42/31/9
f 37/33/10 38/35/11 44/36/11
f 37/33/10 44/36/11 43/34/10
f 38/35/11 40/37/12 46/38/12
f 38/35/11 46/38/12 44/36/11
f 39/39/12 35/29/3 41/32/3
f 39/39/12 41/32/3 45/40/12
s 0
f 49/1/5 8/4/5 2/3/5
f 49/1/5 2/3/5 9/2/5
f 77/41/13 85/42/13 48/4/13
f 77/41/13 48/4/13 60/1/13
f 87/43/13 76/44/13 59/8/13
f 87/43/13 59/8/13 56/10/13
f 11/4/14 94/45/14 74/46/14
f 11/4/14 74/46/14 53/1/14
f 93/47/14 10/9/14 3/5/14
f 93/47/14 3/5/14 64/48/14
f 47/9/13 84/49/13 67/50/13
f 47/9/13 67/50/13 6/5/13
f 65/51/14 4/3/14 16/2/14
f 65/51/14 16/2/14 81/52/14
f 7/3/13 68/53/13 88/54/13
f 7/3/13 88/54/13 57/2/13
f 52/8/14 73/55/14 80/56/14
f 52/8/14 80/56/14 15/10/14
f 78/1/5 89/4/5 79/3/5
f 78/1/5 79/3/5 72/2/5
f 66/6/3 82/5/3 90/2/3
f 66/6/3 90/2/3 70/7/3
f 83/5/2 75/9/2 71/8/2
f 83/5/2 71/8/2 91/10/2
f 86/1/1 92/2/1 63/3/1
f 86/1/1 63/3/1 69/4/1
f 98/6/3 96/5/3 102/2/3
f 98/6/3 102/2/3 100/7/3
f 109/57/2 107/58/2 105/59/2
f 109/57/2 105/59/2 103/60/2
f 97/51/14 106/61/14 108/62/14
f 97/51/14 108/62/14 95/52/14
f 104/63/13 99/53/13 101/54/13
f 104/63/13 101/54/13 110/64/13
