# Blender 4.0.2
# www.blender.org
mtllib Road_Curve_Large.mtl
o Road_turn_2
v -0.000001 0.091820 10.000000
v -10.000002 0.091819 -10.000000
v 10.000000 0.091820 9.999996
v -9.999998 0.091819 -1.530009
v -9.999998 0.091819 -1.530009
v 8.469986 0.091820 9.999996
v 8.469986 0.091820 9.999996
v -10.000002 0.091819 -8.469987
v -10.000002 0.091819 -8.469987
v 1.530010 0.091820 9.999999
v 1.530010 0.091820 9.999999
v 8.469986 -0.091818 9.999996
v 8.469986 -0.091818 9.999996
v -10.000002 -0.091819 -8.469987
v -10.000002 -0.091819 -8.469987
v -9.999998 -0.091819 -1.530009
v -9.999998 -0.091819 -1.530009
v 1.530010 -0.091818 9.999999
v 1.530010 -0.091818 9.999999
v 9.929544 0.091820 8.168169
v 9.250866 0.091819 4.537569
v 7.916625 0.091819 1.093496
v 7.017029 0.091819 -0.521585
v 5.972252 0.091819 -2.046769
v 4.791204 0.091819 -3.469049
v 3.483965 0.091819 -4.776289
v 2.061683 0.091819 -5.957335
v 0.536498 0.091819 -7.002111
v -1.078585 0.091819 -7.901704
v -2.769778 0.091819 -8.648439
v -4.522659 0.091819 -9.235945
v -6.322270 0.091819 -9.659208
v -8.153259 0.091819 -9.914619
v -9.075937 0.091819 0.042723
v -8.159761 0.091819 0.170524
v -6.382191 0.091819 0.676284
v -3.252989 0.091819 2.613802
v -1.035007 0.091819 5.550882
v -0.661361 0.091819 6.397108
v -0.367388 0.091819 7.274202
v -0.155598 0.091819 8.174677
v -0.027796 0.091819 9.090857
v 8.406059 0.091819 8.309342
v 8.406059 0.091819 8.309342
v 8.406059 0.091819 8.309342
v 8.170172 0.091819 6.618318
v 8.170172 0.091819 6.618318
v 8.170172 0.091819 6.618318
v 7.779263 0.091819 4.956278
v 7.779263 0.091819 4.956278
v 7.779263 0.091819 4.956278
v 7.236666 0.091819 3.337393
v 7.236666 0.091819 3.337393
v 7.236666 0.091819 3.337393
v 6.547015 0.091819 1.775482
v 6.547015 0.091819 1.775482
v 6.547015 0.091819 1.775482
v 5.716187 0.091819 0.283864
v 5.716187 0.091819 0.283864
v 5.716187 0.091819 0.283864
v 4.751276 0.091819 -1.124731
v 4.751276 0.091819 -1.124731
v 4.751276 0.091819 -1.124731
v 3.660512 0.091819 -2.438287
v 3.660512 0.091819 -2.438287
v 3.660512 0.091819 -2.438287
v 2.453203 0.091818 -3.645596
v 2.453203 0.091818 -3.645596
v 2.453203 0.091818 -3.645596
v 1.139646 0.091818 -4.736359
v 1.139646 0.091818 -4.736359
v 1.139646 0.091818 -4.736359
v -0.268951 0.091818 -5.701269
v -0.268951 0.091818 -5.701269
v -0.268951 0.091818 -5.701269
v -1.760569 0.091818 -6.532094
v -1.760569 0.091818 -6.532094
v -1.760569 0.091818 -6.532094
v -3.322481 0.091818 -7.221745
v -3.322481 0.091818 -7.221745
v -3.322481 0.091818 -7.221745
v -4.941366 0.091818 -7.764340
v -4.941366 0.091818 -7.764340
v -4.941366 0.091818 -7.764340
v -6.603408 0.091819 -8.155248
v -6.603408 0.091819 -8.155248
v -6.603408 0.091819 -8.155248
v -8.294430 0.091819 -8.391134
v -8.294430 0.091819 -8.391134
v -8.294430 0.091819 -8.391134
v -8.934767 0.091819 -1.480761
v -8.934767 0.091819 -1.480761
v -8.934767 0.091819 -1.480761
v -7.878623 0.091819 -1.333436
v -7.878623 0.091819 -1.333436
v -7.878623 0.091819 -1.333436
v -6.840578 0.091819 -1.089291
v -6.840578 0.091819 -1.089291
v -6.840578 0.091819 -1.089291
v -5.829488 0.091819 -0.750408
v -5.829488 0.091819 -0.750408
v -5.829488 0.091819 -0.750408
v -4.853980 0.091819 -0.319680
v -4.853980 0.091819 -0.319680
v -4.853980 0.091819 -0.319680
v -3.922375 0.091819 0.199220
v -3.922375 0.091819 0.199220
v -3.922375 0.091819 0.199220
v -3.042622 0.091819 0.801864
v -3.042622 0.091819 0.801864
v -3.042622 0.091819 0.801864
v -2.222228 0.091819 1.483110
v -2.222228 0.091819 1.483110
v -2.222228 0.091819 1.483110
v -1.468190 0.091819 2.237147
v -1.468190 0.091819 2.237147
v -1.468190 0.091819 2.237147
v -0.786942 0.091819 3.057542
v -0.786942 0.091819 3.057542
v -0.786942 0.091819 3.057542
v -0.184298 0.091819 3.937293
v -0.184298 0.091819 3.937293
v -0.184298 0.091819 3.937293
v 0.334603 0.091819 4.868898
v 0.334603 0.091819 4.868898
v 0.334603 0.091819 4.868898
v 0.765332 0.091819 5.844405
v 0.765332 0.091819 5.844405
v 0.765332 0.091819 5.844405
v 1.104216 0.091819 6.855495
v 1.104216 0.091819 6.855495
v 1.104216 0.091819 6.855495
v 1.348361 0.091819 7.893538
v 1.348361 0.091819 7.893538
v 1.348361 0.091819 7.893538
v 1.495688 0.091819 8.949684
v 1.495688 0.091819 8.949684
v 1.495688 0.091819 8.949684
v 8.406059 -0.091819 8.309338
v 8.406059 -0.091819 8.309338
v 8.406059 -0.091819 8.309338
v 8.170172 -0.091819 6.618318
v 8.170172 -0.091819 6.618318
v 8.170172 -0.091819 6.618318
v 7.779263 -0.091819 4.956278
v 7.779263 -0.091819 4.956278
v 7.779263 -0.091819 4.956278
v 7.236666 -0.091819 3.337393
v 7.236666 -0.091819 3.337393
v 7.236666 -0.091819 3.337393
v 6.547015 -0.091819 1.775482
v 6.547015 -0.091819 1.775482
v 6.547015 -0.091819 1.775482
v 5.716187 -0.091819 0.283864
v 5.716187 -0.091819 0.283864
v 5.716187 -0.091819 0.283864
v 4.751277 -0.091820 -1.124730
v 4.751277 -0.091820 -1.124730
v 4.751277 -0.091820 -1.124730
v 3.660513 -0.091820 -2.438287
v 3.660513 -0.091820 -2.438287
v 3.660513 -0.091820 -2.438287
v 2.453204 -0.091820 -3.645596
v 2.453204 -0.091820 -3.645596
v 2.453204 -0.091820 -3.645596
v 1.139646 -0.091820 -4.736359
v 1.139646 -0.091820 -4.736359
v 1.139646 -0.091820 -4.736359
v -0.268949 -0.091820 -5.701269
v -0.268949 -0.091820 -5.701269
v -0.268949 -0.091820 -5.701269
v -1.760568 -0.091820 -6.532093
v -1.760568 -0.091820 -6.532093
v -1.760568 -0.091820 -6.532093
v -3.322481 -0.091820 -7.221745
v -3.322481 -0.091820 -7.221745
v -3.322481 -0.091820 -7.221745
v -4.941367 -0.091820 -7.764339
v -4.941367 -0.091820 -7.764339
v -4.941367 -0.091820 -7.764339
v -6.603408 -0.091820 -8.155249
v -6.603408 -0.091820 -8.155249
v -6.603408 -0.091820 -8.155249
v -8.294430 -0.091820 -8.391134
v -8.294430 -0.091820 -8.391134
v -8.294430 -0.091820 -8.391134
v -8.934767 -0.091819 -1.480761
v -8.934767 -0.091819 -1.480761
v -8.934767 -0.091819 -1.480761
v -7.878623 -0.091819 -1.333436
v -7.878623 -0.091819 -1.333436
v -7.878623 -0.091819 -1.333436
v -6.840578 -0.091819 -1.089291
v -6.840578 -0.091819 -1.089291
v -6.840578 -0.091819 -1.089291
v -5.829488 -0.091819 -0.750408
v -5.829488 -0.091819 -0.750408
v -5.829488 -0.091819 -0.750408
v -4.853980 -0.091819 -0.319680
v -4.853980 -0.091819 -0.319680
v -4.853980 -0.091819 -0.319680
v -3.922375 -0.091819 0.199220
v -3.922375 -0.091819 0.199220
v -3.922375 -0.091819 0.199220
v -3.042622 -0.091819 0.801864
v -3.042622 -0.091819 0.801864
v -3.042622 -0.091819 0.801864
v -2.222228 -0.091819 1.483110
v -2.222228 -0.091819 1.483110
v -2.222228 -0.091819 1.483110
v -1.468190 -0.091819 2.237147
v -1.468190 -0.091819 2.237147
v -1.468190 -0.091819 2.237147
v -0.786942 -0.091819 3.057542
v -0.786942 -0.091819 3.057542
v -0.786942 -0.091819 3.057542
v -0.184299 -0.091819 3.937293
v -0.184299 -0.091819 3.937293
v -0.184299 -0.091819 3.937293
v 0.334603 -0.091819 4.868898
v 0.334603 -0.091819 4.868898
v 0.334603 -0.091819 4.868898
v 0.765332 -0.091819 5.844405
v 0.765332 -0.091819 5.844405
v 0.765332 -0.091819 5.844405
v 1.104216 -0.091819 6.855495
v 1.104216 -0.091819 6.855495
v 1.104216 -0.091819 6.855495
v 1.348361 -0.091819 7.893538
v 1.348361 -0.091819 7.893538
v 1.348361 -0.091819 7.893538
v 1.495688 -0.091819 8.949684
v 1.495688 -0.091819 8.949684
v 1.495688 -0.091819 8.949684
v -9.999998 0.091819 -0.000000
v -7.259284 0.091819 0.382314
v -5.535964 0.091819 1.049932
v -4.727821 0.091819 1.500063
v -3.964660 0.091819 2.022840
v -2.598882 0.091819 3.267911
v -2.007917 0.091819 3.979581
v -1.485139 0.091819 4.742742
v 8.663359 0.091819 2.784689
v 9.674133 0.091819 6.337178
vn -0.0000 1.0000 -0.0000
vn -0.4039 -0.0000 0.9148
vn -0.0462 -0.0000 0.9989
vn 0.1382 -0.0000 -0.9904
vn -0.6388 -0.0000 0.7693
vn -0.7693 -0.0000 0.6388
vn -0.2289 -0.0000 0.9734
vn -0.2290 -0.0000 0.9734
vn -0.4866 -0.0000 0.8736
vn -0.9993 -0.0000 0.0378
vn -0.7071 -0.0000 0.7071
vn -0.8250 -0.0000 0.5651
vn -0.9904 -0.0000 0.1382
vn 0.7071 -0.0000 -0.7071
vn 0.9995 -0.0000 -0.0327
vn -0.8736 -0.0000 0.4866
vn 0.9734 -0.0000 -0.2290
vn -0.3178 -0.0000 0.9482
vn -0.5651 -0.0000 0.8250
vn 0.5651 -0.0000 -0.8250
vn 0.3178 -0.0000 -0.9482
vn 0.4039 -0.0000 -0.9148
vn 0.9148 -0.0000 -0.4039
vn -0.9734 -0.0000 0.2290
vn 0.8250 -0.0000 -0.5651
vn -0.1382 -0.0000 0.9904
vn 0.0462 -0.0000 -0.9989
vn -0.9482 -0.0000 0.3178
vn 0.9904 -0.0000 -0.1382
vn 0.7693 -0.0000 -0.6388
vn 0.2290 -0.0000 -0.9734
vn 0.9482 -0.0000 -0.3178
vn 0.8736 -0.0000 -0.4866
vn 0.4866 -0.0000 -0.8736
vn -0.9148 -0.0000 0.4039
vn 0.6388 -0.0000 -0.7693
vt 0.411765 0.000000
vt 0.411765 0.172016
vt 0.352941 0.172016
vt 0.352941 0.000000
vt 0.588235 1.000000
vt 0.588235 0.827533
vt 0.647059 0.827533
vt 0.647059 1.000000
vt 0.588235 0.172016
vt 0.588235 0.000000
vt 0.647059 0.000000
vt 0.647059 0.172016
vt 0.294118 0.796406
vt 0.294118 0.827533
vt 0.235294 0.827533
vt 0.235294 0.796406
vt 0.058824 0.796406
vt 0.058824 0.827533
vt 0.000000 0.827533
vt 0.000000 0.796406
vt 0.058824 0.000000
vt 0.058824 0.172016
vt 0.000000 0.172016
vt 0.000000 0.000000
vt 0.117647 0.000000
vt 0.117647 0.172016
vt 0.058824 1.000000
vt 0.000000 1.000000
vt 0.941176 0.796406
vt 0.941176 0.203137
vt 1.000000 0.203137
vt 1.000000 0.796406
vt 0.470588 0.000000
vt 0.470588 0.172016
vt 0.882353 0.172016
vt 0.882353 0.000000
vt 0.941176 0.000000
vt 0.941176 0.172016
vt 0.294118 0.172016
vt 0.294118 0.000000
vt 0.882353 1.000000
vt 0.882353 0.827533
vt 0.941176 0.827533
vt 0.941176 1.000000
vt 0.294118 0.203137
vt 0.235294 0.203137
vt 0.823529 0.172016
vt 0.823529 0.000000
vt 0.529412 0.000000
vt 0.529412 0.172016
vt 0.470588 0.827533
vt 0.470588 1.000000
vt 0.411765 1.000000
vt 0.411765 0.827533
vt 0.705882 0.000000
vt 0.705882 0.172016
vt 0.764706 1.000000
vt 0.764706 0.827533
vt 0.823529 0.827533
vt 0.823529 1.000000
vt 0.117647 0.827533
vt 0.117647 1.000000
vt 0.470588 0.203137
vt 0.470588 0.796406
vt 0.411765 0.796406
vt 0.411765 0.203137
vt 0.529412 0.203137
vt 0.529412 0.796406
vt 0.588235 0.796406
vt 0.588235 0.203137
vt 0.647059 0.203137
vt 0.647059 0.796406
vt 0.529412 1.000000
vt 0.529412 0.827533
vt 0.294118 1.000000
vt 0.235294 1.000000
vt 1.000000 0.827533
vt 1.000000 1.000000
vt 0.705882 0.796406
vt 0.705882 0.203137
vt 0.764706 0.203137
vt 0.764706 0.796406
vt 0.176471 0.000000
vt 0.176471 0.172016
vt 0.352941 0.827533
vt 0.352941 1.000000
vt 0.235294 0.172016
vt 0.235294 0.000000
vt 0.352941 0.203137
vt 0.352941 0.796406
vt 0.176471 1.000000
vt 0.176471 0.827533
vt 0.764706 0.000000
vt 0.764706 0.172016
vt 0.882353 0.796406
vt 0.882353 0.203137
vt 0.058824 0.203137
vt 0.000000 0.203137
vt 0.705882 0.827533
vt 0.705882 1.000000
vt 0.823529 0.203137
vt 0.823529 0.796406
vt 1.000000 0.000000
vt 1.000000 0.172016
vt 0.176471 0.796406
vt 0.176471 0.203137
vt 0.117647 0.203137
vt 0.117647 0.796406
s 0
usemtl Road
f 239/1/1 109/2/1 106/3/1
f 239/1/1 106/3/1 238/4/1
f 24/5/1 63/6/1 60/7/1
f 24/5/1 60/7/1 23/8/1
f 118/9/1 241/10/1 242/11/1
f 118/9/1 242/11/1 121/12/1
f 173/13/2 77/14/2 79/15/2
f 173/13/2 79/15/2 175/16/2
f 185/17/3 89/18/3 8/19/3
f 185/17/3 8/19/3 14/20/3
f 34/21/1 91/22/1 4/23/1
f 34/21/1 4/23/1 235/24/1
f 35/25/1 94/26/1 91/22/1
f 35/25/1 91/22/1 34/21/1
f 90/18/1 33/27/1 2/28/1
f 90/18/1 2/28/1 9/19/1
f 141/29/1 232/30/1 18/31/1
f 141/29/1 18/31/1 13/32/1
f 37/33/1 112/34/1 109/2/1
f 37/33/1 109/2/1 239/1/1
f 133/35/1 41/36/1 42/37/1
f 133/35/1 42/37/1 136/38/1
f 238/4/1 106/3/1 103/39/1
f 238/4/1 103/39/1 237/40/1
f 244/41/1 48/42/1 45/43/1
f 244/41/1 45/43/1 20/44/1
f 199/45/1 174/13/1 177/16/1
f 199/45/1 177/16/1 196/46/1
f 130/47/1 40/48/1 41/36/1
f 130/47/1 41/36/1 133/35/1
f 112/34/1 37/33/1 240/49/1
f 112/34/1 240/49/1 115/50/1
f 69/51/1 26/52/1 27/53/1
f 69/51/1 27/53/1 72/54/1
f 121/12/1 242/11/1 38/55/1
f 121/12/1 38/55/1 124/56/1
f 243/57/1 54/58/1 51/59/1
f 243/57/1 51/59/1 21/60/1
f 87/61/1 32/62/1 33/27/1
f 87/61/1 33/27/1 90/18/1
f 208/63/1 165/64/1 168/65/1
f 208/63/1 168/65/1 205/66/1
f 165/64/1 208/63/1 211/67/1
f 165/64/1 211/67/1 162/68/1
f 159/69/1 214/70/1 217/71/1
f 159/69/1 217/71/1 156/72/1
f 25/73/1 66/74/1 63/6/1
f 25/73/1 63/6/1 24/5/1
f 78/14/1 29/75/1 30/76/1
f 78/14/1 30/76/1 81/15/1
f 20/44/1 45/43/1 7/77/1
f 20/44/1 7/77/1 3/78/1
f 153/79/1 220/80/1 223/81/1
f 153/79/1 223/81/1 150/82/1
f 162/68/1 211/67/1 214/70/1
f 162/68/1 214/70/1 159/69/1
f 236/83/1 97/84/1 94/26/1
f 236/83/1 94/26/1 35/25/1
f 75/85/1 28/86/1 29/75/1
f 75/85/1 29/75/1 78/14/1
f 237/40/1 103/39/1 100/87/1
f 237/40/1 100/87/1 36/88/1
f 202/89/1 171/90/1 174/13/1
f 202/89/1 174/13/1 199/45/1
f 81/15/1 30/76/1 31/91/1
f 81/15/1 31/91/1 84/92/1
f 124/56/1 38/55/1 39/93/1
f 124/56/1 39/93/1 127/94/1
f 36/88/1 100/87/1 97/84/1
f 36/88/1 97/84/1 236/83/1
f 144/95/1 229/96/1 232/30/1
f 144/95/1 232/30/1 141/29/1
f 21/60/1 51/59/1 48/42/1
f 21/60/1 48/42/1 244/41/1
f 187/97/1 186/17/1 15/20/1
f 187/97/1 15/20/1 16/98/1
f 23/8/1 60/7/1 57/99/1
f 23/8/1 57/99/1 22/100/1
f 26/52/1 69/51/1 66/74/1
f 26/52/1 66/74/1 25/73/1
f 84/92/1 31/91/1 32/62/1
f 84/92/1 32/62/1 87/61/1
f 150/82/1 223/81/1 226/101/1
f 150/82/1 226/101/1 147/102/1
f 136/38/1 42/37/1 1/103/1
f 136/38/1 1/103/1 10/104/1
f 127/94/1 39/93/1 40/48/1
f 127/94/1 40/48/1 130/47/1
f 196/46/1 177/16/1 180/105/1
f 196/46/1 180/105/1 193/106/1
f 205/66/1 168/65/1 171/90/1
f 205/66/1 171/90/1 202/89/1
f 156/72/1 217/71/1 220/80/1
f 156/72/1 220/80/1 153/79/1
f 190/107/1 183/108/1 186/17/1
f 190/107/1 186/17/1 187/97/1
f 193/106/1 180/105/1 183/108/1
f 193/106/1 183/108/1 190/107/1
f 22/100/1 57/99/1 54/58/1
f 22/100/1 54/58/1 243/57/1
f 115/50/1 240/49/1 241/10/1
f 115/50/1 241/10/1 118/9/1
f 147/102/1 226/101/1 229/96/1
f 147/102/1 229/96/1 144/95/1
f 95/26/4 191/107/4 189/97/4
f 95/26/4 189/97/4 93/22/4
f 164/64/5 68/51/5 70/54/5
f 164/64/5 70/54/5 166/65/5
f 64/74/6 160/68/6 158/69/6
f 64/74/6 158/69/6 62/6/6
f 179/105/7 83/92/7 85/61/7
f 179/105/8 85/61/8 181/108/8
f 170/90/9 74/85/9 76/14/9
f 170/90/9 76/14/9 172/13/9
f 43/43/10 139/29/10 12/32/10
f 43/43/10 12/32/10 6/77/10
f 161/68/11 65/74/11 67/51/11
f 161/68/11 67/51/11 163/64/11
f 61/6/12 157/69/12 155/72/12
f 61/6/12 155/72/12 59/7/12
f 46/42/13 142/95/13 140/29/13
f 46/42/13 140/29/13 44/43/13
f 72/54/1 27/53/1 28/86/1
f 72/54/1 28/86/1 75/85/1
f 210/63/14 114/34/14 116/50/14
f 210/63/14 116/50/14 212/67/14
f 234/30/15 138/38/15 11/104/15
f 234/30/15 11/104/15 19/31/15
f 58/7/16 154/72/16 152/79/16
f 58/7/16 152/79/16 56/99/16
f 228/101/17 132/47/17 134/35/17
f 228/101/17 134/35/17 230/96/17
f 176/16/18 80/15/18 82/92/18
f 176/16/18 82/92/18 178/105/18
f 167/65/19 71/54/19 73/85/19
f 167/65/19 73/85/19 169/90/19
f 110/2/20 206/66/20 204/89/20
f 110/2/20 204/89/20 108/3/20
f 101/87/21 197/46/21 195/106/21
f 101/87/21 195/106/21 99/84/21
f 104/39/22 200/45/22 198/46/22
f 104/39/22 198/46/22 102/87/22
f 222/80/23 126/56/23 128/94/23
f 222/80/23 128/94/23 224/81/23
f 49/59/24 145/102/24 143/95/24
f 49/59/24 143/95/24 47/42/24
f 216/70/25 120/9/25 122/12/25
f 216/70/25 122/12/25 218/71/25
f 182/108/26 86/61/26 88/18/26
f 182/108/26 88/18/26 184/17/26
f 92/22/27 188/97/27 17/98/27
f 92/22/27 17/98/27 5/23/27
f 52/58/28 148/82/28 146/102/28
f 52/58/28 146/102/28 50/59/28
f 231/96/29 135/35/29 137/38/29
f 231/96/29 137/38/29 233/30/29
f 213/67/30 117/50/30 119/9/30
f 213/67/30 119/9/30 215/70/30
f 98/84/31 194/106/31 192/107/31
f 98/84/31 192/107/31 96/26/31
f 225/81/32 129/94/32 131/47/32
f 225/81/32 131/47/32 227/101/32
f 219/71/33 123/12/33 125/56/33
f 219/71/33 125/56/33 221/80/33
f 107/3/34 203/89/34 201/45/34
f 107/3/34 201/45/34 105/39/34
f 55/99/35 151/79/35 149/82/35
f 55/99/35 149/82/35 53/58/35
f 113/34/36 209/63/36 207/66/36
f 113/34/36 207/66/36 111/2/36
