# Blender 4.0.2
# www.blender.org
mtllib Road_Straight_Long.mtl
o Road_long
v -5.000001 0.091820 -10.000001
v -4.999999 0.091819 9.999999
v 4.999999 0.091819 -10.000001
v 5.000001 0.091818 9.999999
v -3.469989 0.091820 -10.000001
v -3.469989 0.091820 -10.000001
v 3.469989 0.091818 9.999999
v 3.469989 0.091818 9.999999
v 3.469988 0.091819 -10.000001
v 3.469988 0.091819 -10.000001
v -3.469988 0.091819 9.999999
v -3.469988 0.091819 9.999999
v 3.469989 -0.091820 9.999999
v 3.469989 -0.091820 9.999999
v 3.469988 -0.091819 -10.000001
v 3.469988 -0.091819 -10.000001
v -3.469989 -0.091818 -10.000001
v -3.469989 -0.091818 -10.000001
v -3.469988 -0.091819 9.999999
v -3.469988 -0.091819 9.999999
vn -0.0000 1.0000 -0.0000
vn -1.0000 -0.0000 -0.0000
vn 1.0000 -0.0000 -0.0000
vt 1.000000 0.203137
vt 1.000000 0.796406
vt 0.000000 0.796406
vt 0.000000 0.203137
vt 1.000000 0.827533
vt 0.000000 0.827533
vt 0.000000 0.172016
vt 1.000000 0.172016
vt 1.000000 1.000000
vt 0.000000 1.000000
vt 0.000000 0.000000
vt 1.000000 0.000000
s 0
usemtl Road
f 19/1/1 14/2/1 16/3/1
f 19/1/1 16/3/1 17/4/1
f 15/3/2 13/2/2 7/5/2
f 15/3/2 7/5/2 9/6/2
f 20/1/3 18/4/3 6/7/3
f 20/1/3 6/7/3 12/8/3
f 4/9/1 3/10/1 10/6/1
f 4/9/1 10/6/1 8/5/1
f 11/8/1 5/7/1 1/11/1
f 11/8/1 1/11/1 2/12/1
