# Blender 4.0.2
# www.blender.org
mtllib Road_Straight_Short.mtl
o Road_short
v -5.000000 0.091820 -5.000000
v 5.000000 0.091819 -5.000000
v -3.469989 0.091819 -5.000000
v -3.469989 0.091819 -5.000000
v 3.469988 0.091819 -5.000000
v 3.469988 0.091819 -5.000000
v 3.469988 -0.091819 -5.000000
v 3.469988 -0.091819 -5.000000
v -3.469989 -0.091819 -5.000000
v -3.469989 -0.091819 -5.000000
v 5.000000 0.091819 5.000000
v -5.000000 0.091819 5.000000
v 3.469989 0.091819 5.000000
v 3.469989 0.091819 5.000000
v -3.469988 0.091819 5.000000
v -3.469988 0.091819 5.000000
v 3.469989 -0.091819 5.000000
v 3.469989 -0.091819 5.000000
v -3.469988 -0.091819 5.000000
v -3.469988 -0.091819 5.000000
vn -0.0000 1.0000 -0.0000
vn 1.0000 -0.0000 -0.0000
vn -1.0000 -0.0000 -0.0000
vt 0.500000 0.796406
vt 0.000000 0.796406
vt 0.000000 0.203137
vt 0.500000 0.203137
vt 0.000000 0.172016
vt 0.500000 0.172016
vt 0.500000 0.827533
vt 0.000000 0.827533
vt 0.500000 1.000000
vt 0.000000 1.000000
vt 0.000000 0.000000
vt 0.500000 0.000000
s 0
usemtl Road
f 18/1/1 8/2/1 9/3/1
f 18/1/1 9/3/1 19/4/1
f 10/3/2 4/5/2 16/6/2
f 10/3/2 16/6/2 20/4/2
f 17/1/3 13/7/3 5/8/3
f 17/1/3 5/8/3 7/2/3
f 11/9/1 2/10/1 6/8/1
f 11/9/1 6/8/1 14/7/1
f 15/6/1 3/5/1 1/11/1
f 15/6/1 1/11/1 12/12/1
