# Blender 4.0.2
# www.blender.org
mtllib Road_Curve_90.mtl
o Road_turn_3
v -10.000002 0.091820 -0.000010
v 0.000002 0.091821 10.000000
v -10.000001 0.091819 -10.000010
v 10.000001 0.091820 10.000006
v -10.000001 0.091819 -1.530021
v -10.000001 0.091819 -1.530021
v 8.469991 0.091820 10.000010
v 8.469991 0.091820 10.000010
v -10.000001 0.091819 -8.469998
v -10.000001 0.091819 -8.469998
v 1.530014 0.091820 10.000006
v 1.530014 0.091820 10.000006
v 8.469991 -0.091818 10.000006
v 8.469991 -0.091818 10.000006
v -10.000001 -0.091819 -8.469998
v -10.000001 -0.091819 -8.469998
v -10.000001 -0.091819 -1.530021
v -10.000001 -0.091819 -1.530021
v 1.530014 -0.091818 10.000006
v 1.530014 -0.091818 10.000006
v 9.999625 0.091821 0.731962
v 9.650225 0.091821 -2.046378
v 8.557680 0.091821 -4.693931
v 6.799617 0.091821 -6.954988
v 4.502970 0.091821 -8.666296
v 1.833561 0.091821 -9.704298
v -0.848803 0.091821 -10.000000
v -0.848808 0.091820 0.000006
v -0.505535 0.091820 0.018286
v -0.340518 0.091820 0.082453
v -0.198543 0.091820 0.188242
v -0.089863 0.091820 0.328016
v -0.022324 0.091820 0.491682
v -0.000749 0.091820 0.731966
v 8.469239 0.091817 0.731963
v 8.469239 0.091817 0.731963
v 8.469239 0.091817 0.731963
v 8.170314 0.091817 -1.658056
v 8.170314 0.091817 -1.658056
v 8.170314 0.091817 -1.658056
v 7.234599 0.091817 -3.925565
v 7.234599 0.091817 -3.925565
v 7.234599 0.091817 -3.925565
v 5.728891 0.091817 -5.862065
v 5.728891 0.091817 -5.862065
v 5.728891 0.091817 -5.862065
v 3.761910 0.091817 -7.327728
v 3.761910 0.091817 -7.327728
v 3.761910 0.091817 -7.327728
v 1.475677 0.091817 -8.216731
v 1.475677 0.091817 -8.216731
v 1.475677 0.091817 -8.216731
v -0.848807 0.091817 -8.469982
v -0.848807 0.091817 -8.469982
v -0.848807 0.091817 -8.469982
v -0.848807 0.091817 -1.530005
v -0.848807 0.091817 -1.530005
v -0.848807 0.091817 -1.530005
v -0.147651 0.091817 -1.469281
v -0.147651 0.091817 -1.469281
v -0.147651 0.091817 -1.469281
v 0.400541 0.091817 -1.256116
v 0.400541 0.091817 -1.256116
v 0.400541 0.091817 -1.256116
v 0.872183 0.091817 -0.904680
v 0.872183 0.091817 -0.904680
v 0.872183 0.091817 -0.904680
v 1.233221 0.091817 -0.440348
v 1.233221 0.091817 -0.440348
v 1.233221 0.091817 -0.440348
v 1.457587 0.091817 0.103356
v 1.457587 0.091817 0.103356
v 1.457587 0.091817 0.103356
v 1.529263 0.091817 0.731966
v 1.529263 0.091817 0.731966
v 1.529263 0.091817 0.731966
v 8.469239 -0.091821 0.731965
v 8.469239 -0.091821 0.731965
v 8.469239 -0.091821 0.731965
v 8.170314 -0.091821 -1.658056
v 8.170314 -0.091821 -1.658056
v 8.170314 -0.091821 -1.658056
v 7.234598 -0.091821 -3.925568
v 7.234598 -0.091821 -3.925568
v 7.234598 -0.091821 -3.925568
v 5.728890 -0.091821 -5.862066
v 5.728890 -0.091821 -5.862066
v 5.728890 -0.091821 -5.862066
v 3.761911 -0.091821 -7.327729
v 3.761911 -0.091821 -7.327729
v 3.761911 -0.091821 -7.327729
v 1.475677 -0.091821 -8.216732
v 1.475677 -0.091821 -8.216732
v 1.475677 -0.091821 -8.216732
v -0.848807 -0.091821 -8.469982
v -0.848807 -0.091821 -8.469982
v -0.848807 -0.091821 -8.469982
v -0.848807 -0.091821 -1.530005
v -0.848807 -0.091821 -1.530005
v -0.848807 -0.091821 -1.530005
v -0.147651 -0.091821 -1.469281
v -0.147651 -0.091821 -1.469281
v -0.147651 -0.091821 -1.469281
v 0.400542 -0.091821 -1.256116
v 0.400542 -0.091821 -1.256116
v 0.400542 -0.091821 -1.256116
v 0.872183 -0.091821 -0.904680
v 0.872183 -0.091821 -0.904680
v 0.872183 -0.091821 -0.904680
v 1.233221 -0.091821 -0.440347
v 1.233221 -0.091821 -0.440347
v 1.233221 -0.091821 -0.440347
v 1.457587 -0.091821 0.103355
v 1.457587 -0.091821 0.103355
v 1.457587 -0.091821 0.103355
v 1.529263 -0.091821 0.731966
v 1.529263 -0.091821 0.731966
v 1.529263 -0.091821 0.731966
v 9.920216 0.091821 -0.636687
v 9.193285 0.091821 -3.407019
v 7.754941 0.091821 -5.883778
v 5.709037 0.091821 -7.888135
v 3.203289 0.091821 -9.275367
v 0.418625 0.091821 -9.945312
v 8.401550 0.091817 -0.450709
v 8.401550 0.091817 -0.450709
v 8.401550 0.091817 -0.450709
v 7.778966 0.091817 -2.823380
v 7.778966 0.091817 -2.823380
v 7.778966 0.091817 -2.823380
v 6.547084 0.091817 -4.944620
v 6.547084 0.091817 -4.944620
v 6.547084 0.091817 -4.944620
v 4.794856 0.091817 -6.661265
v 4.794856 0.091817 -6.661265
v 4.794856 0.091817 -6.661265
v 2.648790 0.091817 -7.849371
v 2.648790 0.091817 -7.849371
v 2.648790 0.091817 -7.849371
v 0.263843 0.091817 -8.423150
v 0.263843 0.091817 -8.423150
v 0.263843 0.091817 -8.423150
v 8.401550 -0.091821 -0.450712
v 8.401550 -0.091821 -0.450712
v 8.401550 -0.091821 -0.450712
v 7.778966 -0.091821 -2.823383
v 7.778966 -0.091821 -2.823383
v 7.778966 -0.091821 -2.823383
v 6.547084 -0.091821 -4.944620
v 6.547084 -0.091821 -4.944620
v 6.547084 -0.091821 -4.944620
v 4.794856 -0.091821 -6.661265
v 4.794856 -0.091821 -6.661265
v 4.794856 -0.091821 -6.661265
v 2.648790 -0.091821 -7.849371
v 2.648790 -0.091821 -7.849371
v 2.648790 -0.091821 -7.849371
v 0.263845 -0.091821 -8.423151
v 0.263845 -0.091821 -8.423151
v 0.263845 -0.091821 -8.423151
vn -0.0000 1.0000 -0.0000
vn -0.9984 -0.0000 0.0571
vn 0.3624 -0.0000 -0.9320
vn 0.9936 -0.0000 -0.1133
vn 0.7894 -0.0000 -0.6138
vn 0.0863 -0.0000 -0.9963
vn -0.0421 -0.0000 0.9991
vn -0.2988 -0.0000 0.9543
vn 0.9244 -0.0000 -0.3815
vn -0.8966 -0.0000 0.4428
vn -0.9480 -0.0000 0.3184
vn -0.5422 -0.0000 0.8403
vn -0.1679 -0.0000 0.9858
vn 0.5975 -0.0000 -0.8019
vn -0.0000 -0.0000 1.0000
vn 1.0000 -0.0000 -0.0001
vn -0.6501 -0.0000 0.7598
vn -0.9821 -0.0000 0.1881
vn -0.7463 -0.0000 0.6656
vn -0.4243 -0.0000 0.9055
vn -1.0000 -0.0000 0.0001
vn -0.8290 -0.0000 0.5593
vn -0.0000 -0.0000 -1.0000
vt 0.555556 0.203137
vt 0.555556 0.796406
vt 0.527778 0.796406
vt 0.500000 0.203137
vt 0.555556 1.000000
vt 0.555556 0.827533
vt 0.583333 0.827533
vt 0.583333 1.000000
vt 0.638889 0.827533
vt 0.638889 0.796406
vt 0.666667 0.796406
vt 0.666667 0.827533
vt 0.444444 0.172016
vt 0.444444 0.203137
vt 0.388889 0.203137
vt 0.388889 0.172016
vt 0.666667 0.203137
vt 1.000000 0.203137
vt 1.000000 0.796406
vt 0.527778 1.000000
vt 0.527778 0.827533
vt 0.416667 0.827533
vt 0.416667 1.000000
vt 0.388889 1.000000
vt 0.388889 0.827533
vt 0.611111 0.827533
vt 0.611111 1.000000
vt 0.611111 0.203137
vt 0.611111 0.172016
vt 0.666667 0.172016
vt 0.472222 1.000000
vt 0.472222 0.827533
vt 0.500000 0.827533
vt 0.500000 1.000000
vt 0.472222 0.796406
vt 0.444444 0.796406
vt 0.361111 0.796406
vt 0.333333 0.796406
vt 0.333333 0.203137
vt 0.500000 0.172016
vt 0.500000 0.000000
vt 0.555556 0.000000
vt 0.555556 0.172016
vt 0.444444 0.000000
vt 0.388889 0.000000
vt 0.000000 0.796406
vt 0.000000 0.203137
vt 0.611111 0.000000
vt 0.666667 0.000000
vt 1.000000 0.000000
vt 1.000000 0.172016
vt 0.638889 1.000000
vt 0.666667 1.000000
vt 0.444444 0.827533
vt 0.444444 1.000000
vt 0.611111 0.796406
vt 0.583333 0.796406
vt 0.361111 0.827533
vt 0.361111 1.000000
vt 0.333333 1.000000
vt 0.333333 0.827533
vt 0.333333 0.172016
vt 0.416667 0.796406
vt 0.388889 0.796406
vt 1.000000 0.827533
vt 1.000000 1.000000
vt 0.333333 0.000000
vt 0.000000 0.172016
vt 0.000000 0.000000
vt 0.000000 0.827533
vt 0.000000 1.000000
vt 0.500000 0.796406
s 0
usemtl Road
f 110/1/1 85/2/1 151/3/1
f 110/1/1 151/3/1 107/4/1
f 23/5/1 43/6/1 130/7/1
f 23/5/1 130/7/1 120/8/1
f 125/9/2 143/10/2 78/11/2
f 125/9/2 78/11/2 36/12/2
f 63/13/3 105/14/3 103/15/3
f 63/13/3 103/15/3 61/16/3
f 79/11/1 116/17/1 19/18/1
f 79/11/1 19/18/1 14/19/1
f 121/20/1 133/21/1 43/6/1
f 121/20/1 43/6/1 23/5/1
f 139/22/1 123/23/1 26/24/1
f 139/22/1 26/24/1 52/25/1
f 120/8/1 130/7/1 40/26/1
f 120/8/1 40/26/1 22/27/1
f 115/28/4 73/29/4 75/30/4
f 115/28/4 75/30/4 117/17/4
f 122/31/1 136/32/1 46/33/1
f 122/31/1 46/33/1 24/34/1
f 154/35/1 91/36/1 104/14/1
f 154/35/1 104/14/1 107/4/1
f 160/37/1 97/38/1 99/39/1
f 160/37/1 99/39/1 101/15/1
f 65/40/1 31/41/1 32/42/1
f 65/40/1 32/42/1 68/43/1
f 62/13/1 30/44/1 31/41/1
f 62/13/1 31/41/1 65/40/1
f 30/44/1 62/13/1 59/16/1
f 30/44/1 59/16/1 29/45/1
f 99/39/1 97/38/1 16/46/1
f 99/39/1 16/46/1 18/47/1
f 71/29/1 33/48/1 34/49/1
f 71/29/1 34/49/1 74/30/1
f 68/43/1 32/42/1 33/48/1
f 68/43/1 33/48/1 71/29/1
f 74/30/1 34/49/1 2/50/1
f 74/30/1 2/50/1 11/51/1
f 119/52/1 127/9/1 37/12/1
f 119/52/1 37/12/1 21/53/1
f 49/54/1 25/55/1 123/23/1
f 49/54/1 123/23/1 139/22/1
f 113/28/1 82/56/1 148/57/1
f 113/28/1 148/57/1 110/1/1
f 109/4/5 67/40/5 69/43/5
f 109/4/5 69/43/5 111/1/5
f 142/58/1 124/59/1 27/60/1
f 142/58/1 27/60/1 55/61/1
f 25/55/1 49/54/1 136/32/1
f 25/55/1 136/32/1 122/31/1
f 60/16/6 102/15/6 100/39/6
f 60/16/6 100/39/6 58/62/6
f 159/37/7 141/58/7 53/61/7
f 159/37/7 53/61/7 95/38/7
f 156/63/8 138/22/8 50/25/8
f 156/63/8 50/25/8 92/64/8
f 112/1/9 70/43/9 72/29/9
f 112/1/9 72/29/9 114/28/9
f 41/6/10 83/2/10 147/57/10
f 41/6/10 147/57/10 129/7/10
f 128/7/11 146/57/11 81/56/11
f 128/7/11 81/56/11 39/26/11
f 21/53/1 37/12/1 8/65/1
f 21/53/1 8/65/1 4/66/1
f 28/67/1 57/62/1 6/68/1
f 28/67/1 6/68/1 1/69/1
f 153/35/12 135/32/12 47/54/12
f 153/35/12 47/54/12 89/36/12
f 93/64/13 51/25/13 140/58/13
f 93/64/13 140/58/13 158/37/13
f 106/14/14 64/13/14 66/40/14
f 106/14/14 66/40/14 108/4/14
f 96/38/15 54/61/15 9/70/15
f 96/38/15 9/70/15 15/46/15
f 118/17/16 76/30/16 12/51/16
f 118/17/16 12/51/16 20/18/16
f 55/61/1 27/60/1 3/71/1
f 55/61/1 3/71/1 10/70/1
f 104/14/1 91/36/1 157/63/1
f 104/14/1 157/63/1 101/15/1
f 87/72/17 45/33/17 134/32/17
f 87/72/17 134/32/17 152/35/17
f 22/27/1 40/26/1 127/9/1
f 22/27/1 127/9/1 119/52/1
f 29/45/1 59/16/1 57/62/1
f 29/45/1 57/62/1 28/67/1
f 52/25/1 26/24/1 124/59/1
f 52/25/1 124/59/1 142/58/1
f 116/17/1 79/11/1 145/10/1
f 116/17/1 145/10/1 113/28/1
f 24/34/1 46/33/1 133/21/1
f 24/34/1 133/21/1 121/20/1
f 38/26/18 80/56/18 144/10/18
f 38/26/18 144/10/18 126/9/18
f 150/3/19 132/21/19 44/33/19
f 150/3/19 44/33/19 86/72/19
f 90/36/20 48/54/20 137/22/20
f 90/36/20 137/22/20 155/63/20
f 35/12/21 77/11/21 13/19/21
f 35/12/21 13/19/21 7/65/21
f 84/2/22 42/6/22 131/21/22
f 84/2/22 131/21/22 149/3/22
f 101/15/1 94/64/1 160/37/1
f 157/63/1 94/64/1 101/15/1
f 107/4/1 88/72/1 154/35/1
f 151/3/1 88/72/1 107/4/1
f 148/57/1 85/2/1 110/1/1
f 145/10/1 82/56/1 113/28/1
f 56/62/23 98/39/23 17/47/23
f 56/62/23 17/47/23 5/68/23
