# Blender 4.0.2
# www.blender.org
mtllib Stairs.mtl
o Concrete_stairs
v -0.223221 1.373095 0.969914
v -0.223221 1.373095 0.969914
v -0.223221 1.373094 -0.857439
v -0.223221 1.373094 -0.857439
v -0.223223 1.241828 -0.856583
v -0.223223 1.241828 -0.856583
v -0.223221 1.241829 0.970770
v -0.223221 1.241829 0.970770
v -0.007986 1.373095 0.969911
v -0.007986 1.373095 0.969911
v -0.007986 1.373094 -0.857441
v -0.007986 1.373094 -0.857441
v -0.438448 1.241827 0.970770
v -0.438448 1.241827 0.970770
v -0.438450 1.241827 -0.856583
v -0.438450 1.241827 -0.856583
v -0.438450 1.110562 -0.855726
v -0.438450 1.110562 -0.855726
v -0.438448 1.110563 0.971628
v -0.438448 1.110563 0.971628
v -0.653684 1.110561 0.971629
v -0.653684 1.110561 0.971629
v -0.653685 1.110561 -0.855726
v -0.653685 1.110561 -0.855726
v -0.653683 0.979295 -0.854870
v -0.653683 0.979295 -0.854870
v -0.653683 0.979296 0.972483
v -0.653683 0.979296 0.972483
v -0.868910 0.979294 0.972484
v -0.868910 0.979294 0.972484
v -0.868910 0.979293 -0.854872
v -0.868910 0.979293 -0.854872
v -0.868918 0.848028 -0.854013
v -0.868918 0.848028 -0.854013
v -0.868910 0.848028 0.973339
v -0.868910 0.848028 0.973339
v -1.084142 0.848027 0.973339
v -1.084142 0.848027 0.973339
v -1.084143 0.848027 -0.854013
v -1.084143 0.848027 -0.854013
v -1.084143 0.716763 -0.853157
v -1.084143 0.716763 -0.853157
v -1.084142 0.716763 0.974196
v -1.084142 0.716763 0.974196
v -1.299379 0.716763 0.974195
v -1.299379 0.716763 0.974195
v -1.299379 0.716762 -0.853157
v -1.299379 0.716762 -0.853157
v -1.299376 0.585497 -0.852298
v -1.299376 0.585497 -0.852298
v -1.299379 0.585498 0.975054
v -1.299379 0.585498 0.975054
v -1.514604 0.585497 0.975054
v -1.514604 0.585497 0.975054
v -1.514605 0.585496 -0.852298
v -1.514605 0.585496 -0.852298
v -1.514612 0.454232 -0.851442
v -1.514612 0.454232 -0.851442
v -1.514612 0.454232 0.975913
v -1.514612 0.454232 0.975913
v -2.535511 0.186968 -0.847986
v -2.535511 0.186968 -0.847986
v -2.535511 0.186968 -0.847986
v -2.535516 0.186971 -1.190807
v -2.535516 0.186971 -1.190807
v -2.535516 0.186971 -1.190807
v -2.535516 0.186971 -1.190807
v -2.535508 0.321695 -0.847984
v -2.535508 0.321695 -0.847984
v -2.535508 0.321695 -0.847984
v -2.535516 0.321696 -1.190807
v -2.535516 0.321696 -1.190807
v -2.535516 0.321696 -1.190807
v -0.084196 -0.070845 -1.069433
v -0.084196 1.465801 -1.069432
v -0.084196 1.465801 -1.069432
v -0.084196 1.465801 -1.069432
v -2.160304 0.321696 -1.190807
v -2.160304 0.321696 -1.190807
v -2.160304 0.321696 -1.190807
v -2.160304 0.186972 -1.190807
v -2.160304 0.186972 -1.190807
v -2.160304 0.186972 -1.190807
v -2.160304 0.321695 -0.847984
v -2.160304 0.321695 -0.847984
v -2.160304 0.321695 -0.847984
v -2.160304 0.186971 -1.069433
v -2.160304 0.186971 -1.069433
v -2.160304 0.186971 -1.069433
v -1.729837 0.454232 0.975913
v -1.729837 0.454232 0.975913
v -1.729838 0.454231 -0.851442
v -1.729838 0.454231 -0.851442
v -1.729838 0.322966 -0.850584
v -1.729838 0.322966 -0.850584
v -1.729837 0.322967 0.976769
v -1.729837 0.322967 0.976769
v -1.945074 0.322966 0.976769
v -1.945074 0.322966 0.976769
v -1.945074 0.322965 -0.850584
v -1.945074 0.322965 -0.850584
v -1.945074 0.191701 -0.849727
v -1.945074 0.191701 -0.849727
v -1.945074 0.191702 0.977624
v -1.945074 0.191702 0.977624
v -2.160301 0.191701 0.977624
v -2.160301 0.191701 0.977624
v -2.160302 0.191701 -0.849727
v -2.160302 0.191701 -0.849727
v -2.160307 0.060436 -0.848869
v -2.160307 0.060436 -0.848869
v -2.160301 0.060437 0.978484
v -2.160301 0.060437 0.978484
v -2.375533 0.060436 0.978484
v -2.375533 0.060436 0.978484
v -2.375534 0.060435 -0.848869
v -2.375534 0.060435 -0.848869
v -2.375534 -0.070830 -0.848012
v -2.375533 -0.070829 0.979343
v -0.007988 1.504359 0.969055
v -0.007988 1.504359 0.969055
v -0.007988 1.504359 -0.858297
v -0.007988 1.504359 -0.858297
v 0.207241 1.504360 0.969052
v 0.207241 1.504360 0.969052
v 0.207243 1.504359 -0.858301
v 0.207243 1.504359 -0.858301
v 0.297345 1.464226 0.969052
v 0.297344 1.464226 -0.858301
v -2.160304 -0.070846 -1.069433
v -0.084200 1.600526 -1.190808
v -0.084200 1.600526 -1.190808
v -0.084200 1.600526 -1.190808
v -0.084200 1.465801 -1.190808
v -0.084200 1.465801 -1.190808
v -0.084200 1.465801 -1.190808
v -0.084202 1.600524 -0.847985
v -0.084202 1.600524 -0.847985
v -0.084202 1.600524 -0.847985
v -2.535510 0.186968 0.978854
v -2.535510 0.186968 0.978854
v -2.535510 0.186968 0.978854
v -2.535516 0.186971 1.321675
v -2.535516 0.186971 1.321675
v -2.535516 0.186971 1.321675
v -2.535516 0.186971 1.321675
v -2.535507 0.321695 0.978852
v -2.535507 0.321695 0.978852
v -2.535507 0.321695 0.978852
v -2.535516 0.321696 1.321675
v -2.535516 0.321696 1.321675
v -2.535516 0.321696 1.321675
v -0.084196 -0.070845 1.200300
v -0.084196 1.465801 1.200299
v -0.084196 1.465801 1.200299
v -0.084196 1.465801 1.200299
v -2.160303 0.321696 1.321675
v -2.160303 0.321696 1.321675
v -2.160303 0.321696 1.321675
v -2.160303 0.186972 1.321675
v -2.160303 0.186972 1.321675
v -2.160303 0.186972 1.321675
v -2.160303 0.321695 0.978852
v -2.160303 0.321695 0.978852
v -2.160303 0.321695 0.978852
v -2.160303 0.186971 1.200301
v -2.160303 0.186971 1.200301
v -2.160303 0.186971 1.200301
v -2.160303 -0.070846 1.200301
v -0.084199 1.600526 1.321675
v -0.084199 1.600526 1.321675
v -0.084199 1.600526 1.321675
v -0.084200 1.465801 1.321675
v -0.084200 1.465801 1.321675
v -0.084200 1.465801 1.321675
v -0.084201 1.600524 0.978851
v -0.084201 1.600524 0.978851
v -0.084201 1.600524 0.978851
v -0.084202 1.465796 0.978854
v -0.084202 1.465796 0.978854
v -0.084202 1.465796 0.978854
v 0.297344 -0.070846 -1.069279
v 0.297344 1.465800 -1.069278
v 0.297344 1.465800 -1.069278
v 0.297344 1.600525 -1.190654
v 0.297344 1.600525 -1.190654
v 0.297344 1.600525 -1.190654
v 0.297344 1.465800 -1.190654
v 0.297344 1.465800 -1.190654
v 0.297344 1.465800 -1.190654
v 0.297344 1.465799 -0.847829
v 0.297344 1.465799 -0.847829
v 0.297344 1.600524 -0.847828
v 0.297344 1.600524 -0.847828
v 0.297344 1.600524 -0.847828
v 0.297345 1.600524 0.978851
v 0.297345 1.600524 0.978851
v 0.297345 1.600524 0.978851
v 0.297345 1.465799 0.978851
v 0.297345 1.465799 0.978851
v 0.297345 1.465800 1.200309
v 0.297345 1.465800 1.200309
v 0.297345 1.465800 1.321690
v 0.297345 1.465800 1.321690
v 0.297345 1.465800 1.321690
v 0.297345 1.600525 1.321690
v 0.297345 1.600525 1.321690
v 0.297345 1.600525 1.321690
v 0.297344 -0.070846 1.200310
v -2.414140 -0.070846 -1.069433
v -2.414140 -0.070846 -1.069433
v -2.414141 -0.070846 -0.847983
v -2.414141 -0.070846 -0.847983
v -2.414135 0.186970 -0.847984
v -2.414135 0.186970 -0.847984
v -2.414135 0.186970 -0.847984
v -2.414135 0.186970 -0.847984
v -2.414140 0.186971 -1.069433
v -2.414140 0.186971 -1.069433
v -2.414140 0.186971 -1.069433
v -2.414140 0.186971 -1.069433
v -0.084202 1.465796 -0.847987
v -0.084202 1.465796 -0.847987
v -2.160304 0.186970 -0.847984
v -2.160304 0.186970 -0.847984
v -2.330020 -0.070846 -0.847981
v -0.084202 1.309506 -0.847987
v -0.084202 1.309506 -0.847987
v -2.414140 -0.070846 1.200300
v -2.414140 -0.070846 1.200300
v -2.414140 0.186971 1.200300
v -2.414140 0.186971 1.200300
v -2.414140 0.186971 1.200300
v -2.414140 0.186971 1.200300
v -2.414134 0.186970 0.978852
v -2.414134 0.186970 0.978852
v -2.414134 0.186970 0.978852
v -2.414134 0.186970 0.978852
v -2.414140 -0.070846 0.978849
v -2.414140 -0.070846 0.978849
v -0.084202 1.309506 0.978854
v -0.084202 1.309506 0.978854
v -2.330020 -0.070846 0.978848
v -2.160303 0.186970 0.978852
v -2.160303 0.186970 0.978852
v 0.075454 1.465794 0.978865
v 0.075454 1.407164 0.978865
v 0.075454 1.465794 -0.847976
v 0.075454 1.407164 -0.847976
vn -1.0000 -0.0000 -0.0000
vn -0.0000 -0.0000 -1.0000
vn -1.0000 0.0001 -0.0000
vn -0.0000 1.0000 -0.0000
vn 1.0000 -0.0000 -0.0000
vn -0.0004 -0.0000 1.0000
vn -0.0001 -0.0000 1.0000
vn 0.4069 0.9135 -0.0000
vn -0.0000 -1.0000 -0.0000
vn -0.0000 -0.0000 1.0000
vn 0.0001 -0.0000 -1.0000
vn 0.5245 -0.8514 -0.0000
vn 0.0004 -0.0000 -1.0000
vn -0.5245 0.8514 -0.0000
vn -0.0003 -0.0000 1.0000
vt 0.805401 0.820968
vt 0.805401 0.907554
vt 0.390955 0.907554
vt 0.390955 0.820968
vt 0.389727 0.821173
vt 0.440766 0.821173
vt 0.440766 0.768388
vt 0.389727 0.768388
vt 0.391474 0.820968
vt 0.391474 0.907554
vt -0.022972 0.907554
vt -0.022972 0.820968
vt 0.391474 0.999172
vt -0.022972 0.999172
vt 1.026677 0.820968
vt 1.026677 0.907554
vt 0.612231 0.907554
vt 0.612231 0.820968
vt 0.524479 0.821172
vt 0.524479 0.888486
vt 0.440766 0.888486
vt 0.440766 0.821245
vt 0.389727 0.821173
vt 0.389727 0.768388
vt 0.440766 0.821312
vt 0.805401 0.821317
vt 0.390955 0.821315
vt 0.390955 0.768055
vt 0.805401 0.768055
vt 0.805401 0.999172
vt 0.390955 0.999172
vt 1.068496 0.821173
vt 1.000000 0.821173
vt 1.024251 0.768388
vt 1.068496 0.768388
vt 1.000000 0.888486
vt 1.068496 0.888486
vt 1.014253 0.821173
vt 0.939285 0.821173
vt 0.939285 0.888486
vt 1.014253 0.888486
vt 0.939283 0.999500
vt 1.014250 0.999500
vt 0.939284 0.768388
vt 0.990001 0.768388
vt 0.945757 0.821173
vt 0.921506 0.821173
vt 0.945757 0.768388
vt 0.612751 0.907554
vt 0.612751 0.999172
vt 0.198305 0.999172
vt 0.198305 0.907554
vt 0.524479 0.768054
vt 0.492577 0.768054
vt 0.492578 0.738768
vt 0.524479 0.689987
vt 0.939285 0.129279
vt 0.990001 0.129279
vt 0.990001 0.000499
vt 0.939284 0.000499
vt 0.612751 0.820968
vt 0.198305 0.820968
vt 0.870789 0.821173
vt 0.870791 0.768388
vt 0.524479 0.768388
vt 0.524479 0.000500
vt 0.524480 0.768052
vt 0.524480 0.689985
vt 1.026677 0.999172
vt 0.612231 0.999172
vt 0.990001 0.129279
vt 0.939285 0.129279
vt 0.973194 0.000500
vt 0.440766 0.000501
vt 0.524479 0.999500
vt 0.440766 0.999500
vt 1.024251 0.129279
vt 1.024251 0.000499
vt 1.068496 0.000499
vt 1.068498 0.129279
vt 0.440766 0.000623
vt 0.973194 0.000499
vt 0.524480 0.689985
vt 0.492578 0.738768
vt 0.524479 0.689987
s 0
usemtl Fence_metal
f 19/1/1 13/2/1 15/3/1
f 19/1/1 15/3/1 17/4/1
f 199/5/2 179/6/2 177/7/2
f 199/5/2 177/7/2 196/8/2
f 59/9/3 53/10/3 55/11/3
f 59/9/3 55/11/3 57/12/3
f 115/10/4 113/13/4 111/14/4
f 115/10/4 111/14/4 117/11/4
f 9/15/1 120/16/1 122/17/1
f 9/15/1 122/17/1 11/18/1
f 190/19/5 187/20/5 195/21/5
f 190/19/5 195/21/5 192/22/5
f 51/15/1 45/16/1 47/17/1
f 51/15/1 47/17/1 49/18/1
f 138/7/6 222/6/6 191/23/6
f 138/7/7 191/23/6 193/24/6
f 96/1/1 90/2/1 92/3/1
f 96/1/1 92/3/1 94/4/1
f 198/21/5 208/20/5 205/19/5
f 198/21/5 205/19/5 200/25/5
f 112/1/1 106/2/1 108/3/1
f 112/1/1 108/3/1 110/4/1
f 128/26/8 129/27/8 127/28/8
f 128/26/8 127/28/8 125/29/8
f 119/9/1 114/10/1 116/11/1
f 119/9/1 116/11/1 118/12/1
f 14/2/4 8/30/4 6/31/4
f 14/2/4 6/31/4 16/3/4
f 62/32/9 65/33/9 220/34/9
f 220/34/9 215/35/9 62/32/9
f 140/32/1 143/33/1 150/36/1
f 140/32/1 150/36/1 147/37/1
f 146/38/10 161/39/10 158/40/10
f 146/38/10 158/40/10 151/41/10
f 152/41/4 159/40/4 165/42/4
f 152/41/4 165/42/4 149/43/4
f 81/39/9 87/44/9 219/45/9
f 219/45/9 66/38/9 81/39/9
f 63/46/10 216/47/10 69/48/10
f 7/9/1 1/10/1 3/11/1
f 7/9/1 3/11/1 5/12/1
f 99/49/4 97/50/4 95/51/4
f 99/49/4 95/51/4 101/52/4
f 43/9/1 37/10/1 39/11/1
f 43/9/1 39/11/1 41/12/1
f 107/2/4 105/30/4 103/31/4
f 107/2/4 103/31/4 109/3/4
f 180/53/11 246/54/11 247/55/11
f 180/53/11 247/55/11 241/56/11
f 167/57/10 234/58/10 230/59/10
f 167/57/10 230/59/10 169/60/10
f 35/1/1 29/2/1 31/3/1
f 35/1/3 31/3/3 33/4/3
f 38/10/4 36/13/4 34/14/4
f 38/10/4 34/14/4 40/11/4
f 104/61/1 98/49/1 100/52/1
f 104/61/1 100/52/1 102/62/1
f 61/32/1 68/37/1 71/36/1
f 61/32/1 71/36/1 64/33/1
f 22/49/4 20/50/4 18/51/4
f 22/49/4 18/51/4 24/52/4
f 216/47/10 224/63/10 85/64/10
f 85/64/10 69/48/10 216/47/10
f 155/65/10 167/57/10 169/60/10
f 155/65/10 169/60/10 153/66/10
f 206/21/10 171/20/10 174/19/10
f 206/21/10 174/19/10 204/25/10
f 75/65/9 134/19/9 188/22/9
f 75/65/9 188/22/9 183/7/9
f 27/61/1 21/49/1 23/52/1
f 27/61/1 23/52/1 25/62/1
f 2/10/4 10/13/4 12/14/4
f 2/10/4 12/14/4 4/11/4
f 30/2/4 28/30/4 26/31/4
f 30/2/4 26/31/4 32/3/4
f 168/44/12 156/65/12 175/19/12
f 168/44/12 175/19/12 162/39/12
f 222/6/10 138/7/10 85/64/10
f 181/67/2 242/68/2 244/63/2
f 181/67/2 244/63/2 164/64/2
f 67/38/2 72/41/2 79/40/2
f 67/38/2 79/40/2 82/39/2
f 141/32/9 236/35/9 233/34/9
f 233/34/9 144/33/9 141/32/9
f 203/25/9 173/19/9 154/65/9
f 203/25/9 154/65/9 201/7/9
f 54/10/4 52/13/4 50/14/4
f 54/10/4 50/14/4 56/11/4
f 121/16/4 124/69/4 126/70/4
f 121/16/4 126/70/4 123/17/4
f 160/39/9 145/38/9 232/45/9
f 232/45/9 166/44/9 160/39/9
f 142/46/2 148/48/2 237/47/2
f 237/47/2 148/48/2 164/64/2
f 164/64/2 244/63/2 237/47/2
f 238/71/2 245/72/2 243/73/2
f 238/71/2 243/73/2 240/59/2
f 184/7/13 182/74/13 74/66/13
f 184/7/13 74/66/13 76/65/13
f 185/21/4 132/20/4 139/75/4
f 185/21/4 139/75/4 194/76/4
f 89/44/12 83/39/12 136/19/12
f 89/44/12 136/19/12 77/65/12
f 73/41/4 70/43/4 86/42/4
f 73/41/4 86/42/4 80/40/4
f 82/39/2 79/40/2 133/20/2
f 82/39/2 133/20/2 135/19/2
f 78/40/14 84/42/14 137/75/14
f 78/40/14 137/75/14 131/20/14
f 218/77/1 210/78/1 212/79/1
f 218/77/1 212/79/1 214/80/1
f 161/39/10 174/19/10 171/20/10
f 161/39/10 171/20/10 158/40/10
f 164/64/2 177/7/2 179/6/2
f 88/57/2 130/60/2 211/59/2
f 88/57/2 211/59/2 221/58/2
f 209/81/10 202/7/10 155/65/10
f 209/81/10 155/65/10 153/66/10
f 157/40/14 170/20/14 176/75/14
f 157/40/14 176/75/14 163/42/14
f 135/19/11 133/20/11 186/21/13
f 135/19/11 186/21/13 189/22/13
f 46/16/4 44/69/4 42/70/4
f 46/16/4 42/70/4 48/17/4
f 231/77/1 235/80/1 239/79/1
f 231/77/1 239/79/1 229/78/1
f 225/72/10 226/82/10 228/83/10
f 207/21/4 197/76/4 178/75/4
f 207/21/4 178/75/4 172/20/4
f 242/68/2 243/73/2 245/72/2
f 226/82/10 225/72/10 217/71/10
f 226/82/10 217/71/10 213/59/10
f 249/84/7 248/54/7 223/53/7
f 249/84/7 223/53/7 227/85/7
f 76/65/2 74/66/2 130/60/2
f 76/65/2 130/60/2 88/57/2
f 228/83/10 222/6/15 85/64/10
f 228/83/10 85/64/10 225/72/10
f 91/2/4 60/30/4 58/31/4
f 91/2/4 58/31/4 93/3/4
