# Blender 4.0.2
# www.blender.org
mtllib Supportbeam_C.mtl
o Bridges_support_1
v -0.050515 0.220436 -0.269436
v -0.050515 0.220436 -0.269436
v -0.050515 5.141122 -0.269442
v -0.050515 5.141122 -0.269442
v -0.050515 5.141122 0.321457
v -0.050515 5.141122 0.321457
v -0.050515 0.220436 0.321465
v -0.050515 0.220436 0.321465
v 0.077743 0.220437 -0.269435
v 0.077743 0.220437 -0.269435
v 0.077743 0.220437 0.321470
v 0.077743 0.220437 0.321470
v 0.077743 5.141122 0.321462
v 0.077743 5.141122 0.321462
v 0.077743 5.141123 -0.269440
v 0.077743 5.141123 -0.269440
v 0.443464 0.224876 -0.392991
v 0.443464 0.224876 -0.392991
v 0.443464 0.224876 -0.392991
v -0.416246 0.224876 -0.392991
v -0.416246 0.224876 -0.392991
v -0.416246 0.224876 -0.392991
v -0.416246 0.224876 0.460876
v -0.416246 0.224876 0.460876
v -0.416246 0.224876 0.460876
v 0.443464 0.224876 0.460876
v 0.443464 0.224876 0.460876
v 0.443464 0.224876 0.460876
v -0.416246 -0.033658 -0.392990
v -0.416246 -0.033658 -0.392990
v -0.416246 -0.033660 0.460876
v -0.416246 -0.033660 0.460876
v 0.443464 -0.033660 0.460876
v 0.443464 -0.033660 0.460876
v 0.443464 -0.033660 -0.392989
v 0.443464 -0.033660 -0.392989
vn -0.0000 -0.0000 -1.0000
vn -1.0000 -0.0000 -0.0000
vn -0.0000 -0.0000 1.0000
vn 1.0000 -0.0000 -0.0000
vn -0.0000 1.0000 -0.0000
vt 0.442043 0.000000
vt 0.442041 1.000000
vt 0.419522 1.000000
vt 0.419523 0.000000
vt 0.571918 0.000000
vt 0.571916 1.000000
vt 0.599833 0.000000
vt 0.599832 1.000000
vt 0.667832 0.417553
vt 0.667832 0.285926
vt 0.799105 0.285926
vt 0.799105 0.417553
vt 0.605458 0.417553
vt 0.605458 0.285926
vt 0.862814 0.285926
vt 0.862814 0.417553
vt 0.799105 0.485646
vt 0.667832 0.485646
vt 0.667832 0.222642
vt 0.799105 0.222642
s 0
usemtl Bridges_support_3
f 2/1/1 4/2/1 15/3/1
f 2/1/1 15/3/1 9/4/1
f 7/5/2 5/6/2 3/2/2
f 7/5/2 3/2/2 1/1/2
f 11/7/3 13/8/3 6/6/3
f 11/7/3 6/6/3 8/5/3
f 16/2/4 14/6/4 12/5/4
f 16/2/4 12/5/4 10/1/4
f 22/9/5 25/10/5 27/11/5
f 22/9/5 27/11/5 18/12/5
f 29/13/2 31/14/2 23/10/2
f 29/13/2 23/10/2 20/9/2
f 34/15/4 36/16/4 19/12/4
f 34/15/4 19/12/4 28/11/4
f 21/9/1 17/12/1 35/17/1
f 21/9/1 35/17/1 30/18/1
f 26/11/3 24/10/3 32/19/3
f 26/11/3 32/19/3 33/20/3
