# Blender 4.0.2
# www.blender.org
mtllib Vent_B.mtl
o Ventilation_2
v -0.000001 -0.256456 -0.051766
v -0.000001 -0.256456 -0.051766
v -0.000001 -0.256456 -0.051766
v -0.128230 -0.222098 -0.051766
v -0.128230 -0.222098 -0.051766
v -0.222100 -0.128228 -0.051766
v -0.222100 -0.128228 -0.051766
v -0.222100 -0.128228 -0.051766
v -0.256458 0.000000 -0.051766
v -0.256458 0.000000 -0.051766
v -0.222100 0.128229 -0.051766
v -0.222100 0.128229 -0.051766
v -0.222100 0.128229 -0.051766
v -0.128230 0.222099 -0.051766
v -0.128230 0.222099 -0.051766
v -0.000001 0.256458 -0.051766
v -0.000001 0.256458 -0.051766
v -0.000001 0.256458 -0.051766
v 0.128226 0.222099 -0.051766
v 0.128226 0.222099 -0.051766
v 0.222097 0.128229 -0.051766
v 0.222097 0.128229 -0.051766
v 0.222097 0.128229 -0.051766
v 0.256455 0.000000 -0.051766
v 0.256455 0.000000 -0.051766
v 0.222097 -0.128228 -0.051766
v 0.222097 -0.128228 -0.051766
v 0.222097 -0.128228 -0.051766
v 0.128226 -0.222098 -0.051766
v 0.128226 -0.222098 -0.051766
v -0.128230 -0.222098 0.076960
v -0.128230 -0.222098 0.076960
v -0.222100 -0.128228 0.076960
v -0.222100 -0.128228 0.076960
v -0.222100 -0.128228 0.076960
v -0.222100 0.128229 0.076960
v -0.222100 0.128229 0.076960
v -0.222100 0.128229 0.076960
v 0.128226 0.222099 0.076960
v 0.128226 0.222099 0.076960
v 0.128226 -0.222098 0.076960
v 0.128226 -0.222098 0.076960
v -0.000001 0.000000 -0.051766
v -0.000001 -0.256456 0.076960
v -0.000001 -0.256456 0.076960
v -0.000001 -0.256456 0.076960
v -0.000001 0.000000 0.076959
v -0.256458 0.000000 0.076960
v -0.256458 0.000000 0.076960
v -0.128230 0.222099 0.076960
v -0.128230 0.222099 0.076960
v -0.000001 0.256458 0.076960
v -0.000001 0.256458 0.076960
v -0.000001 0.256458 0.076960
v 0.222097 0.128229 0.076960
v 0.222097 0.128229 0.076960
v 0.222097 0.128229 0.076960
v 0.256455 0.000000 0.076960
v 0.256455 0.000000 0.076960
v 0.222097 -0.128228 0.076960
v 0.222097 -0.128228 0.076960
v 0.222097 -0.128228 0.076960
v -0.495401 -0.456598 -0.034729
v -0.495401 -0.456598 -0.034729
v -0.456596 -0.495407 -0.034729
v -0.456596 -0.495407 -0.034729
v -0.456596 -0.495407 0.011929
v -0.456596 -0.495407 0.011929
v -0.495401 -0.456598 0.011929
v -0.495401 -0.456598 0.011929
v -0.456594 0.495409 -0.034729
v -0.456594 0.495409 -0.034729
v -0.495403 0.456603 -0.034729
v -0.495403 0.456603 -0.034729
v -0.495403 0.456603 0.011929
v -0.495403 0.456603 0.011929
v -0.456594 0.495409 0.011929
v -0.456594 0.495409 0.011929
v 0.495406 0.456600 -0.034729
v 0.495406 0.456600 -0.034729
v 0.456599 0.495408 -0.034729
v 0.456599 0.495408 -0.034729
v 0.456599 0.495408 0.011929
v 0.456599 0.495408 0.011929
v 0.495406 0.456600 0.011929
v 0.495406 0.456600 0.011929
v 0.456606 -0.495406 -0.034729
v 0.456606 -0.495406 -0.034729
v 0.495407 -0.456598 -0.034729
v 0.495407 -0.456598 -0.034729
v 0.495407 -0.456598 0.011929
v 0.495407 -0.456598 0.011929
v 0.456606 -0.495406 0.011929
v 0.456606 -0.495406 0.011929
v -0.187902 0.149100 -0.034729
v -0.187902 0.149100 -0.034729
v -0.187902 0.149100 0.011929
v -0.187902 0.149100 0.011929
v -0.149094 0.187907 0.011929
v -0.149094 0.187907 0.011929
v -0.149094 0.187907 -0.034729
v -0.149094 0.187907 -0.034729
v -0.149100 -0.187904 -0.034729
v -0.149100 -0.187904 -0.034729
v -0.149100 -0.187904 0.011929
v -0.149100 -0.187904 0.011929
v -0.187902 -0.149096 0.011929
v -0.187902 -0.149096 0.011929
v -0.187902 -0.149096 -0.034729
v -0.187902 -0.149096 -0.034729
v 0.149101 -0.187901 -0.034729
v 0.149101 -0.187901 -0.034729
v 0.149101 -0.187901 0.011929
v 0.149101 -0.187901 0.011929
v 0.187907 -0.149096 0.011929
v 0.187907 -0.149096 0.011929
v 0.187907 -0.149096 -0.034729
v 0.187907 -0.149096 -0.034729
v 0.187906 0.149099 -0.034729
v 0.187906 0.149099 -0.034729
v 0.187906 0.149099 0.011929
v 0.187906 0.149099 0.011929
v 0.149099 0.187906 0.011929
v 0.149099 0.187906 0.011929
v 0.149099 0.187906 -0.034729
v 0.149099 0.187906 -0.034729
v -0.812413 0.830434 -0.086655
v -0.812413 0.830434 -0.086655
v -0.812413 0.830434 -0.086655
v 0.817030 0.830436 0.132187
v 0.817030 0.830436 0.132187
v 0.817030 0.830436 0.132187
v -0.336701 -0.588758 0.132189
v -0.336701 -0.588758 0.132189
v -0.675097 -0.002642 0.132189
v -0.675097 -0.002642 0.132189
v -0.336701 0.583475 -0.086655
v -0.336701 0.583475 -0.086655
v -0.336701 0.583475 0.132189
v -0.336701 0.583475 0.132189
v 0.340084 0.583475 0.132189
v 0.340084 0.583475 0.132189
v 0.587812 0.335752 0.132189
v 0.587812 0.335752 0.132189
v 0.678478 -0.002642 -0.086656
v 0.678478 -0.002642 -0.086656
v 0.678478 -0.002643 0.132189
v 0.678478 -0.002643 0.132189
v 0.587812 -0.341037 0.132189
v 0.587812 -0.341037 0.132189
v 0.340084 -0.588758 0.132189
v 0.340084 -0.588758 0.132189
v 0.001699 0.674147 0.132189
v 0.001699 0.674147 0.132189
v 0.001699 0.674147 0.132189
v 0.001699 -0.679430 0.132189
v 0.001699 -0.679430 0.132189
v -0.584424 -0.341037 0.132189
v -0.584424 -0.341037 0.132189
v -0.584424 0.335752 0.132189
v -0.584424 0.335752 0.132189
v -0.812413 0.830435 0.132189
v -0.812413 0.830435 0.132189
v -0.812413 0.830435 0.132189
v 0.817022 -0.823740 -0.086658
v 0.817022 -0.823740 -0.086658
v 0.817022 -0.823740 -0.086658
v 0.817030 0.830436 -0.086658
v 0.817030 0.830436 -0.086658
v 0.817030 0.830436 -0.086658
v -0.584424 0.335752 -0.086656
v -0.584424 0.335752 -0.086656
v 0.001699 0.674147 -0.086655
v 0.001699 0.674147 -0.086655
v 0.001699 0.674147 -0.086655
v 0.340088 0.583475 -0.086656
v 0.340088 0.583475 -0.086656
v -0.675096 -0.002642 -0.086656
v -0.675096 -0.002642 -0.086656
v 0.587812 0.335752 -0.086656
v 0.587812 0.335752 -0.086656
v 0.001699 -0.679430 -0.086655
v 0.001699 -0.679430 -0.086655
v 0.587812 -0.341037 -0.086656
v 0.587812 -0.341037 -0.086656
v -0.336701 -0.588758 -0.086655
v -0.336701 -0.588758 -0.086655
v -0.584424 -0.341037 -0.086656
v -0.584424 -0.341037 -0.086656
v 0.340088 -0.588758 -0.086656
v 0.340088 -0.588758 -0.086656
v 0.817023 -0.823740 0.132187
v 0.817023 -0.823740 0.132187
v 0.817023 -0.823740 0.132187
v -0.812420 -0.823742 -0.086655
v -0.812420 -0.823742 -0.086655
v -0.812420 -0.823742 -0.086655
v -0.812420 -0.823741 0.132188
v -0.812420 -0.823741 0.132188
v -0.812420 -0.823741 0.132188
v -0.395633 -0.690829 -0.056770
v -0.792959 -0.002642 -0.056770
v -0.395633 0.685547 -0.056770
v 0.399019 0.685547 -0.056770
v 0.796340 -0.002642 -0.056770
v 0.399019 -0.690830 -0.056770
vn -0.5000 -0.8660 -0.0000
vn -0.2588 -0.9659 -0.0000
vn -0.7071 -0.7071 -0.0000
vn -1.0000 -0.0000 -0.0000
vn -0.9659 -0.2588 -0.0000
vn -0.9659 0.2588 -0.0000
vn -0.5000 0.8660 -0.0000
vn -0.7071 0.7071 -0.0000
vn -0.2588 0.9659 -0.0000
vn 0.5000 0.8660 -0.0000
vn 0.2588 0.9659 -0.0000
vn 0.7071 0.7071 -0.0000
vn 1.0000 -0.0000 -0.0000
vn 0.9659 0.2588 -0.0000
vn 0.9659 -0.2588 -0.0000
vn 0.5000 -0.8660 -0.0000
vn 0.7071 -0.7071 -0.0000
vn 0.2588 -0.9659 -0.0000
vn -0.0000 -0.0000 -1.0000
vn -0.0000 -0.0000 1.0000
vn -0.0000 1.0000 -0.0000
vn 0.8660 0.5000 -0.0000
vn 0.8660 -0.5000 -0.0000
vn -0.0000 -1.0000 -0.0000
vn -0.8660 -0.5000 -0.0000
vn -0.8660 0.5000 -0.0000
vt 0.231252 0.900455
vt 0.231253 0.882073
vt 0.263188 0.882073
vt 0.263188 0.900455
vt 0.231250 0.918837
vt 0.263187 0.918837
vt 0.231249 0.937219
vt 0.263186 0.937219
vt 0.231249 0.955602
vt 0.263186 0.955602
vt 0.231249 0.973985
vt 0.263187 0.973985
vt 0.231249 0.992368
vt 0.263187 0.992368
vt 0.231245 0.790164
vt 0.231243 0.771782
vt 0.263180 0.771781
vt 0.263182 0.790163
vt 0.231247 0.808546
vt 0.263184 0.808546
vt 0.231249 0.826928
vt 0.263185 0.826928
vt 0.231251 0.845310
vt 0.263187 0.845310
vt 0.231252 0.863692
vt 0.263188 0.863692
vt 0.114276 0.997569
vt 0.058353 0.982584
vt 0.114276 0.885725
vt 0.017415 0.941647
vt 0.002431 0.885724
vt 0.017415 0.829802
vt 0.058353 0.788865
vt 0.114276 0.773880
vt 0.170197 0.788864
vt 0.211136 0.829802
vt 0.226120 0.885724
vt 0.211136 0.941647
vt 0.170197 0.982584
vt 0.325542 0.633904
vt 0.353403 0.633904
vt 0.353403 0.992354
vt 0.325542 0.992354
vt 0.325336 0.633903
vt 0.325336 0.992353
vt 0.269819 0.633903
vt 0.297680 0.633903
vt 0.297680 0.992353
vt 0.269819 0.992353
vt 0.325542 0.992353
vt 0.297680 0.992353
vt 0.325542 0.633903
vt 0.269819 0.992354
vt 0.269819 0.633904
vt 0.325335 0.992354
vt 0.353403 0.633904
vt 0.325335 0.633904
vt 0.325541 0.633903
vt 0.353403 0.633903
vt 0.353403 0.992354
vt 0.325541 0.992354
vt 0.325335 0.633904
vt 0.325335 0.992353
vt 0.297680 0.633904
vt 0.297680 0.992353
vt 0.269819 0.992353
vt 0.325542 0.992353
vt 0.269819 0.992354
vt 0.325335 0.992354
vt 0.325335 0.633904
vt 0.829547 0.611820
vt 0.829545 0.995202
vt 0.777595 0.995202
vt 0.777596 0.611820
vt 0.389212 0.611820
vt 0.581997 0.644419
vt 0.661449 0.941560
vt 0.719612 0.883275
vt 0.740900 0.803654
vt 0.719612 0.724037
vt 0.581997 0.962894
vt 0.661449 0.665751
vt 0.423095 0.803655
vt 0.389212 0.995202
vt 0.502546 0.665752
vt 0.444384 0.883275
vt 0.502546 0.941559
vt 0.444384 0.724037
vt 0.038371 0.989187
vt -0.015405 0.864310
vt 0.065852 0.755302
vt 0.200886 0.771167
vt 0.254663 0.896044
vt 0.173405 1.005054
s 1
usemtl Ventilation_2
f 4/1/1 1/2/2 44/3/2
f 4/1/1 44/3/2 31/4/1
f 7/5/3 4/1/1 31/4/1
f 7/5/3 31/4/1 34/6/3
f 9/7/4 6/5/5 33/6/5
f 9/7/4 33/6/5 48/8/4
f 11/9/6 9/7/4 48/8/4
f 11/9/6 48/8/4 36/10/6
f 14/11/7 12/9/8 37/10/8
f 14/11/7 37/10/8 50/12/7
f 16/13/9 14/11/7 50/12/7
f 16/13/9 50/12/7 52/14/9
f 20/15/10 18/16/11 54/17/11
f 20/15/10 54/17/11 40/18/10
f 22/19/12 20/15/10 40/18/10
f 22/19/12 40/18/10 56/20/12
f 25/21/13 23/19/14 57/20/14
f 25/21/13 57/20/14 59/22/13
f 28/23/15 25/21/13 59/22/13
f 28/23/15 59/22/13 62/24/15
f 30/25/16 27/23/17 61/24/17
f 30/25/16 61/24/17 42/26/16
f 3/2/18 30/25/16 42/26/16
f 3/2/18 42/26/16 46/3/18
s 0
f 2/27/19 5/28/19 43/29/19
f 5/28/19 8/30/19 43/29/19
f 8/30/19 10/31/19 43/29/19
f 10/31/19 13/32/19 43/29/19
f 13/32/19 15/33/19 43/29/19
f 15/33/19 17/34/19 43/29/19
f 17/34/19 19/35/19 43/29/19
f 19/35/19 21/36/19 43/29/19
f 21/36/19 24/37/19 43/29/19
f 24/37/19 26/38/19 43/29/19
f 26/38/19 29/39/19 43/29/19
f 29/39/19 2/27/19 43/29/19
f 45/27/20 47/29/20 32/28/20
f 32/28/20 47/29/20 35/30/20
f 35/30/20 47/29/20 49/31/20
f 49/31/20 47/29/20 38/32/20
f 38/32/20 47/29/20 51/33/20
f 51/33/20 47/29/20 53/34/20
f 53/34/20 47/29/20 39/35/20
f 39/35/20 47/29/20 55/36/20
f 55/36/20 47/29/20 58/37/20
f 58/37/20 47/29/20 60/38/20
f 60/38/20 47/29/20 41/39/20
f 41/39/20 47/29/20 45/27/20
f 95/40/3 97/41/3 75/42/3
f 95/40/3 75/42/3 73/43/3
f 98/41/20 99/44/20 77/45/20
f 98/41/20 77/45/20 76/42/20
f 100/46/12 102/47/12 72/48/12
f 100/46/12 72/48/12 78/49/12
f 101/47/19 96/40/19 74/43/19
f 101/47/19 74/43/19 71/48/19
f 104/50/17 106/51/17 68/47/17
f 104/50/17 68/47/17 66/52/17
f 105/51/20 108/53/20 70/54/20
f 105/51/20 70/54/20 67/47/20
f 107/55/8 109/42/8 63/56/8
f 107/55/8 63/56/8 69/57/8
f 110/42/19 103/50/19 65/52/19
f 110/42/19 65/52/19 64/56/19
f 87/58/3 93/59/3 113/60/3
f 87/58/3 113/60/3 111/61/3
f 94/59/20 91/62/20 115/63/20
f 94/59/20 115/63/20 114/60/20
f 92/54/12 90/64/12 118/65/12
f 92/54/12 118/65/12 116/66/12
f 89/64/19 88/58/19 112/61/19
f 89/64/19 112/61/19 117/65/19
f 80/67/17 86/65/17 122/47/17
f 80/67/17 122/47/17 120/52/17
f 85/65/20 84/68/20 124/54/20
f 85/65/20 124/54/20 121/47/20
f 83/69/8 81/60/8 125/56/8
f 83/69/8 125/56/8 123/70/8
f 82/60/19 79/67/19 119/52/19
f 82/60/19 119/52/19 126/56/19
f 169/71/21 129/72/21 164/73/21
f 169/71/21 164/73/21 131/74/21
s 1
f 187/1/10 134/4/10 157/3/21
f 187/1/10 157/3/21 183/2/21
f 189/5/22 159/6/22 134/4/10
f 189/5/22 134/4/10 187/1/10
f 179/7/13 136/8/13 159/6/22
f 179/7/13 159/6/22 189/5/22
f 172/9/23 161/10/23 136/8/13
f 172/9/23 136/8/13 179/7/13
f 138/11/16 140/12/16 161/10/23
f 138/11/16 161/10/23 172/9/23
f 174/13/24 154/14/24 140/12/16
f 174/13/24 140/12/16 138/11/16
f 176/15/1 141/18/1 153/17/24
f 176/15/1 153/17/24 173/16/24
f 180/19/25 143/20/25 141/18/1
f 180/19/25 141/18/1 176/15/1
f 145/21/4 147/22/4 143/20/25
f 145/21/4 143/20/25 180/19/25
f 184/23/26 149/24/26 147/22/4
f 184/23/26 147/22/4 145/21/4
f 190/25/7 151/26/7 149/24/26
f 190/25/7 149/24/26 184/23/26
f 183/2/21 157/3/21 151/26/7
f 183/2/21 151/26/7 190/25/7
s 0
f 193/75/20 130/74/20 148/76/20
f 163/73/20 160/77/20 139/78/20
f 155/79/20 142/80/20 130/74/20
f 135/81/20 160/77/20 163/73/20
f 163/73/20 139/78/20 155/79/20
f 130/74/20 163/73/20 155/79/20
f 130/74/20 142/80/20 144/82/20
f 130/74/20 144/82/20 148/76/20
f 156/83/20 200/84/20 193/75/20
f 193/75/20 148/76/20 150/85/20
f 135/81/20 163/73/20 200/84/20
f 200/84/20 133/86/20 158/87/20
f 158/87/20 135/81/20 200/84/20
f 200/84/20 156/83/20 133/86/20
f 152/88/20 156/83/20 193/75/20
f 150/85/20 152/88/20 193/75/20
f 127/71/4 195/72/4 198/73/4
f 127/71/4 198/73/4 162/74/4
f 194/73/13 167/72/13 170/71/13
f 194/73/13 170/71/13 132/74/13
f 166/75/19 146/76/19 168/74/19
f 128/73/19 137/78/19 171/77/19
f 175/79/19 168/74/19 177/80/19
f 178/81/19 128/73/19 171/77/19
f 128/73/19 175/79/19 137/78/19
f 168/74/19 175/79/19 128/73/19
f 168/74/19 181/82/19 177/80/19
f 168/74/19 146/76/19 181/82/19
f 182/83/19 166/75/19 197/84/19
f 166/75/19 185/85/19 146/76/19
f 178/81/19 197/84/19 128/73/19
f 197/84/19 188/87/19 186/86/19
f 188/87/19 197/84/19 178/81/19
f 197/84/19 186/86/19 182/83/19
f 191/88/19 166/75/19 182/83/19
f 185/85/19 166/75/19 191/88/19
f 199/73/24 196/72/24 165/71/24
f 199/73/24 165/71/24 192/74/24
f 203/89/20 202/90/20 201/91/20
f 206/92/20 205/93/20 201/91/20
f 203/89/20 201/91/20 205/93/20
f 203/89/20 205/93/20 204/94/20
