# Blender 4.0.2
# www.blender.org
mtllib Wall_Curver_Large.mtl
o Wall_corner_3
v -1.156643 -0.086057 1.572305
v -1.156643 -0.086057 1.572305
v -1.156639 2.775180 1.572305
v -1.156639 2.775180 1.572305
v -1.156639 2.775180 1.572305
v -1.156639 2.775180 1.572305
v -1.156639 2.775180 1.572305
v 1.572302 2.775180 -1.156643
v 1.572302 2.775180 -1.156643
v 1.572302 2.775180 -1.156643
v 1.572302 2.775180 -1.156643
v 1.572302 2.775180 -1.156643
v 1.572302 -0.086057 -1.156639
v 1.572302 -0.086057 -1.156639
v -1.224232 2.775181 1.572305
v -1.224232 2.775181 1.572305
v -1.224232 2.775181 1.572305
v 1.572302 2.775181 -1.224236
v 1.572302 2.775181 -1.224236
v 1.572302 2.775181 -1.224236
v -1.224232 2.908411 1.572305
v -1.224232 2.908411 1.572305
v -1.224232 2.908411 1.572305
v 1.572303 2.908411 -1.224233
v 1.572303 2.908411 -1.224233
v 1.572303 2.908411 -1.224233
v -0.762012 2.908412 1.572305
v -0.762012 2.908412 1.572305
v -0.762012 2.908412 1.572305
v 1.572303 2.908412 -0.762013
v 1.572303 2.908412 -0.762013
v 1.572303 2.908412 -0.762013
v -0.827926 2.775182 1.572303
v -0.827926 2.775182 1.572303
v -0.827926 2.775182 1.572303
v -0.827926 2.775182 1.572303
v -0.827926 2.775182 1.572303
v 1.572305 2.775182 -0.827927
v 1.572305 2.775182 -0.827927
v 1.572305 2.775182 -0.827927
v 1.572305 2.775182 -0.827927
v 1.572305 2.775182 -0.827927
v 1.572303 2.775184 -0.762013
v 1.572303 2.775184 -0.762013
v 1.572303 2.775184 -0.762013
v -0.762015 2.775184 1.572305
v -0.762015 2.775184 1.572305
v -0.762015 2.775184 1.572305
v -0.827927 -0.086055 1.572303
v -0.827927 -0.086055 1.572303
v 1.572305 -0.086055 -0.827926
v 1.572305 -0.086055 -0.827926
v -1.104204 2.775180 1.039915
v -1.104204 2.775180 1.039915
v -0.948912 2.775180 0.527984
v -0.948912 2.775180 0.527984
v -0.696731 2.775180 0.056185
v -0.696731 2.775180 0.056185
v -0.357353 2.775180 -0.357350
v -0.357353 2.775180 -0.357350
v 0.056182 2.775180 -0.696730
v 0.056182 2.775180 -0.696730
v 0.527980 2.775180 -0.948913
v 0.527980 2.775180 -0.948913
v 1.039912 2.775180 -1.104206
v 1.039912 2.775180 -1.104206
v 1.039912 -0.086057 -1.104203
v 0.527981 -0.086057 -0.948911
v 0.056182 -0.086057 -0.696730
v -0.357352 -0.086057 -0.357350
v -0.696732 -0.086057 0.056185
v -0.948914 -0.086057 0.527983
v -1.104206 -0.086057 1.039915
v -1.170498 2.775181 1.026728
v -1.170498 2.775181 1.026728
v -1.011360 2.775181 0.502117
v -1.011360 2.775181 0.502117
v -0.752933 2.775181 0.018632
v -0.752933 2.775181 0.018632
v -0.405148 2.775181 -0.405146
v -0.405148 2.775181 -0.405146
v 0.018629 2.775181 -0.752932
v 0.018629 2.775181 -0.752932
v 0.502113 2.775181 -1.011360
v 0.502113 2.775181 -1.011360
v 1.026725 2.775181 -1.170500
v 1.026725 2.775181 -1.170500
v -1.170498 2.908411 1.026728
v -1.170498 2.908411 1.026728
v -1.011359 2.908412 0.502117
v -1.011359 2.908412 0.502117
v -0.752932 2.908412 0.018633
v -0.752932 2.908412 0.018633
v -0.405147 2.908412 -0.405145
v -0.405147 2.908412 -0.405145
v 0.018630 2.908412 -0.752931
v 0.018630 2.908412 -0.752931
v 0.502114 2.908412 -1.011358
v 0.502114 2.908412 -1.011358
v 1.026725 2.908411 -1.170498
v 1.026725 2.908411 -1.170498
v 1.116900 2.908412 -0.717158
v 1.116900 2.908412 -0.717158
v 0.678999 2.908412 -0.584322
v 0.678999 2.908412 -0.584322
v 0.275426 2.908412 -0.368608
v 0.275426 2.908412 -0.368608
v -0.078308 2.908412 -0.078306
v -0.078308 2.908412 -0.078306
v -0.368610 2.908412 0.275428
v -0.368610 2.908412 0.275428
v -0.584323 2.908412 0.679001
v -0.584323 2.908412 0.679001
v -0.717159 2.908412 1.116903
v -0.717159 2.908412 1.116903
v 1.104043 2.775182 -0.781807
v 1.104043 2.775182 -0.781807
v 0.653776 2.775182 -0.645221
v 0.653776 2.775182 -0.645221
v 0.238808 2.775182 -0.423415
v 0.238808 2.775182 -0.423415
v -0.124914 2.775182 -0.124916
v -0.124914 2.775182 -0.124916
v -0.423414 2.775182 0.238807
v -0.423414 2.775182 0.238807
v -0.645220 2.775182 0.653775
v -0.645220 2.775182 0.653775
v -0.781806 2.775182 1.104042
v -0.781806 2.775182 1.104042
v 1.116900 2.775185 -0.717159
v 1.116900 2.775185 -0.717159
v 0.678998 2.775185 -0.584323
v 0.678998 2.775185 -0.584323
v 0.275426 2.775185 -0.368608
v 0.275426 2.775185 -0.368608
v -0.078309 2.775185 -0.078307
v -0.078309 2.775185 -0.078307
v -0.368611 2.775185 0.275428
v -0.368611 2.775185 0.275428
v -0.584325 2.775185 0.679000
v -0.584325 2.775185 0.679000
v -0.717161 2.775184 1.116902
v -0.717161 2.775184 1.116902
v -0.781807 -0.086055 1.104042
v -0.645220 -0.086055 0.653775
v -0.423414 -0.086055 0.238807
v -0.124914 -0.086055 -0.124916
v 0.238808 -0.086055 -0.423415
v 0.653776 -0.086055 -0.645220
v 1.104044 -0.086055 -0.781806
vn 0.1936 0.3677 0.9096
vn -0.0000 -0.0000 1.0000
vn -0.3141 0.5225 0.7927
vn 0.8825 0.0151 -0.4700
vn 1.0000 -0.0000 -0.0000
vn 0.9096 0.3677 0.1936
vn 0.9808 -0.0000 0.1951
vn 0.9239 -0.0000 0.3827
vn -0.1951 -0.0000 -0.9808
vn -0.3827 -0.0000 -0.9239
vn -0.0000 -1.0000 -0.0000
vn -0.9808 -0.0000 -0.1951
vn -0.9239 -0.0000 -0.3827
vn 0.0980 -0.0000 0.9952
vn -0.3241 -0.0148 0.9459
vn 0.1951 -0.0000 0.9808
vn -0.8315 -0.0000 -0.5556
vn -0.7071 -0.0000 -0.7071
vn 0.8315 -0.0000 0.5556
vn 0.7071 -0.0000 0.7071
vn 0.3827 -0.0000 0.9239
vn -0.5556 -0.0000 -0.8315
vn -0.1079 -0.4698 -0.8762
vn -0.0980 -0.0000 -0.9952
vn 0.6043 0.0809 0.7926
vn -0.4151 0.0192 0.9096
vn -0.6061 -0.7926 -0.0662
vn 0.4153 -0.9096 -0.0139
vn 0.8825 0.4313 -0.1875
vn 0.9096 0.0192 -0.4151
vn -0.0000 1.0000 -0.0000
vn 0.5556 -0.0000 0.8315
vn 0.8825 -0.0215 0.4698
vn 0.9096 -0.4153 -0.0148
vn -0.4697 -0.8825 0.0233
vn 0.9952 -0.0000 0.0980
vn -0.9952 -0.0000 -0.0980
vn -0.7294 -0.0623 -0.6813
vn 0.9459 -0.0148 -0.3241
vn -0.0139 -0.9096 0.4153
vn 0.0624 -0.6065 0.7926
vn -0.0148 -0.4153 0.9096
vt 0.756526 0.541793
vt 0.768909 0.541793
vt 0.768910 0.566824
vt 0.682067 0.566824
vt 0.682067 0.541792
vt 0.694767 0.541792
vt 0.755575 0.539248
vt 0.768011 0.539248
vt 0.768010 0.563760
vt 0.682970 0.563760
vt 0.682970 0.539249
vt 0.695097 0.539248
vt 0.534326 0.913263
vt 0.534326 0.451293
vt 0.458065 0.451293
vt 0.458065 0.913263
vt 0.076761 0.913263
vt 0.076761 0.451293
vt 0.153022 0.451293
vt 0.153022 0.913263
vt 0.458065 0.913263
vt 0.534326 0.927955
vt 0.458065 0.927955
vt 0.534326 0.451293
vt 0.458065 0.451293
vt 0.381804 0.927955
vt 0.458065 0.927955
vt 0.381804 0.913263
vt 0.534326 0.934774
vt 0.458065 0.934774
vt 0.305543 0.913263
vt 0.305543 0.927955
vt 0.153022 0.913263
vt 0.076761 0.913263
vt 0.076761 0.927955
vt 0.153022 0.927955
vt 0.458065 0.934774
vt 0.000500 0.451293
vt 0.000500 0.913263
vt 0.076761 0.451293
vt 0.381804 0.934774
vt 0.305543 0.934774
vt 0.381804 0.913263
vt 0.381804 0.451293
vt 0.381804 0.934774
vt 0.153022 0.451293
vt 0.229282 0.451293
vt 0.229282 0.913263
vt 0.610587 0.913263
vt 0.610587 0.927955
vt 0.381804 0.927955
vt 0.229282 0.999500
vt 0.153022 0.999500
vt 0.153022 0.934774
vt 0.229282 0.934774
vt 0.229282 0.451293
vt 0.229282 0.913263
vt 0.305543 0.451293
vt 0.229282 0.934774
vt 0.695097 0.012830
vt 0.755574 0.012830
vt 0.000500 0.934774
vt 0.076761 0.934774
vt 0.076761 0.999500
vt 0.076761 0.934774
vt 0.534326 0.999500
vt 0.610587 0.934774
vt 0.610587 0.999500
vt 0.000500 0.999500
vt 0.458065 0.999500
vt 0.381804 0.999500
vt 0.229282 0.927955
vt 0.305543 0.999500
vt 0.153022 0.927955
vt 0.229282 0.927955
vt 0.076761 0.927955
vt 0.000500 0.927955
vt 0.153022 0.934774
vt 0.610587 0.451293
vt 0.381804 0.451293
vt 0.694766 0.004220
vt 0.756525 0.004220
s 1
usemtl Wall
f 35/1/1 47/2/2 27/3/2
f 22/4/2 17/5/2 5/6/3
f 12/7/4 20/8/5 26/9/5
f 32/10/5 45/11/5 41/12/6
f 129/13/7 144/14/7 145/15/8
f 129/13/7 145/15/8 127/16/8
f 65/17/9 67/18/9 68/19/10
f 65/17/9 68/19/10 63/20/10
s 0
f 56/21/11 54/13/11 75/22/11
f 56/21/11 75/22/11 77/23/11
s 1
f 73/24/12 53/13/12 55/21/13
f 73/24/12 55/21/13 72/25/13
s 0
f 138/26/11 140/27/11 126/16/11
f 138/26/11 126/16/11 124/28/11
s 1
f 74/13/12 88/29/12 90/30/13
f 74/13/12 90/30/13 76/21/13
s 0
f 124/28/11 122/31/11 136/32/11
f 124/28/11 136/32/11 138/26/11
f 118/33/11 116/34/11 130/35/11
f 118/33/11 130/35/11 132/36/11
s 1
f 113/37/8 115/29/7 143/13/7
f 113/37/8 143/13/7 141/16/8
f 51/38/14 38/39/15 117/34/16
f 51/38/14 117/34/16 150/40/16
f 92/41/17 94/42/18 80/31/18
f 92/41/17 80/31/18 78/43/17
f 71/44/17 72/25/13 55/21/13
f 71/44/17 55/21/13 57/43/17
f 111/45/19 139/28/19 137/31/20
f 111/45/19 137/31/20 109/42/20
f 150/40/16 117/34/16 119/33/21
f 150/40/16 119/33/21 149/46/21
f 63/20/10 68/19/10 69/47/22
f 63/20/10 69/47/22 61/48/22
f 9/39/23 13/38/24 67/18/9
f 9/39/23 67/18/9 65/17/9
f 7/6/25 33/1/26 27/3/2
f 7/6/25 27/3/2 22/4/2
f 54/13/11 4/49/27 16/50/11
s 0
f 54/13/11 16/50/11 75/22/11
s 1
f 142/22/11 46/50/11 36/49/28
f 142/22/11 36/49/28 128/13/11
s 0
f 81/32/11 60/31/11 58/43/11
f 81/32/11 58/43/11 79/51/11
s 1
f 10/7/29 26/9/5 32/10/5
f 10/7/29 32/10/5 42/12/30
s 0
f 58/43/11 56/21/11 77/23/11
f 58/43/11 77/23/11 79/51/11
f 106/52/31 104/53/31 99/54/31
f 106/52/31 99/54/31 97/55/31
s 1
f 148/56/32 121/57/32 123/31/20
f 148/56/32 123/31/20 147/58/20
f 96/55/22 98/54/10 84/20/10
f 96/55/22 84/20/10 82/48/22
f 109/42/20 137/31/20 135/57/32
f 109/42/20 135/57/32 107/59/32
f 149/46/21 119/33/21 121/57/32
f 149/46/21 121/57/32 148/56/32
f 11/7/33 40/12/34 52/60/5
f 11/7/33 52/60/5 14/61/5
f 139/28/19 111/45/19 113/37/8
f 139/28/19 113/37/8 141/16/8
f 44/39/14 31/62/14 103/63/16
f 44/39/14 103/63/16 131/34/16
s 0
f 99/54/31 104/53/31 102/64/31
f 99/54/31 102/64/31 101/65/31
f 114/66/31 89/29/31 23/67/31
f 114/66/31 23/67/31 28/68/31
f 101/65/31 102/64/31 30/69/31
f 101/65/31 30/69/31 25/62/31
f 93/41/31 91/30/31 112/70/31
f 93/41/31 112/70/31 110/71/31
f 122/31/11 120/57/11 134/72/11
f 122/31/11 134/72/11 136/32/11
f 112/70/31 91/30/31 89/29/31
f 112/70/31 89/29/31 114/66/31
f 110/71/31 108/73/31 95/42/31
f 110/71/31 95/42/31 93/41/31
f 85/74/11 64/20/11 62/48/11
f 85/74/11 62/48/11 83/75/11
f 95/42/31 108/73/31 106/52/31
f 95/42/31 106/52/31 97/55/31
f 140/27/11 142/22/11 128/13/11
f 140/27/11 128/13/11 126/16/11
f 64/20/11 85/74/11 87/76/11
f 64/20/11 87/76/11 66/17/11
f 81/32/11 83/75/11 62/48/11
f 81/32/11 62/48/11 60/31/11
s 1
f 87/76/11 19/77/11 8/39/35
f 87/76/11 8/39/35 66/17/11
f 115/29/7 29/67/36 48/49/36
f 115/29/7 48/49/36 143/13/7
f 107/59/32 135/57/32 133/33/21
f 107/59/32 133/33/21 105/78/21
f 78/43/17 76/21/13 90/30/13
f 78/43/17 90/30/13 92/41/17
s 0
f 120/57/11 118/33/11 132/36/11
f 120/57/11 132/36/11 134/72/11
s 1
f 84/20/10 98/54/10 100/65/9
f 84/20/10 100/65/9 86/17/9
f 88/29/12 74/13/12 15/49/37
f 88/29/12 15/49/37 21/67/37
f 59/31/18 70/58/18 71/44/17
f 59/31/18 71/44/17 57/43/17
f 94/42/18 96/55/22 82/48/22
f 94/42/18 82/48/22 80/31/18
f 1/79/37 3/49/38 53/13/12
f 1/79/37 53/13/12 73/24/12
f 129/13/7 37/49/39 50/79/36
f 129/13/7 50/79/36 144/14/7
f 131/34/16 103/63/16 105/78/21
f 131/34/16 105/78/21 133/33/21
f 127/16/8 145/15/8 146/80/19
f 127/16/8 146/80/19 125/28/19
f 24/62/24 18/39/24 86/17/9
f 24/62/24 86/17/9 100/65/9
f 116/34/11 39/39/40 43/77/11
s 0
f 116/34/11 43/77/11 130/35/11
s 1
f 6/6/41 2/81/2 49/82/2
f 6/6/41 49/82/2 34/1/42
f 147/58/20 123/31/20 125/28/19
f 147/58/20 125/28/19 146/80/19
f 61/48/22 69/47/22 70/58/18
f 61/48/22 70/58/18 59/31/18
