# Blender 4.0.2
# www.blender.org
mtllib Wall_Straigt.mtl
o Wall
v -2.014882 -0.086057 0.163513
v -2.014882 -0.086057 0.163513
v 2.014882 -0.086057 0.163512
v 2.014882 -0.086057 0.163512
v 2.014882 2.775180 0.163518
v 2.014882 2.775180 0.163518
v 2.014882 2.775180 0.163518
v 2.014882 2.775180 0.163518
v 2.014882 2.775180 0.163518
v 2.014882 2.775182 0.231110
v 2.014882 2.775182 0.231110
v 2.014882 2.775182 0.231110
v -2.014883 2.775182 0.231113
v -2.014883 2.775182 0.231113
v -2.014883 2.775182 0.231113
v -2.014883 2.775180 0.163518
v -2.014883 2.775180 0.163518
v -2.014883 2.775180 0.163518
v -2.014883 2.775180 0.163518
v -2.014883 2.775180 0.163518
v 2.014882 2.908412 0.231110
v 2.014882 2.908412 0.231110
v 2.014882 2.908412 0.231110
v -2.014883 2.908412 0.231112
v -2.014883 2.908412 0.231112
v -2.014883 2.908412 0.231112
v 2.014882 2.908413 -0.231111
v 2.014882 2.908413 -0.231111
v 2.014882 2.908413 -0.231111
v -2.014883 2.908413 -0.231112
v -2.014883 2.908413 -0.231112
v -2.014883 2.908413 -0.231112
v -2.014883 2.775184 -0.231113
v -2.014883 2.775184 -0.231113
v -2.014883 2.775184 -0.231113
v 2.014882 2.775184 -0.231111
v 2.014882 2.775184 -0.231111
v 2.014882 2.775184 -0.231111
v -2.014882 -0.086057 -0.165199
v -2.014882 -0.086057 -0.165199
v 2.014882 -0.086056 -0.165199
v 2.014882 -0.086056 -0.165199
v 2.014882 2.775182 -0.165197
v 2.014882 2.775182 -0.165197
v 2.014882 2.775182 -0.165197
v 2.014882 2.775182 -0.165197
v 2.014882 2.775182 -0.165197
v -2.014883 2.775182 -0.165198
v -2.014883 2.775182 -0.165198
v -2.014883 2.775182 -0.165198
v -2.014883 2.775182 -0.165198
v -2.014883 2.775182 -0.165198
vn 0.4428 -0.0000 -0.8966
vn -0.0000 -0.4428 -0.8966
vn -0.0000 -0.0000 -1.0000
vn -0.0000 -0.8966 -0.4428
vn -0.0000 -1.0000 -0.0000
vn -0.4428 -0.8966 -0.0000
vn 0.4430 -0.8965 -0.0000
vn -0.0000 -0.8965 0.4430
vn -0.0000 -0.0000 1.0000
vn -0.0000 1.0000 -0.0000
vn -0.0000 -0.4430 0.8965
vn -0.4430 -0.0000 0.8965
vn -0.8965 -0.0000 0.4430
vn -1.0000 -0.0000 -0.0000
vn -0.8967 0.3968 -0.1963
vn -0.8966 -0.0000 0.4428
vn -0.8966 0.3950 0.2004
vn -0.8965 -0.0000 -0.4430
vn -0.8966 -0.4428 -0.0000
vn 1.0000 -0.0000 -0.0000
vn 0.8965 -0.0000 -0.4430
vn 0.8967 0.3968 -0.1963
vn 0.8966 -0.0000 -0.4428
vn 0.8966 0.3950 0.2004
vn 0.8966 -0.0000 0.4428
vn 0.8965 -0.4430 -0.0000
vt 0.000500 0.451293
vt 0.610587 0.451293
vt 0.610587 0.000500
vt 0.000500 0.000500
vt 0.000500 0.913263
vt 0.000500 0.934774
vt 0.610587 0.934774
vt 0.610587 0.913263
vt 0.000500 0.927955
vt 0.610587 0.927955
vt 0.610587 0.999500
vt 0.000500 0.999500
vt 0.755854 0.542706
vt 0.768434 0.542706
vt 0.768434 0.567500
vt 0.682414 0.567500
vt 0.682414 0.542706
vt 0.694681 0.542706
vt 0.694680 0.010230
vt 0.755853 0.010230
vt 0.682414 0.567500
vt 0.768433 0.567500
vt 0.755854 0.542706
vt 0.694681 0.542706
vt 0.682414 0.542706
vt 0.768433 0.542706
vt 0.694680 0.010231
vt 0.755853 0.010230
s 1
usemtl Wall
f 52/1/1 44/2/2 41/3/3
f 52/1/1 41/3/3 40/4/3
s 0
f 35/5/3 31/6/3 27/7/3
f 35/5/3 27/7/3 37/8/3
s 1
f 51/5/4 34/9/5 36/10/5
f 51/5/4 36/10/5 43/8/6
f 20/5/7 6/8/8 10/10/5
f 20/5/7 10/10/5 14/9/5
s 0
f 15/5/9 11/8/9 21/7/9
f 15/5/9 21/7/9 25/6/9
f 26/6/10 22/7/10 28/11/10
f 26/6/10 28/11/10 32/12/10
s 1
f 19/1/11 2/4/9 3/3/9
f 19/1/11 3/3/9 5/2/12
f 18/13/13 13/14/14 24/15/14
f 30/16/14 33/17/14 48/18/15
f 30/16/14 50/18/16 16/13/17
f 30/16/14 16/13/17 24/15/14
f 39/19/14 1/20/14 17/13/18
f 39/19/14 17/13/18 49/18/19
f 29/21/20 23/22/20 8/23/21
f 29/21/20 8/23/21 47/24/22
f 45/24/23 38/25/20 29/21/20
f 23/22/20 12/26/20 9/23/24
f 42/27/20 46/24/25 7/23/26
f 42/27/20 7/23/26 4/28/20
