# Blender 4.0.2
# www.blender.org
mtllib Wall_Curver_90.mtl
o Wall_corner_1
v -0.728192 -0.086057 1.123178
v -0.728192 -0.086057 1.123178
v -0.728186 2.775180 1.123178
v -0.728186 2.775180 1.123178
v -0.728186 2.775180 1.123178
v -0.660591 2.775182 1.123178
v -0.660591 2.775182 1.123178
v -0.660591 2.775182 1.123178
v -0.660592 2.908412 1.123178
v -0.660592 2.908412 1.123178
v -0.660592 2.908412 1.123178
v -1.122816 2.908413 1.123178
v -1.122816 2.908413 1.123178
v -1.122816 2.908413 1.123178
v -1.056902 2.775182 1.123178
v -1.056902 2.775182 1.123178
v -1.056902 2.775182 1.123178
v -1.122818 2.775184 1.123178
v -1.122818 2.775184 1.123178
v -1.122818 2.775184 1.123178
v -1.056903 -0.086056 1.123178
v -1.056903 -0.086056 1.123178
v 1.122817 -0.086057 -1.055578
v 1.122817 -0.086057 -1.055578
v 1.122817 2.775180 -1.055583
v 1.122817 2.775180 -1.055583
v 1.122817 2.775180 -1.055583
v 1.122817 2.775182 -1.123178
v 1.122817 2.775182 -1.123178
v 1.122817 2.775182 -1.123178
v 1.122817 2.908412 -1.123177
v 1.122817 2.908412 -1.123177
v 1.122817 2.908412 -1.123177
v 1.122817 2.908413 -0.660953
v 1.122817 2.908413 -0.660953
v 1.122817 2.908413 -0.660953
v 1.122817 2.775182 -0.726868
v 1.122817 2.775182 -0.726868
v 1.122817 2.775182 -0.726868
v 1.122817 2.775184 -0.660952
v 1.122817 2.775184 -0.660952
v 1.122817 2.775184 -0.660952
v 1.122817 -0.086056 -0.726866
v 1.122817 -0.086056 -0.726866
v -0.660593 2.775183 -0.660953
v -0.660593 2.775183 -0.660953
v -0.660593 2.775183 -0.660953
v -0.660593 2.775183 -0.660953
v -0.660593 2.908413 -0.660953
v -0.660593 2.908413 -0.660953
v -0.660593 2.908413 -0.660953
v -0.660593 2.908413 -0.660953
v -1.056060 -0.086057 -1.056421
v -1.056060 -0.086057 -1.056421
v -1.056062 2.775181 -1.056423
v -1.056062 2.775181 -1.056423
v -1.056062 2.775181 -1.056423
v -1.056062 2.775181 -1.056423
v -1.122816 2.775183 -1.123176
v -1.122816 2.775183 -1.123176
v -1.122816 2.775183 -1.123176
v -1.122816 2.775183 -1.123176
v -1.122816 2.908413 -1.123176
v -1.122816 2.908413 -1.123176
v -1.122816 2.908413 -1.123176
v -1.122816 2.908413 -1.123176
v -0.727349 -0.086057 -0.727709
v -0.727349 -0.086057 -0.727709
v -0.727347 2.775181 -0.727707
v -0.727347 2.775181 -0.727707
v -0.727347 2.775181 -0.727707
v -0.727347 2.775181 -0.727707
vn -0.0000 -1.0000 -0.0000
vn -0.0000 1.0000 -0.0000
vn 0.0004 -0.0000 -1.0000
vn -0.0005 -0.0000 1.0000
vn -0.0000 -0.0000 -1.0000
vn -0.0000 -0.0000 1.0000
vn -1.0000 -0.0000 -0.0000
vn 1.0000 -0.0000 -0.0000
vn 1.0000 -0.0000 0.0005
vn -1.0000 -0.0000 -0.0004
vt 0.000500 0.927955
vt 0.000500 0.913263
vt 0.330245 0.913263
vt 0.340478 0.927955
vt 0.270500 0.999500
vt 0.000500 0.999500
vt 0.000500 0.934774
vt 0.340478 0.934774
vt 0.270500 0.927955
vt 0.280479 0.913263
vt 0.270609 0.927955
vt 0.280842 0.913263
vt 0.270609 0.934774
vt 0.340587 0.999501
vt 0.340587 0.927955
vt 0.330608 0.913263
vt 0.330244 0.000500
vt 0.330245 0.451293
vt 0.000500 0.451293
vt 0.000500 0.000500
vt 0.280479 0.451293
vt 0.280479 0.000500
vt 0.340478 0.913263
vt 0.694451 0.004219
vt 0.756210 0.004219
vt 0.756211 0.541792
vt 0.694451 0.541792
vt 0.340587 0.934774
vt 0.340587 0.913263
vt 0.673957 0.568085
vt 0.686084 0.543573
vt 0.746562 0.543572
vt 0.758998 0.568085
vt 0.270500 0.934774
vt 0.270500 0.913263
vt 0.280842 0.451293
vt 0.280843 0.000500
vt 0.768910 0.541792
vt 0.768910 0.566823
vt 0.682067 0.566824
vt 0.682067 0.541792
vt 0.686084 0.017155
vt 0.746561 0.017155
vt 0.758999 0.543573
vt 0.673957 0.543573
vt 0.270609 0.913263
vt 0.330608 0.451293
vt 0.330608 0.000500
s 0
usemtl Wall
f 28/1/1 25/2/1 56/3/1
f 56/3/1 60/4/1 28/1/1
f 50/5/2 35/6/2 32/7/2
f 32/7/2 65/8/2 50/5/2
f 38/2/1 40/1/1 45/9/1
f 45/9/1 70/10/1 38/2/1
f 46/11/1 6/1/1 3/2/1
f 3/2/1 71/12/1 46/11/1
f 14/6/2 10/7/2 51/13/2
f 51/13/2 66/14/2 14/6/2
f 16/2/1 19/1/1 61/15/1
f 61/15/1 57/16/1 16/2/1
f 54/17/3 58/18/3 26/19/3
f 54/17/3 26/19/3 23/20/3
f 69/21/4 67/22/4 43/20/4
f 69/21/4 43/20/4 37/19/4
f 29/2/5 62/23/5 64/8/5
f 29/2/5 64/8/5 31/7/5
f 22/24/6 1/25/6 4/26/6
f 22/24/6 4/26/6 17/27/6
f 18/2/7 12/7/7 63/28/7
f 18/2/7 63/28/7 59/29/7
f 36/30/8 39/31/8 27/32/8
f 36/30/8 27/32/8 33/33/8
f 34/7/6 49/34/6 47/35/6
f 34/7/6 47/35/6 41/2/6
f 72/36/9 5/19/9 2/20/9
f 72/36/9 2/20/9 68/37/9
f 4/26/6 7/38/6 9/39/6
f 13/40/6 20/41/6 17/27/6
f 44/42/8 24/43/8 27/32/8
f 44/42/8 27/32/8 39/31/8
f 27/32/8 30/44/8 33/33/8
f 13/40/6 17/27/6 4/26/6
f 13/40/6 4/26/6 9/39/6
f 36/30/8 42/45/8 39/31/8
f 8/2/8 48/46/8 52/13/8
f 8/2/8 52/13/8 11/7/8
f 15/19/10 55/47/10 53/48/10
f 15/19/10 53/48/10 21/20/10
