# Blender 4.0.2
# www.blender.org
mtllib Wall_Curver_Small.mtl
o Wall_corner_2
v -0.827129 -0.086057 1.534345
v -0.827129 -0.086057 1.534345
v -0.827129 -0.086057 1.534345
v -0.827126 0.658036 1.534345
v -0.827126 2.775180 1.534345
v -0.827126 2.775180 1.534345
v -0.827126 2.775180 1.534345
v -0.827126 2.775180 1.534345
v 1.534341 2.775180 -0.827128
v 1.534341 2.775180 -0.827128
v 1.534341 2.775180 -0.827128
v 1.534341 -0.086057 -0.827125
v 1.534341 -0.086057 -0.827125
v -0.894718 2.775181 1.534345
v -0.894718 2.775181 1.534345
v -0.894718 2.775181 1.534345
v 1.534341 2.775181 -0.894721
v 1.534341 2.775181 -0.894721
v 1.534341 2.775181 -0.894721
v -0.894718 2.908411 1.534345
v -0.894718 2.908411 1.534345
v -0.894718 2.908411 1.534345
v 1.534341 2.908411 -0.894719
v 1.534341 2.908411 -0.894719
v 1.534341 2.908411 -0.894719
v -0.432499 2.908412 1.534345
v -0.432499 2.908412 1.534345
v -0.432499 2.908412 1.534345
v 1.534342 2.908412 -0.432498
v 1.534342 2.908412 -0.432498
v 1.534342 2.908412 -0.432498
v -0.498412 2.775182 1.534342
v -0.498412 2.775182 1.534342
v -0.498412 2.775182 1.534342
v -0.498412 2.775182 1.534342
v 1.534344 2.775182 -0.498412
v 1.534344 2.775182 -0.498412
v 1.534344 2.775182 -0.498412
v 1.534342 2.775184 -0.432498
v 1.534342 2.775184 -0.432498
v 1.534342 2.775184 -0.432498
v -0.432501 2.775184 1.534345
v -0.432501 2.775184 1.534345
v -0.432501 2.775184 1.534345
v -0.498413 -0.086055 1.534342
v -0.498413 -0.086055 1.534342
v -0.498413 -0.086055 1.534342
v 1.534343 -0.086055 -0.498411
v 1.534343 -0.086055 -0.498411
v -0.498412 0.658038 1.534342
v -0.827127 2.775180 0.191090
v -0.827127 2.775180 0.191090
v -0.691255 2.775180 -0.318272
v -0.691255 2.775180 -0.318272
v -0.318275 2.775180 -0.691252
v -0.318275 2.775180 -0.691252
v 0.191086 2.775180 -0.827127
v 0.191086 2.775180 -0.827127
v 0.191086 -0.086057 -0.827126
v -0.318275 -0.086057 -0.691252
v -0.691255 -0.086057 -0.318272
v -0.827128 -0.086057 0.191090
v -0.894720 2.775181 0.191090
v -0.894720 2.775181 0.191090
v -0.749813 2.775181 -0.352031
v -0.749813 2.775181 -0.352031
v -0.352035 2.775181 -0.749811
v -0.352035 2.775181 -0.749811
v 0.191086 2.775181 -0.894720
v 0.191086 2.775181 -0.894720
v -0.894719 2.908412 0.191090
v -0.894719 2.908412 0.191090
v -0.749812 2.908412 -0.352030
v -0.749812 2.908412 -0.352030
v -0.352034 2.908412 -0.749810
v -0.352034 2.908412 -0.749810
v 0.191086 2.908412 -0.894718
v 0.191086 2.908412 -0.894718
v 0.191086 2.908412 -0.432498
v 0.191086 2.908412 -0.432498
v -0.121178 2.908412 -0.349368
v -0.121178 2.908412 -0.349368
v -0.349371 2.908412 -0.121175
v -0.349371 2.908412 -0.121175
v -0.432499 2.908412 0.191090
v -0.432499 2.908412 0.191090
v 0.191089 2.775182 -0.498412
v 0.191089 2.775182 -0.498412
v -0.154097 2.775182 -0.406474
v -0.154097 2.775182 -0.406474
v -0.406473 2.775182 -0.154098
v -0.406473 2.775182 -0.154098
v -0.498413 2.775182 0.191087
v -0.498413 2.775182 0.191087
v 0.191086 2.775185 -0.432499
v 0.191086 2.775185 -0.432499
v -0.121178 2.775185 -0.349369
v -0.121178 2.775185 -0.349369
v -0.349372 2.775185 -0.121176
v -0.349372 2.775185 -0.121176
v -0.432500 2.775185 0.191089
v -0.432500 2.775185 0.191089
v -0.498414 -0.086055 0.191087
v -0.406474 -0.086055 -0.154098
v -0.154097 -0.086055 -0.406473
v 0.191088 -0.086055 -0.498412
vn -0.9979 -0.0000 -0.0641
vn -0.0643 -0.0000 0.9979
vn 0.3592 -0.0000 0.9332
vn 0.3412 -0.0000 0.9400
vn -0.0000 1.0000 -0.0000
vn -0.0000 -0.0000 -1.0000
vn -0.1300 -0.0000 -0.9915
vn 1.0000 -0.0000 -0.0000
vn -0.0000 -1.0000 -0.0000
vn -0.4995 -0.0000 -0.8663
vn -0.8663 -0.0000 -0.4995
vn 0.4994 -0.0000 0.8664
vn 0.8664 -0.0000 0.4994
vn 0.9916 -0.0000 0.1297
vn 0.8664 -0.0000 0.4993
vn -1.0000 -0.0000 -0.0000
vn -0.9915 -0.0000 -0.1300
vn 0.1298 -0.0000 0.9915
vn 0.9915 -0.0000 0.1298
vn 0.1297 -0.0000 0.9916
vn 0.4993 -0.0000 0.8664
vn -0.0000 -0.0000 1.0000
vt 0.610587 0.451293
vt 0.610587 0.571433
vt 0.610587 0.913263
vt 0.000500 0.999500
vt 0.000500 0.934774
vt 0.203862 0.934774
vt 0.203862 0.999500
vt 0.000500 0.913263
vt 0.203862 0.913263
vt 0.676901 0.568085
vt 0.689028 0.543573
vt 0.749506 0.543573
vt 0.761941 0.568085
vt 0.271650 0.913263
vt 0.339437 0.913263
vt 0.339437 0.927955
vt 0.271650 0.927955
vt 0.203862 0.927955
vt 0.000500 0.927955
vt 0.271650 0.934774
vt 0.339437 0.934774
vt 0.339437 0.451293
vt 0.271650 0.451293
vt 0.407225 0.913263
vt 0.407225 0.934774
vt 0.203862 0.451293
vt 0.000500 0.451293
vt 0.689027 0.017155
vt 0.749505 0.017155
vt 0.271650 0.999500
vt 0.407225 0.927955
vt 0.610587 0.927955
vt 0.407225 0.934774
vt 0.407225 0.999500
vt 0.339437 0.999500
vt 0.610587 0.934774
vt 0.407225 0.913263
vt 0.407225 0.927955
vt 0.203862 0.451293
vt 0.203862 0.913263
vt 0.407225 0.451293
vt 0.203862 0.927955
vt 0.203862 0.934774
vt 0.407225 0.451293
vt 0.610587 0.999500
vt 0.761942 0.543573
vt 0.694766 0.541792
vt 0.756526 0.541793
vt 0.768909 0.566824
vt 0.682067 0.566824
vt 0.676901 0.543573
vt 0.756525 0.004220
vt 0.694766 0.004220
vt 0.682067 0.541792
vt 0.768909 0.541793
s 1
usemtl Wall
f 2/1/1 4/2/2 6/3/1
f 34/3/3 46/1/3 50/2/4
s 0
f 30/4/5 24/5/5 78/6/5
f 30/4/5 78/6/5 79/7/5
s 1
f 18/8/6 69/9/7 77/6/7
f 18/8/6 77/6/7 23/5/6
s 0
f 31/10/8 38/11/8 11/12/8
f 31/10/8 11/12/8 25/13/8
f 56/14/9 54/15/9 66/16/9
f 56/14/9 66/16/9 68/17/9
f 9/8/9 58/9/9 70/18/9
f 9/8/9 70/18/9 17/19/9
s 1
f 75/20/10 67/14/10 65/15/11
f 75/20/10 65/15/11 73/21/11
f 90/14/12 92/15/13 104/22/13
f 90/14/12 104/22/13 105/23/12
f 102/24/14 100/15/15 84/21/15
f 102/24/14 84/21/15 86/25/14
f 59/26/7 60/23/10 55/14/10
f 59/26/7 55/14/10 57/9/7
f 12/27/6 59/26/7 57/9/7
f 12/27/6 57/9/7 10/8/6
s 0
f 49/28/8 13/29/8 11/12/8
f 49/28/8 11/12/8 38/11/8
f 78/6/5 76/20/5 81/30/5
f 78/6/5 81/30/5 79/7/5
f 32/3/9 93/24/9 101/31/9
f 32/3/9 101/31/9 42/32/9
f 72/33/5 85/34/5 83/35/5
f 72/33/5 83/35/5 74/21/5
s 1
f 20/36/16 71/33/17 63/37/17
f 20/36/16 63/37/17 14/3/16
f 63/37/17 71/33/17 73/21/11
f 63/37/17 73/21/11 65/15/11
s 0
f 15/32/9 64/38/9 52/37/9
f 15/32/9 52/37/9 7/3/9
s 1
f 44/3/8 102/24/14 86/25/14
f 44/3/8 86/25/14 28/36/8
f 106/39/18 88/40/18 90/14/12
f 106/39/18 90/14/12 105/23/12
s 0
f 93/24/9 91/15/9 99/16/9
f 93/24/9 99/16/9 101/31/9
s 1
f 103/41/19 104/22/13 92/15/13
f 103/41/19 92/15/13 94/24/19
s 0
f 87/40/9 95/42/9 97/17/9
f 87/40/9 97/17/9 89/14/9
f 64/38/9 66/16/9 54/15/9
f 64/38/9 54/15/9 52/37/9
f 97/17/9 99/16/9 91/15/9
f 97/17/9 91/15/9 89/14/9
f 70/18/9 58/9/9 56/14/9
f 70/18/9 56/14/9 68/17/9
f 76/20/5 74/21/5 83/35/5
f 76/20/5 83/35/5 81/30/5
s 1
f 80/43/20 82/20/21 98/14/21
f 80/43/20 98/14/21 96/40/20
f 29/5/22 80/43/20 96/40/20
f 29/5/22 96/40/20 40/8/22
f 77/6/7 69/9/7 67/14/10
f 77/6/7 67/14/10 75/20/10
f 98/14/21 82/20/21 84/21/15
f 98/14/21 84/21/15 100/15/15
f 51/37/17 62/44/17 1/1/16
f 51/37/17 1/1/16 5/3/16
f 60/23/10 61/22/11 53/15/11
f 60/23/10 53/15/11 55/14/10
f 62/44/17 51/37/17 53/15/11
f 62/44/17 53/15/11 61/22/11
f 37/8/22 88/40/18 106/39/18
f 37/8/22 106/39/18 48/27/22
s 0
f 22/36/5 27/45/5 85/34/5
f 22/36/5 85/34/5 72/33/5
f 11/12/8 19/46/8 25/13/8
f 8/47/22 33/48/22 26/49/22
f 8/47/22 26/49/22 21/50/22
f 31/10/8 41/51/8 38/11/8
f 45/52/22 33/48/22 8/47/22
f 45/52/22 8/47/22 3/53/22
f 21/50/22 16/54/22 8/47/22
f 39/19/9 95/42/9 87/40/9
f 39/19/9 87/40/9 36/8/9
f 33/48/22 43/55/22 26/49/22
s 1
f 103/41/19 94/24/19 35/3/8
f 103/41/19 35/3/8 47/1/8
